<svg width="27" height="27" viewBox="0 0 27 27" fill="none" xmlns="http://www.w3.org/2000/svg">
<path d="M22.3627 11.6761H18.7385V9.50384C18.7385 9.00256 18.802 8.76218 18.9075 8.63248C18.9916 8.529 19.1985 8.38695 19.8281 8.38695C20.4597 8.38695 21.0651 8.38959 21.5127 8.39222C21.7365 8.39354 21.9208 8.39486 22.049 8.39585L22.1974 8.39704L22.2362 8.39737L22.2461 8.39746L22.2486 8.39748L22.2492 8.39749L22.2493 8.39749H22.2494L22.7409 8.40196L22.7537 7.91059L22.8432 4.49321L22.8559 4.00861L22.3719 3.98094L22.3434 4.48013L22.3719 3.98094L22.3717 3.98094L22.3714 3.98091L22.3699 3.98083L22.3644 3.98052L22.343 3.97931L22.2608 3.97477C22.1894 3.97085 22.0857 3.96527 21.9565 3.95858C21.6983 3.9452 21.3379 3.92735 20.9292 3.90951C20.114 3.87391 19.0985 3.83793 18.3178 3.83793C16.3177 3.83793 14.8192 4.43393 13.8189 5.41584C12.8208 6.39561 12.3697 7.71007 12.3697 9.04962V11.6761H10.0786H9.57861V12.1761V15.8356V16.3356H10.0786H12.3697V26.5H4.82143C3.60203 26.5 2.73628 26.499 2.09756 26.4172C1.46283 26.3359 1.16118 26.1861 0.980361 25.9776C0.786548 25.7542 0.646379 25.3683 0.573029 24.6074C0.50056 23.8556 0.5 22.8424 0.5 21.4424V4.74743C0.5 3.54817 0.500765 2.69178 0.572181 2.05889C0.643932 1.42304 0.777786 1.12271 0.953487 0.949706C1.13075 0.775163 1.4397 0.642186 2.08842 0.571213C2.73275 0.500719 3.60404 0.5 4.82143 0.5H22.1741C23.389 0.521479 24.2596 0.537644 24.9039 0.618258C25.5533 0.699513 25.8663 0.836147 26.0465 1.01364C26.2235 1.1879 26.3565 1.48478 26.4279 2.10775C26.4992 2.72944 26.5 3.56934 26.5 4.74746L26.5 21.4424C26.5 22.8426 26.4994 23.8552 26.4254 24.6063C26.3505 25.3659 26.2077 25.7503 26.0097 25.9735C25.8229 26.1841 25.5102 26.3353 24.858 26.417C24.2032 26.4991 23.3162 26.5 22.07 26.5H18.7385V16.3356H22.183H22.6591L22.6824 15.8602L22.8621 12.2007L22.8879 11.6761H22.3627Z" stroke="#F9F9F9"/>
</svg>
