<svg width="831" height="790" viewBox="0 0 831 790" fill="none" xmlns="http://www.w3.org/2000/svg">
<path d="M19.4688 517.091L336.158 505.346L808.253 495.735V777.101H389.048L19.4688 517.091Z" fill="url(#paint0_linear)"/>
<path d="M-19 497.604H217.5H807.5V778.304H280.47L-19 497.604Z" fill="url(#paint1_linear)"/>
<path d="M830.5 122.371L830.5 0H349.5V281H830.5V122.371Z" fill="url(#paint2_linear)"/>
<path d="M364.826 509.452V501.373L488.963 569.115V577.194L364.826 509.452Z" fill="#E7E7E7"/>
<path d="M508.312 475.914V486.796L429.882 518.298L342.5 486.796V475.914V440.689V407.182V373.446V361.647L429.882 325.85L508.312 361.647C508.325 365.267 508.339 369.232 508.353 373.446C508.388 383.699 508.422 395.418 508.449 407.182C508.475 418.761 508.494 430.382 508.499 440.689C508.508 460.671 508.463 475.71 508.312 475.914Z" fill="#C7C7EC"/>
<path d="M508.312 475.914V486.796L429.881 518.298M508.312 475.914L486.999 484.24M508.312 475.914C508.463 475.71 508.508 460.671 508.499 440.689M429.881 506.556V518.298M429.881 506.556L449.489 498.896M429.881 506.556L404.733 497.737M429.881 506.556V470.472M429.881 518.298L342.5 486.796V475.914M508.312 361.647L429.881 325.85L342.5 361.647M508.312 361.647L486.999 369.663M508.312 361.647C508.325 365.267 508.339 369.232 508.353 373.446M429.881 391.145L449.489 383.77M429.881 391.145L404.733 382.655M429.881 391.145V404.318M342.5 475.914L363.813 483.388M342.5 475.914C342.5 474.915 342.5 460.128 342.5 440.689M342.5 361.647L363.813 368.842M342.5 361.647C342.5 365.258 342.5 369.224 342.5 373.446M486.999 369.663V484.24M486.999 369.663L469.949 376.075M486.999 484.24L469.949 490.902M449.489 383.77V498.896M449.489 383.77L469.949 376.075M449.489 498.896L469.949 490.902M404.733 382.655V497.737M404.733 382.655L391.093 378.051M404.733 497.737L391.093 492.954M363.813 368.842V483.388M363.813 368.842L377.453 373.446M363.813 483.388L377.453 488.171M391.093 378.051V492.954M391.093 378.051L377.453 373.446M391.093 492.954L377.453 488.171M377.453 373.446V488.171M469.949 490.902V376.075M508.499 440.689L429.881 470.472M508.499 440.689C508.494 430.382 508.475 418.761 508.449 407.182M429.881 470.472L342.5 440.689M429.881 470.472V437.252M342.5 440.689C342.5 430.375 342.5 418.751 342.5 407.182M508.449 407.182L429.881 437.252M508.449 407.182C508.422 395.418 508.388 383.699 508.353 373.446M429.881 437.252L342.5 407.182M429.881 437.252V404.318M342.5 407.182C342.5 395.4 342.5 383.675 342.5 373.446M508.353 373.446L429.881 404.318M429.881 404.318L342.5 373.446" stroke="white"/>
<path d="M380.01 295.178L427.578 273.443L470.273 295.178C470.28 297.375 470.288 299.783 470.295 302.341C470.314 308.566 470.333 315.682 470.347 322.824C470.361 329.854 470.372 336.91 470.374 343.167C470.379 355.299 470.355 364.43 470.273 364.554L458.671 369.609L449.389 373.654L438.251 378.507L427.578 383.158L413.887 377.804L406.462 374.9L399.037 371.996L391.612 369.091L380.01 364.554V343.167V322.824V302.341V295.178Z" fill="#C7C7EC"/>
<path d="M427.578 383.158L438.251 378.507M427.578 383.158L413.887 377.804M427.578 383.158V361.25M470.273 295.178L427.578 273.443L380.01 295.178M470.273 295.178L458.671 300.044M470.273 295.178C470.28 297.375 470.288 299.783 470.295 302.341C470.314 308.566 470.333 315.682 470.347 322.824M427.578 313.087L438.251 308.61M427.578 313.087L413.887 307.932M427.578 313.087V321.085V341.081M380.01 295.178L391.612 299.546M380.01 295.178C380.01 297.37 380.01 299.778 380.01 302.341C380.01 308.551 380.01 315.67 380.01 322.824M458.671 300.044V369.609M458.671 300.044L449.389 303.938M458.671 369.609L470.273 364.554C470.355 364.43 470.379 355.299 470.374 343.167M458.671 369.609L449.389 373.654M438.251 308.61V378.507M438.251 308.61L449.389 303.938M438.251 378.507L449.389 373.654M413.887 307.932V377.804M413.887 307.932L406.462 305.137M413.887 377.804L406.462 374.9M391.612 299.546V369.091M391.612 299.546L399.037 302.341M391.612 369.091L380.01 364.554C380.01 363.947 380.01 354.97 380.01 343.167M391.612 369.091L399.037 371.996M406.462 305.137V374.9M406.462 305.137L399.037 302.341M406.462 374.9L399.037 371.996M399.037 302.341V371.996M449.389 373.654V303.938M470.374 343.167L427.578 361.25M470.374 343.167C470.372 336.91 470.361 329.854 470.347 322.824M427.578 361.25L380.01 343.167M427.578 361.25V341.081M380.01 343.167C380.01 336.905 380.01 329.848 380.01 322.824M470.347 322.824L427.578 341.081M427.578 341.081L380.01 322.824" stroke="white"/>
<path d="M400.471 255H424.767H449.86C449.864 256.205 449.868 257.524 449.872 258.927C449.882 262.339 449.893 266.239 449.901 270.154C449.908 274.008 449.914 277.875 449.916 281.305C449.918 287.956 449.905 292.961 449.86 293.028L443.512 295.8L438.433 298.017L432.339 300.677L426.498 303.227L419.007 300.291L414.945 298.7L410.882 297.108L406.819 295.516L400.471 293.028V281.305V270.154V258.927V255Z" fill="#C7C7EC"/>
<path d="M426.498 303.227L432.339 300.677L438.433 298.017M426.498 303.227L419.007 300.291L414.945 298.7L410.882 297.108M426.498 303.227V291.218M449.86 255H424.767H400.471M449.86 255L443.512 257.668L438.433 259.802M449.86 255C449.864 256.205 449.868 257.524 449.872 258.927C449.882 262.339 449.893 266.239 449.901 270.154C449.908 274.008 449.914 277.875 449.916 281.305M426.498 264.817L432.339 262.363L438.433 259.802M426.498 264.817L419.007 261.992L414.945 260.459L410.882 258.927M426.498 264.817V269.201V280.162V291.218M400.471 255L406.819 257.394L410.882 258.927M400.471 255C400.471 256.202 400.471 257.522 400.471 258.927C400.471 262.331 400.471 266.233 400.471 270.154C400.471 274.004 400.471 277.873 400.471 281.305M410.882 258.927V297.108M410.882 297.108L406.819 295.516L400.471 293.028C400.471 292.696 400.471 287.775 400.471 281.305M438.433 298.017L443.512 295.8L449.86 293.028C449.905 292.961 449.918 287.956 449.916 281.305M438.433 298.017V259.802M449.916 281.305L426.498 291.218M426.498 291.218L400.471 281.305" stroke="white"/>
<path d="M666.921 502.099V511.907L592.46 540.298L509.5 511.907V502.099V470.353V440.155V409.75V399.116L592.46 366.854L666.921 399.116C666.934 402.378 666.947 405.952 666.961 409.75C666.993 418.99 667.026 429.553 667.051 440.155C667.076 450.59 667.094 461.064 667.099 470.353C667.107 488.362 667.065 501.916 666.921 502.099Z" fill="#C7C7EC"/>
<path d="M666.921 502.099V511.907L592.46 540.298M666.921 502.099L646.687 509.604M666.921 502.099C667.065 501.916 667.107 488.362 667.099 470.353M592.46 529.716V540.298M592.46 529.716L611.075 522.812M592.46 529.716L568.583 521.768M592.46 529.716V497.195M592.46 540.298L509.5 511.907V502.099M666.921 399.116L592.46 366.854L509.5 399.116M666.921 399.116L646.687 406.34M666.921 399.116C666.934 402.378 666.947 405.952 666.961 409.75M592.46 425.701L611.075 419.055M592.46 425.701L568.583 418.05M592.46 425.701V437.574M509.5 502.099L529.734 508.835M509.5 502.099C509.5 501.199 509.5 487.873 509.5 470.353M509.5 399.116L529.734 405.6M509.5 399.116C509.5 402.37 509.5 405.945 509.5 409.75M646.687 406.34V509.604M646.687 406.34L630.5 412.12M646.687 509.604L630.5 515.607M611.075 419.055V522.812M611.075 419.055L630.5 412.12M611.075 522.812L630.5 515.607M568.583 418.05V521.768M568.583 418.05L555.634 413.9M568.583 521.768L555.634 517.457M529.734 405.6V508.835M529.734 405.6L542.684 409.75M529.734 508.835L542.684 513.146M555.634 413.9V517.457M555.634 413.9L542.684 409.75M555.634 517.457L542.684 513.146M542.684 409.75V513.146M630.5 515.607V412.12M667.099 470.353L592.46 497.195M667.099 470.353C667.094 461.064 667.076 450.59 667.051 440.155M592.46 497.195L509.5 470.353M592.46 497.195V467.255M509.5 470.353C509.5 461.057 509.5 450.581 509.5 440.155M667.051 440.155L592.46 467.255M667.051 440.155C667.026 429.553 666.993 418.99 666.961 409.75M592.46 467.255L509.5 440.155M592.46 467.255V437.574M509.5 440.155C509.5 429.536 509.5 418.968 509.5 409.75M666.961 409.75L592.46 437.574M592.46 437.574L509.5 409.75" stroke="white"/>
<path d="M545.111 339.21L590.272 319.622L630.806 339.21C630.813 341.191 630.821 343.361 630.828 345.666C630.846 351.276 630.863 357.689 630.877 364.126C630.891 370.462 630.901 376.821 630.903 382.461C630.908 393.395 630.885 401.624 630.806 401.735L619.792 406.292L610.98 409.937L600.406 414.311L590.272 418.503L577.275 413.677L570.225 411.06L563.176 408.442L556.126 405.825L545.111 401.735V382.461V364.126V345.666V339.21Z" fill="#C7C7EC"/>
<path d="M590.272 418.503L600.406 414.311M590.272 418.503L577.275 413.677M590.272 418.503V398.758M630.806 339.21L590.272 319.622L545.111 339.21M630.806 339.21L619.792 343.596M630.806 339.21C630.813 341.191 630.821 343.361 630.828 345.666C630.846 351.276 630.863 357.689 630.877 364.126M590.272 355.351L600.406 351.316M590.272 355.351L577.275 350.705M590.272 355.351V362.559V380.58M545.111 339.21L556.126 343.147M545.111 339.21C545.111 341.186 545.111 343.356 545.111 345.666C545.111 351.263 545.111 357.679 545.111 364.126M619.792 343.596V406.292M619.792 343.596L610.98 347.105M619.792 406.292L630.806 401.735C630.885 401.624 630.908 393.395 630.903 382.461M619.792 406.292L610.98 409.937M600.406 351.316V414.311M600.406 351.316L610.98 347.105M600.406 414.311L610.98 409.937M577.275 350.705V413.677M577.275 350.705L570.225 348.186M577.275 413.677L570.225 411.06M556.126 343.147V405.825M556.126 343.147L563.176 345.666M556.126 405.825L545.111 401.735C545.111 401.189 545.111 393.098 545.111 382.461M556.126 405.825L563.176 408.442M570.225 348.186V411.06M570.225 348.186L563.176 345.666M570.225 411.06L563.176 408.442M563.176 345.666V408.442M610.98 409.937V347.105M630.903 382.461L590.272 398.758M630.903 382.461C630.901 376.821 630.891 370.462 630.877 364.126M590.272 398.758L545.111 382.461M590.272 398.758V380.58M545.111 382.461C545.111 376.817 545.111 370.457 545.111 364.126M630.877 364.126L590.272 380.58M590.272 380.58L545.111 364.126" stroke="white"/>
<path d="M564.537 303H587.604H611.427C611.431 304.086 611.435 305.275 611.439 306.539C611.448 309.614 611.458 313.129 611.466 316.658C611.473 320.131 611.478 323.616 611.48 326.708C611.482 332.701 611.47 337.212 611.427 337.273L605.4 339.771L600.578 341.769L594.792 344.166L589.248 346.464L582.136 343.819L578.279 342.384L574.421 340.95L570.564 339.515L564.537 337.273V326.708V316.658V306.539V303Z" fill="#C7C7EC"/>
<path d="M589.248 346.464L594.792 344.166L600.578 341.769M589.248 346.464L582.136 343.819L578.279 342.384L574.421 340.95M589.248 346.464V335.641M611.427 303H587.604H564.537M611.427 303L605.4 305.404L600.578 307.328M611.427 303C611.431 304.086 611.435 305.275 611.439 306.539C611.448 309.614 611.458 313.129 611.466 316.658C611.473 320.131 611.478 323.616 611.48 326.708M589.248 311.847L594.792 309.636L600.578 307.328M589.248 311.847L582.136 309.301L578.279 307.92L574.421 306.539M589.248 311.847V315.799V325.677V335.641M564.537 303L570.564 305.158L574.421 306.539M564.537 303C564.537 304.083 564.537 305.273 564.537 306.539C564.537 309.607 564.537 313.124 564.537 316.658C564.537 320.128 564.537 323.614 564.537 326.708M574.421 306.539V340.95M574.421 340.95L570.564 339.515L564.537 337.273C564.537 336.974 564.537 332.539 564.537 326.708M600.578 341.769L605.4 339.771L611.427 337.273C611.47 337.212 611.482 332.701 611.48 326.708M600.578 341.769V307.328M611.48 326.708L589.248 335.641M589.248 335.641L564.537 326.708" stroke="white"/>
<path d="M505.951 593.664V91.5049L656.222 171.055V673.213L505.951 593.664Z" fill="#96C2F0" fill-opacity="0.8"/>
<path d="M364.827 52.3522L364.561 8.67383L479.405 71.0219L488.311 119.783L364.827 52.3522Z" fill="#96C2F0" fill-opacity="0.8"/>
<path d="M364.828 60.1213V52.042L488.965 119.784V127.863L364.828 60.1213Z" fill="#E7E7E7"/>
<path d="M364.828 221.706V213.627L488.965 281.369V289.448L364.828 221.706Z" fill="#E7E7E7"/>
<path d="M364.828 293.177V285.098L488.965 352.839V360.919L364.828 293.177Z" fill="#E7E7E7"/>
<path d="M364.828 446.686V438.606L488.965 506.348V514.427L364.828 446.686Z" fill="#E7E7E7"/>
<path d="M364.828 285.409V221.396L488.965 289.138V353.151L364.828 285.409Z" fill="#96C2F0" fill-opacity="0.8"/>
<path d="M364.828 438.603V293.176L488.965 360.917V506.345L364.828 438.603Z" fill="#96C2F0" fill-opacity="0.8"/>
<path d="M364.828 501.374V446.684L488.965 514.425V569.116L364.828 501.374Z" fill="#96C2F0" fill-opacity="0.8"/>
<path d="M364.828 213.317V59.1895L488.965 126.931V281.059L364.828 213.317Z" fill="#96C2F0" fill-opacity="0.8"/>
<path d="M342.613 20.3748L364.827 7.90332V520.026L342.613 532.039V20.3748Z" fill="url(#paint3_linear)"/>
<path d="M342.613 20.3739L327.586 12.3281V523.819L342.613 532.038V20.3739Z" fill="#D2CFCF"/>
<path d="M327.586 12.3289L349.8 0L364.827 7.90313L342.613 20.5481L327.586 12.3289Z" fill="#E7E7E7"/>
<path d="M482.103 79.348L451.722 95.7865L449.762 97.051L447.149 155.85L441.922 152.689V93.2575L479.49 72.0771C479.751 72.0771 487.003 76.5029 487.003 76.5029L482.103 79.348Z" fill="#E7E7E7"/>
<path d="M461.523 115.214L493.872 89.4648L491.872 597.478L461.523 623.084V115.214Z" fill="url(#paint4_linear)"/>
<path d="M489.5 104.794L509.5 91L506.5 594L489.5 609V104.794Z" fill="url(#paint5_linear)"/>
<path d="M461.523 115.213L438.003 102.109V609.806L461.523 623.084V115.213Z" fill="#D2CFCF"/>
<path d="M438.002 102.109L487.003 76.5029L510.524 89.4641L461.523 115.386L438.002 102.109Z" fill="#E7E7E7"/>
<path d="M509.5 94.5L565.079 127.084H578.473L510.524 89.4648L484.5 103L485.283 595.865L489.53 599.658V105.49L509.5 94.5Z" fill="#E7E7E7"/>
<path d="M489.5 105.5L484.5 103V603.5L489.5 609V105.5Z" fill="#D2D2D2"/>
<g clip-path="url(#clip0)">
<g clip-path="url(#clip1)">
<path d="M517.004 307.428L575.499 294.499C569.715 298.173 534.073 349.902 524.562 354.179C500.935 364.807 458.118 373.331 426.194 360.042C418.397 356.796 414.946 353.48 414.593 350.167C414.552 349.783 414.553 349.399 414.593 349.016V307.817L517.004 307.428Z" fill="url(#paint6_linear)"/>
<path d="M530.378 288.759L476.496 267.827V210.698H529.878L530.378 288.759L553.019 297.555C546.677 302.302 541.243 302.072 530.498 307.499L530.378 288.759Z" fill="#A6B8CE"/>
<path d="M414.576 307.82C414.558 307.542 414.558 307.263 414.576 306.984V211.141L485.125 210.698V267.827C463.543 277.62 415.488 292.428 414.576 306.984V307.82Z" fill="#9299B1"/>
<path d="M546.487 292.386L484.991 262.658C464.217 271.447 414.574 290.576 414.574 307.379C414.796 311.368 418.223 315.362 426.189 319.27C456.854 334.315 488.528 325.628 511.912 313.817C522.657 308.39 540.145 297.133 546.487 292.386Z" fill="#C2C7DF"/>
<path d="M470.916 251.287C470.647 245.16 472.027 240.736 467.74 235.319C465.907 233.581 460.541 233.768 458.14 236.368C455.14 239.618 457.314 259.155 456.885 264.03C456.457 268.905 467.487 267.593 470.916 265.968C474.346 264.343 471.345 261.038 470.916 251.287Z" fill="#976565"/>
<path d="M465.599 247.168C465.599 247.968 469.728 250.768 470.141 250.768L459.818 256.368L459.741 247.168C459.741 246.635 459.298 246.104 458.941 245.568C458.141 244.368 458.141 243.968 458.141 241.568C458.141 239.168 461.057 236.368 462.708 236.368C464.36 236.368 466.012 237.568 466.425 238.768C466.837 239.968 466.425 241.168 466.837 241.168C467.374 241.168 466.266 241.345 467.306 242.066C467.741 242.368 466.918 243.666 466.506 244.866C466.175 245.826 465.874 245.701 465.599 245.568V247.168Z" fill="#ECAEAE"/>
<path d="M464.141 315.968C464.461 315.968 464.541 312.235 464.541 310.368C464.008 311.835 462.621 314.768 461.341 314.768C460.541 314.768 460.941 313.168 460.141 314.768C459.341 316.368 458.541 317.368 459.741 317.768C460.941 318.168 462.941 315.568 463.341 315.168C463.741 314.768 463.741 315.968 464.141 315.968Z" fill="#1A164A"/>
<path d="M465.74 319.184C464.74 319.184 465.24 316.799 465.24 316.184C465.24 314.264 465.207 314.368 465.34 313.568L468.74 313.638C468.74 313.638 468.84 315.481 468.74 316.184C468.64 316.886 468.64 317.753 468.14 316.753C467.608 319.133 466.631 319.184 465.74 319.184Z" fill="#1A164A"/>
<path d="M461.739 310.369C462.059 309.729 460.006 301.302 458.939 297.169C460.539 296.769 463.739 296.209 463.739 297.169C463.739 298.129 464.273 306.369 464.539 310.369C464.139 311.702 463.099 314.529 462.139 315.169C461.179 315.809 460.406 315.169 460.139 314.769C460.539 313.569 461.419 311.009 461.739 310.369Z" fill="#ECAEAE"/>
<path d="M467.239 316.184C467.879 315.864 468.606 315.15 468.739 313.684L468.939 311.968V297.168L464.939 296.368C465.073 298.768 465.27 303.97 465.339 305.568C465.739 314.768 465.339 311.168 465.339 313.968C465.339 316.768 466.439 316.584 467.239 316.184Z" fill="#ECAEAE"/>
<path d="M453.006 275.917L453.519 257.816L457.032 255.339C457.068 256.169 456.959 258.107 456.951 259.457C456.939 261.569 455.36 269.589 455.169 271.218C455.016 272.521 454.139 277.701 453.72 280.129L453.006 275.917Z" fill="#ECAEAE"/>
<path d="M477.74 289.168L468.54 265.168C468.14 265.168 467.364 265.968 465.34 265.968C461.34 265.968 459.34 265.035 457.34 263.568L448.94 289.968C448.14 292.502 449.66 297.808 462.14 298.768C474.62 299.728 477.74 292.768 477.74 289.168Z" fill="#3C5AA9"/>
<path d="M453.926 271.661L449.696 265.58C449.125 264.759 449.979 263.701 450.901 264.086L457.061 266.652C457.243 266.728 457.399 266.856 457.508 267.02L460.705 271.816C461.212 272.577 460.518 273.563 459.631 273.341L454.504 272.06C454.27 272.001 454.064 271.859 453.926 271.661Z" fill="#1A164A"/>
<path d="M474.139 269.168C474.459 269.168 474.806 267.301 474.939 266.368C474.006 265.568 472.139 264.048 472.139 264.368C472.139 264.768 471.339 266.768 470.539 267.168C469.739 267.568 462.604 269.568 461.339 269.568C460.539 269.568 460.139 269.568 459.339 268.768C458.999 268.427 458.139 268.202 458.139 268.768C458.139 269.168 458.939 269.568 459.339 269.968C459.739 270.368 459.739 270.368 457.739 269.968C454.966 269.413 454.939 269.968 454.939 270.768C454.939 271.568 459.339 272.368 460.139 272.368C461.339 272.368 473.739 269.168 474.139 269.168Z" fill="#ECAEAE"/>
<path d="M471.34 266.768C471.66 268.048 474.14 267.302 475.34 266.768C477.34 266.368 474.539 256.768 472.939 252.368C472.447 251.013 470.139 249.969 469.339 249.969C468.539 249.969 462.139 255.169 460.539 254.769C459.672 254.552 459.739 247.968 459.739 247.568C459.739 247.168 459.004 247.568 457.739 247.568C456.539 247.568 455.592 248.263 455.339 248.769C454.939 249.569 452.939 256.369 452.939 257.568C452.939 258.768 455.274 258.768 456.539 258.768H456.539C457.471 258.768 456.939 257.169 457.34 257.168C457.739 257.168 457.157 262.329 457.34 263.969C457.739 267.569 468.539 267.169 468.539 265.569C468.539 263.482 470.006 261.168 470.94 258.768C470.94 260.902 471.02 265.488 471.34 266.768Z" fill="#213A94"/>
<path d="M462.54 238.368C462.14 237.968 460.94 240.768 458.14 241.168C456.834 241.355 457.606 240.235 458.14 239.568L458.14 239.168C459.206 237.835 461.82 235.248 463.74 235.568C466.14 235.968 467.34 239.968 467.34 240.768C467.397 241.093 469.34 242.768 466.94 241.873C466.555 241.729 466.361 242.571 466.14 242.768C466.14 241.874 466.54 240.368 466.14 239.968C465.74 239.568 466.54 239.968 464.54 239.968C462.54 239.968 462.94 238.768 462.54 238.368Z" fill="#976565"/>
<path fill-rule="evenodd" clip-rule="evenodd" d="M414.506 307.068C414.507 307.049 414.507 307.029 414.508 307.009C414.507 307.013 414.507 307.016 414.506 307.019L415.082 211.022H485.631L485.631 211.023H530.386L528.314 283.68L546.992 292.709C546.32 293.212 545.524 293.788 544.624 294.422L553.527 297.88C547.184 302.627 538.19 308.714 527.446 314.141L527.694 305.441C522.289 308.752 516.794 311.93 512.417 314.14C489.033 325.951 457.359 334.638 426.695 319.593C418.729 315.685 414.504 311.652 414.504 307.219C414.504 307.216 414.504 307.212 414.504 307.209C414.498 307.138 414.499 307.075 414.506 307.019L414.506 307.068Z" fill="#1787FF" fill-opacity="0.2"/>
<path d="M531.88 170.144L563.5 167.499C557.718 171.826 533.505 210.264 523.998 215.303C500.381 227.822 458.232 237.864 426.322 222.209C418.528 218.385 415.079 214.479 414.726 210.576C414.685 210.124 414.685 209.676 414.726 209.231V164.685L534 157.999L531.88 170.144Z" fill="url(#paint7_linear)"/>
<path d="M546.489 150.727L484.993 120.999C464.219 129.788 414.576 148.917 414.576 165.72C414.798 169.709 418.225 173.703 426.191 177.611C456.856 192.656 488.53 183.969 511.914 172.158C522.659 166.731 540.147 155.474 546.489 150.727Z" fill="url(#paint8_linear)"/>
</g>
</g>
<path d="M572.267 129.294L541.886 145.733L539.926 146.997L539.901 147.548L540.415 147.794L537.312 205.797L539.901 147.548L532.5 143.999L569.653 122.023C569.915 122.023 577.167 126.449 577.167 126.449L572.267 129.294Z" fill="#E7E7E7"/>
<path d="M551.688 165.159L600.036 139.41V647.423L551.688 673.029V165.159Z" fill="url(#paint9_linear)"/>
<path d="M580.5 161.807L600.5 142.999V649.916L585 659.999L580.5 161.807Z" fill="url(#paint10_linear)"/>
<path d="M551.688 165.159L528.167 152.056V659.753L551.688 673.03V165.159Z" fill="#D2CFCF"/>
<path d="M528.166 152.056L577.168 126.45L600.688 139.411L551.687 165.334L528.166 152.056Z" fill="#E7E7E7"/>
<path d="M690.503 189.358L667.636 177.029L599.687 139.41L579.5 150.499L580.446 653.81L584.693 657.604L585 154.499L599.034 145.733L654.242 177.029L621 196L626.5 198.5L618.634 202.635L641.502 215.28L690.503 189.358Z" fill="#E7E7E7"/>
<path d="M585 154.519L579.5 151.999L579.853 658.147L585 659.999V154.519Z" fill="#D2D2D2"/>
<g clip-path="url(#clip2)">
<path d="M621.036 688.772L641.612 696.065C635.828 699.745 627.839 704.372 618.328 708.658C594.7 719.304 551.883 727.844 519.96 714.53C512.163 711.279 508.712 707.957 508.359 704.638C508.318 704.254 508.318 703.869 508.359 703.485V662.212L625.499 656L621.036 688.772Z" fill="url(#paint11_linear)"/>
<path d="M621.448 642.071L570.262 622.15V564.918H623.644L621.448 642.071L646.785 651.931C640.442 656.687 631.448 662.785 620.704 668.221L621.448 642.071Z" fill="#A6B8CE"/>
<path d="M508.341 662.215C508.322 661.906 508.324 661.596 508.347 661.287L508.999 563.528L578.89 564.917V622.149C557.353 631.94 509.45 646.734 508.347 661.287L508.341 662.215Z" fill="#9299B1"/>
<path d="M640.252 646.752L578.757 616.971C557.983 625.776 508.34 644.939 508.34 661.772C508.562 665.768 511.989 669.769 519.955 673.685C550.62 688.756 582.294 680.054 605.678 668.222C616.422 662.785 633.91 651.508 640.252 646.752Z" fill="#C2C7DF"/>
<path fill-rule="evenodd" clip-rule="evenodd" d="M622.08 638.032L624.151 565.243H570.769V565.244H508.848L508.272 661.413C508.264 661.47 508.264 661.535 508.27 661.609C508.27 661.61 508.27 661.612 508.27 661.614C508.27 666.055 512.495 670.095 520.461 674.01C551.125 689.082 582.799 680.38 606.184 668.547C610.56 666.333 616.055 663.15 621.459 659.833L621.211 668.547C631.956 663.11 640.95 657.012 647.292 652.256L638.391 648.792C639.291 648.157 640.087 647.581 640.758 647.078L622.08 638.032ZM508.272 661.492L508.272 661.413C508.273 661.409 508.273 661.404 508.274 661.399C508.273 661.43 508.272 661.461 508.272 661.492Z" fill="#1787FF" fill-opacity="0.2"/>
<path d="M520.088 576.455C512.294 572.625 508.845 568.712 508.491 564.802C508.45 564.349 508.451 563.9 508.491 563.454V518.821L645.001 507V559.464C647.617 558.93 649.43 558.647 645.001 561C621.384 573.542 551.997 592.139 520.088 576.455Z" fill="url(#paint12_linear)"/>
<path d="M645.001 507L579.414 475.5C558.64 484.305 508.342 503.024 508.342 519.857C508.564 523.853 511.991 527.855 519.957 531.77C550.622 546.842 587.296 538.639 610.68 526.807C620.501 521.837 634.501 513 645.001 507Z" fill="url(#paint13_linear)"/>
<path d="M691.369 513.829L668.502 501.5L666 499.5L619.5 526L642.5 539L691.369 513.829Z" fill="#E7E7E7"/>
</g>
<path d="M690.003 189.948L667.135 177.619L599.186 140L653.741 177.619L620.999 196L626.499 198.5L618.499 202.5L641.001 215.87L690.003 189.948Z" fill="#E7E7E7"/>
<path d="M826.588 648.491V666.594L740.932 718.998L645.5 666.594V648.491V589.894V534.156V478.036V458.408L740.932 398.858L826.588 458.408C826.603 464.429 826.618 471.026 826.634 478.036C826.671 495.091 826.708 514.587 826.738 534.156C826.766 553.417 826.787 572.749 826.792 589.894C826.802 623.135 826.753 648.153 826.588 648.491Z" fill="#C7C7EC"/>
<path d="M826.588 648.491V666.594L740.932 718.998M826.588 648.491L803.312 662.343M826.588 648.491C826.753 648.153 826.802 623.135 826.792 589.894M740.932 699.466V718.998M740.932 699.466L762.346 686.722M740.932 699.466L713.466 684.795M740.932 699.466V639.44M740.932 718.998L645.5 666.594V648.491M826.588 458.408L740.932 398.858L645.5 458.408M826.588 458.408L803.312 471.742M826.588 458.408C826.603 464.429 826.618 471.026 826.634 478.036M740.932 507.477L762.346 495.21M740.932 507.477L713.466 493.355M740.932 507.477V529.392M645.5 648.491L668.776 660.924M645.5 648.491C645.5 646.83 645.5 622.232 645.5 589.894M645.5 458.408L668.776 470.376M645.5 458.408C645.5 464.414 645.5 471.013 645.5 478.036M803.312 471.742V662.343M803.312 471.742L784.691 482.409M803.312 662.343L784.691 673.424M762.346 495.21V686.722M762.346 495.21L784.691 482.409M762.346 686.722L784.691 673.424M713.466 493.355V684.795M713.466 493.355L698.569 485.695M713.466 684.795L698.569 676.838M668.776 470.376V660.924M668.776 470.376L683.673 478.036M668.776 660.924L683.673 668.881M698.569 485.695V676.838M698.569 485.695L683.673 478.036M698.569 676.838L683.673 668.881M683.673 478.036V668.881M784.691 673.424V482.409M826.792 589.894L740.932 639.44M826.792 589.894C826.787 572.749 826.766 553.417 826.738 534.156M740.932 639.44L645.5 589.894M740.932 639.44V584.177M645.5 589.894C645.5 572.737 645.5 553.401 645.5 534.156M826.738 534.156L740.932 584.177M826.738 534.156C826.708 514.587 826.671 495.091 826.634 478.036M740.932 584.177L645.5 534.156M740.932 584.177V529.392M645.5 534.156C645.5 514.556 645.5 495.051 645.5 478.036M826.634 478.036L740.932 529.392M740.932 529.392L645.5 478.036" stroke="white"/>
<path d="M686.465 347.834L738.415 311.679L785.044 347.834C785.052 351.489 785.06 355.495 785.068 359.751C785.089 370.106 785.109 381.942 785.125 393.823C785.141 405.518 785.152 417.255 785.155 427.665C785.16 447.847 785.133 463.036 785.044 463.242L772.373 471.652L762.236 478.38L750.072 486.453L738.415 494.19L723.464 485.283L715.354 480.452L707.245 475.621L699.136 470.79L686.465 463.242V427.665V393.823V359.751V347.834Z" fill="#C7C7EC"/>
<path d="M738.415 494.19L750.072 486.453M738.415 494.19L723.464 485.283M738.415 494.19V457.746M785.044 347.834L738.415 311.679L686.465 347.834M785.044 347.834L772.373 355.93M785.044 347.834C785.052 351.489 785.06 355.495 785.068 359.751C785.089 370.106 785.109 381.942 785.125 393.823M738.415 377.626L750.072 370.178M738.415 377.626L723.464 369.052M738.415 377.626V390.931V424.194M686.465 347.834L699.136 355.1M686.465 347.834C686.465 351.48 686.465 355.487 686.465 359.751C686.465 370.081 686.465 381.924 686.465 393.823M772.373 355.93V471.652M772.373 355.93L762.236 362.406M772.373 471.652L785.044 463.242C785.133 463.036 785.16 447.847 785.155 427.665M772.373 471.652L762.236 478.38M750.072 370.178V486.453M750.072 370.178L762.236 362.406M750.072 486.453L762.236 478.38M723.464 369.052V485.283M723.464 369.052L715.354 364.401M723.464 485.283L715.354 480.452M699.136 355.1V470.79M699.136 355.1L707.245 359.751M699.136 470.79L686.465 463.242C686.465 462.233 686.465 447.299 686.465 427.665M699.136 470.79L707.245 475.621M715.354 364.401V480.452M715.354 364.401L707.245 359.751M715.354 480.452L707.245 475.621M707.245 359.751V475.621M762.236 478.38V362.406M785.155 427.665L738.415 457.746M785.155 427.665C785.152 417.255 785.141 405.518 785.125 393.823M738.415 457.746L686.465 427.665M738.415 457.746V424.194M686.465 427.665C686.465 417.248 686.465 405.508 686.465 393.823M785.125 393.823L738.415 424.194M738.415 424.194L686.465 393.823" stroke="white"/>
<path d="M708.811 281H735.345H762.75C762.754 283.004 762.759 285.199 762.763 287.532C762.775 293.208 762.786 299.697 762.794 306.209C762.803 312.619 762.809 319.053 762.811 324.759C762.814 335.822 762.799 344.148 762.75 344.261L755.817 348.871L750.27 352.559L743.615 356.984L737.236 361.225L729.055 356.343L724.618 353.695L720.181 351.046L715.744 348.398L708.811 344.261V324.759V306.209V287.532V281Z" fill="#C7C7EC"/>
<path d="M737.236 361.225L743.615 356.984L750.27 352.559M737.236 361.225L729.055 356.343L724.618 353.695L720.181 351.046M737.236 361.225V341.248M762.75 281H735.345H708.811M762.75 281L755.817 285.438L750.27 288.988M762.75 281C762.754 283.004 762.759 285.199 762.763 287.532C762.775 293.208 762.786 299.697 762.794 306.209C762.803 312.619 762.809 319.053 762.811 324.759M737.236 297.33L743.615 293.248L750.27 288.988M737.236 297.33L729.055 292.63L724.618 290.081L720.181 287.532M737.236 297.33V304.624V322.857V341.248M708.811 281L715.744 284.983L720.181 287.532M708.811 281C708.811 282.999 708.811 285.195 708.811 287.532C708.811 293.195 708.811 299.686 708.811 306.209C708.811 312.614 708.811 319.049 708.811 324.759M720.181 287.532V351.046M720.181 351.046L715.744 348.398L708.811 344.261C708.811 343.708 708.811 335.521 708.811 324.759M750.27 352.559L755.817 348.871L762.75 344.261C762.799 344.148 762.814 335.822 762.811 324.759M750.27 352.559V288.988M762.811 324.759L737.236 341.248M737.236 341.248L708.811 324.759" stroke="white"/>
<path d="M691.504 234.25V189.36L814.988 257.96V302.849L691.504 234.25Z" fill="#96C2F0" fill-opacity="0.8"/>
<path d="M691.504 242.155V233.936L815.641 302.851V311.07L691.504 242.155Z" fill="#E7E7E7"/>
<path d="M691.504 406.541V398.321L815.641 467.237V475.456L691.504 406.541Z" fill="#E7E7E7"/>
<path d="M691.504 479.249V471.029L815.641 539.945V548.164L691.504 479.249Z" fill="#E7E7E7"/>
<path d="M691.504 635.416V627.196L815.641 696.112V704.331L691.504 635.416Z" fill="#E7E7E7"/>
<path d="M691.504 699.273V691.054L815.641 759.969V768.188L691.504 699.273Z" fill="#E7E7E7"/>
<path d="M691.504 471.344V406.223L815.641 475.138V540.26L691.504 471.344Z" fill="#96C2F0" fill-opacity="0.8"/>
<path d="M691.504 627.196V479.249L815.641 548.164V696.111L691.504 627.196Z" fill="#96C2F0" fill-opacity="0.8"/>
<path d="M691.504 691.053V635.415L815.641 704.33V759.968L691.504 691.053Z" fill="#96C2F0" fill-opacity="0.8"/>
<path d="M691.5 399.166V238.001L815.5 308.836V470.001L691.5 399.166Z" fill="#96C2F0" fill-opacity="0.8"/>
<path d="M807.801 278.335L830.015 265.863V777.986L807.801 789.999V278.335Z" fill="url(#paint14_linear)"/>
<path d="M807.801 278.336L792.774 270.29V781.781L807.801 790V278.336Z" fill="#D2CFCF"/>
<path d="M792.773 270.289L814.987 257.96L830.015 265.863L807.801 278.508L792.773 270.289Z" fill="#E7E7E7"/>
<path d="M642.498 214.126L691.503 189.36V699.27L642 724.501L642.498 214.126Z" fill="url(#paint15_linear)"/>
<path d="M642.5 214.124L618.5 202.502L619.633 712.356L642.5 725V214.124Z" fill="#D2CFCF"/>
<defs>
<linearGradient id="paint0_linear" x1="601.263" y1="648.431" x2="500.089" y2="804.021" gradientUnits="userSpaceOnUse">
<stop stop-color="#E1E5EA"/>
<stop offset="1" stop-color="#C4C4C4" stop-opacity="0"/>
</linearGradient>
<linearGradient id="paint1_linear" x1="598" y1="654.5" x2="418.094" y2="855.867" gradientUnits="userSpaceOnUse">
<stop stop-color="#DEDEDE"/>
<stop offset="1" stop-color="#FCFCFC"/>
</linearGradient>
<linearGradient id="paint2_linear" x1="590.5" y1="133.5" x2="645.838" y2="41.1816" gradientUnits="userSpaceOnUse">
<stop stop-color="#E7E7E7"/>
<stop offset="1" stop-color="#FCFCFC"/>
</linearGradient>
<linearGradient id="paint3_linear" x1="353.72" y1="7.90332" x2="353.72" y2="532.039" gradientUnits="userSpaceOnUse">
<stop stop-color="white"/>
<stop offset="1" stop-color="#AFABAB"/>
</linearGradient>
<linearGradient id="paint4_linear" x1="485.697" y1="89.4648" x2="485.697" y2="623.084" gradientUnits="userSpaceOnUse">
<stop stop-color="white"/>
<stop offset="1" stop-color="#AFABAB"/>
</linearGradient>
<linearGradient id="paint5_linear" x1="499.5" y1="94" x2="499.5" y2="621.613" gradientUnits="userSpaceOnUse">
<stop stop-color="white"/>
<stop offset="1" stop-color="#AFABAB"/>
</linearGradient>
<linearGradient id="paint6_linear" x1="443.62" y1="331.47" x2="575.499" y2="331.57" gradientUnits="userSpaceOnUse">
<stop stop-color="#68B1FF"/>
<stop offset="1" stop-color="#007BFF"/>
</linearGradient>
<linearGradient id="paint7_linear" x1="441.563" y1="194.907" x2="563.499" y2="194.992" gradientUnits="userSpaceOnUse">
<stop stop-color="#68B1FF"/>
<stop offset="1" stop-color="#007BFF"/>
</linearGradient>
<linearGradient id="paint8_linear" x1="488.09" y1="205.714" x2="446.499" y2="246.998" gradientUnits="userSpaceOnUse">
<stop stop-color="#5BAAFF"/>
<stop offset="1" stop-color="#1687FF"/>
</linearGradient>
<linearGradient id="paint9_linear" x1="575.862" y1="139.41" x2="575.862" y2="673.029" gradientUnits="userSpaceOnUse">
<stop stop-color="white"/>
<stop offset="1" stop-color="#AFABAB"/>
</linearGradient>
<linearGradient id="paint10_linear" x1="590.5" y1="142.999" x2="590.5" y2="670.999" gradientUnits="userSpaceOnUse">
<stop stop-color="white"/>
<stop offset="1" stop-color="#AFABAB"/>
</linearGradient>
<linearGradient id="paint11_linear" x1="532.393" y1="689.393" x2="641.612" y2="689.469" gradientUnits="userSpaceOnUse">
<stop stop-color="#68B1FF"/>
<stop offset="1" stop-color="#007BFF"/>
</linearGradient>
<linearGradient id="paint12_linear" x1="533.599" y1="545.567" x2="647.685" y2="545.638" gradientUnits="userSpaceOnUse">
<stop stop-color="#68B1FF"/>
<stop offset="1" stop-color="#007BFF"/>
</linearGradient>
<linearGradient id="paint13_linear" x1="584.501" y1="560" x2="543.033" y2="602.751" gradientUnits="userSpaceOnUse">
<stop stop-color="#5BAAFF"/>
<stop offset="1" stop-color="#1687FF"/>
</linearGradient>
<linearGradient id="paint14_linear" x1="818.908" y1="265.863" x2="818.908" y2="789.999" gradientUnits="userSpaceOnUse">
<stop stop-color="white"/>
<stop offset="1" stop-color="#AFABAB"/>
</linearGradient>
<linearGradient id="paint15_linear" x1="667.003" y1="189.36" x2="667.003" y2="724.876" gradientUnits="userSpaceOnUse">
<stop stop-color="white"/>
<stop offset="1" stop-color="#AFABAB"/>
</linearGradient>
<clipPath id="clip0">
<rect width="124" height="501" fill="white" transform="translate(415 121.999)"/>
</clipPath>
<clipPath id="clip1">
<rect width="161" height="245.834" fill="white" transform="translate(414.5 120.999)"/>
</clipPath>
<clipPath id="clip2">
<rect width="132" height="559" fill="white" transform="translate(508 163.5)"/>
</clipPath>
</defs>
</svg>
