<svg width="280" height="460" viewBox="0 0 280 460" fill="none" xmlns="http://www.w3.org/2000/svg">
<path d="M0 380H158.755L209 386.5L231 396L279 407.391V491H77.465L0 380Z" fill="url(#paint0_linear)"/>
<path d="M279 105.5L279 0.369928L191 0V155H279L279 105.5Z" fill="url(#paint1_linear)"/>
<path d="M260.307 277.614V284.854L209.768 305.811L153.461 284.854V277.614V254.18V231.889V209.446V201.596L209.768 177.781L260.307 201.596C260.316 204.004 260.325 206.642 260.334 209.446C260.356 216.266 260.378 224.063 260.396 231.889C260.413 239.592 260.425 247.323 260.428 254.18C260.434 267.474 260.405 277.479 260.307 277.614Z" fill="#C7C7EC"/>
<path d="M260.307 277.614V284.854L209.768 305.811M260.307 277.614L246.574 283.154M260.307 277.614C260.405 277.479 260.434 267.474 260.428 254.18M209.768 298V305.811M209.768 298L222.403 292.903M209.768 298L193.563 292.133M209.768 298V273.994M209.768 305.811L153.461 284.854V277.614M260.307 201.596L209.768 177.781L153.461 201.596M260.307 201.596L246.574 206.929M260.307 201.596C260.316 204.004 260.325 206.642 260.334 209.446M209.768 221.22L222.403 216.314M209.768 221.22L193.563 215.572M209.768 221.22V229.984M153.461 277.614L167.195 282.586M153.461 277.614C153.461 276.95 153.461 267.113 153.461 254.18M153.461 201.596L167.195 206.383M153.461 201.596C153.461 203.998 153.461 206.637 153.461 209.446M246.574 206.929V283.154M246.574 206.929L235.587 211.195M246.574 283.154L235.587 287.585M222.403 216.314V292.903M222.403 216.314L235.587 211.195M222.403 292.903L235.587 287.585M193.563 215.572V292.133M193.563 215.572L184.774 212.509M193.563 292.133L184.774 288.95M167.195 206.383V282.586M167.195 206.383L175.984 209.446M167.195 282.586L175.984 285.768M184.774 212.509V288.95M184.774 212.509L175.984 209.446M184.774 288.95L175.984 285.768M175.984 209.446V285.768M235.587 287.585V211.195M260.428 254.18L209.768 273.994M260.428 254.18C260.425 247.323 260.413 239.592 260.396 231.889M209.768 273.994L153.461 254.18M209.768 273.994V251.894M153.461 254.18C153.461 247.319 153.461 239.586 153.461 231.889M260.396 231.889L209.768 251.894M260.396 231.889C260.378 224.063 260.356 216.266 260.334 209.446M209.768 251.894L153.461 231.889M209.768 251.894V229.984M153.461 231.889C153.461 224.051 153.461 216.25 153.461 209.446M260.334 209.446L209.768 229.984M209.768 229.984L153.461 209.446" stroke="white"/>
<path d="M177.632 157.377L208.284 142.918L235.796 157.377C235.801 158.839 235.805 160.441 235.81 162.143C235.822 166.284 235.834 171.018 235.844 175.769C235.853 180.446 235.86 185.14 235.861 189.303C235.865 197.374 235.849 203.449 235.796 203.531L228.32 206.894L222.339 209.585L215.162 212.814L208.284 215.908L199.462 212.346L194.678 210.414L189.893 208.482L185.108 206.55L177.632 203.531V189.303V175.769V162.143V157.377Z" fill="#C7C7EC"/>
<path d="M208.284 215.908L215.162 212.814M208.284 215.908L199.462 212.346M208.284 215.908V201.333M235.796 157.377L208.284 142.918L177.632 157.377M235.796 157.377L228.32 160.615M235.796 157.377C235.801 158.839 235.805 160.441 235.81 162.143C235.822 166.284 235.834 171.018 235.844 175.769M208.284 169.291L215.162 166.313M208.284 169.291L199.462 165.862M208.284 169.291V174.612V187.915M177.632 157.377L185.108 160.283M177.632 157.377C177.632 158.835 177.632 160.438 177.632 162.143C177.632 166.274 177.632 171.01 177.632 175.769M228.32 160.615V206.894M228.32 160.615L222.339 163.205M228.32 206.894L235.796 203.531C235.849 203.449 235.865 197.374 235.861 189.303M228.32 206.894L222.339 209.585M215.162 166.313V212.814M215.162 166.313L222.339 163.205M215.162 212.814L222.339 209.585M199.462 165.862V212.346M199.462 165.862L194.678 164.003M199.462 212.346L194.678 210.414M185.108 160.283V206.55M185.108 160.283L189.893 162.143M185.108 206.55L177.632 203.531C177.632 203.127 177.632 197.155 177.632 189.303M185.108 206.55L189.893 208.482M194.678 164.003V210.414M194.678 164.003L189.893 162.143M194.678 210.414L189.893 208.482M189.893 162.143V208.482M222.339 209.585V163.205M235.861 189.303L208.284 201.333M235.861 189.303C235.86 185.14 235.853 180.446 235.844 175.769M208.284 201.333L177.632 189.303M208.284 201.333V187.915M177.632 189.303C177.632 185.137 177.632 180.442 177.632 175.769M235.844 175.769L208.284 187.915M208.284 187.915L177.632 175.769" stroke="white"/>
<path d="M190.816 130.647H206.472H222.642C222.644 131.449 222.647 132.327 222.65 133.26C222.656 135.53 222.663 138.125 222.668 140.729C222.673 143.293 222.677 145.866 222.677 148.148C222.679 152.572 222.671 155.902 222.642 155.947L218.551 157.79L215.278 159.265L211.351 161.035L207.588 162.731L202.761 160.778L200.143 159.719L197.525 158.66L194.907 157.601L190.816 155.947V148.148V140.729V133.26V130.647Z" fill="#C7C7EC"/>
<path d="M207.588 162.731L211.351 161.035L215.278 159.265M207.588 162.731L202.761 160.778L200.143 159.719L197.525 158.66M207.588 162.731V154.742M222.642 130.647H206.472H190.816M222.642 130.647L218.551 132.422L215.278 133.842M222.642 130.647C222.644 131.449 222.647 132.327 222.65 133.26C222.656 135.53 222.663 138.125 222.668 140.729C222.673 143.293 222.677 145.866 222.677 148.148M207.588 137.178L211.351 135.546L215.278 133.842M207.588 137.178L202.761 135.299L200.143 134.279L197.525 133.26M207.588 137.178V140.095V147.387V154.742M190.816 130.647L194.907 132.24L197.525 133.26M190.816 130.647C190.816 131.447 190.816 132.325 190.816 133.26C190.816 135.524 190.816 138.12 190.816 140.729C190.816 143.291 190.816 145.864 190.816 148.148M197.525 133.26V158.66M197.525 158.66L194.907 157.601L190.816 155.947C190.816 155.725 190.816 152.452 190.816 148.148M215.278 159.265L218.551 157.79L222.642 155.947C222.671 155.902 222.679 152.572 222.677 148.148M215.278 159.265V133.842M222.677 148.148L207.588 154.742M207.588 154.742L190.816 148.148" stroke="white"/>
<path d="M172.05 372.363L177.061 7.375L203.902 9.36328L252.003 33.2506V403.924L172.05 372.363Z" fill="#96C2F0" fill-opacity="0.8"/>
<path d="M171.033 28.8993L208.482 9.89258V384.887L171.033 403.789V28.8993Z" fill="url(#paint2_linear)"/>
<path d="M193.352 26.4252L208.843 12.542V386.727L196.837 394.17L193.352 26.4252Z" fill="url(#paint3_linear)"/>
<path d="M171.498 28.6727L153.28 19L152.815 393.988L171.033 403.789L171.498 28.6727Z" fill="#D2CFCF"/>
<path d="M153.28 19L191.469 0L209.453 9.5299L192.992 19L171.498 28.6647L153.28 19Z" fill="#E7E7E7"/>
<path d="M260.844 37.6613L279.551 46.8633L277 48L252.414 35.9157L247.536 34.1345L250.47 37.6613L207.707 14.5596L196.837 21.0306L196.599 392.402L193.31 389.602L192.577 18.0779L208.213 9.89258L260.844 37.6613Z" fill="#E7E7E7"/>
<path d="M196.837 21.045L192.577 19.1846L192.85 392.803L196.837 394.169V21.045Z" fill="#D2D2D2"/>
<g clip-path="url(#clip0)">
<path d="M232.636 415.325L250.734 420.572C245.646 423.219 238.619 426.548 230.253 429.631C209.472 437.289 171.811 443.432 143.732 433.855C136.874 431.516 134.024 429.158 133.713 426.771C133.677 426.493 133.677 426.215 133.713 425.937V396.25L236.561 391.75L232.636 415.325Z" fill="url(#paint4_linear)"/>
<path d="M232.019 381.787L185.275 367.48V326.377H234.024L232.019 381.787L255.157 388.868C249.365 392.284 241.151 396.663 231.339 400.568L232.019 381.787Z" fill="#A6B8CE"/>
<path d="M133.725 397.25C133.71 397.049 133.71 396.848 133.725 396.647V324.25L193.783 327.25V368.425C175.411 375.484 134.502 386.157 133.725 396.647V397.25Z" fill="#9299B1"/>
<path d="M248.797 384.914L194 367.137C175.843 373.394 133.714 383.788 133.714 395.75C133.908 398.59 136.692 401.271 143.654 404.054C170.456 414.764 198.14 408.58 218.578 400.171C227.969 396.308 243.254 388.294 248.797 384.914Z" fill="#C2C7DF"/>
<path d="M173.136 349.533C173.447 348.749 175.311 347.443 175.622 347.443C176.761 347.53 179.412 347.913 180.904 348.749C182.768 349.794 179.972 354.234 178.108 355.017C176.243 355.801 173.207 355.096 172.826 353.973C172.098 351.831 172.825 350.316 173.136 349.533Z" fill="#ECAEAE"/>
<path d="M174.69 348.487C175.187 349.532 177.59 348.922 178.729 348.487C179.661 349.009 178.108 350.054 178.729 350.576C179.351 351.099 179.04 350.576 179.04 351.621C179.04 352.666 179.04 353.71 179.661 354.755C180.283 355.8 179.972 355.277 181.215 355.016C182.494 354.747 181.836 354.494 181.836 352.927C181.836 351.36 182.147 351.621 182.768 350.315C183.39 349.009 182.147 348.487 180.904 347.181C179.661 345.875 176.865 345.875 175.311 346.136C173.758 346.398 174.068 347.181 174.69 348.487Z" fill="#976565"/>
<path d="M181.082 351.384C180.999 350.781 180.353 351.37 180.04 351.74C179.861 352.702 180.203 353.486 180.769 353.068C181.335 352.649 181.186 352.137 181.082 351.384Z" fill="#ECAEAE"/>
<path d="M175.311 354.748C174.317 354.957 173.447 354.227 173.136 353.705C172.639 353.103 172.515 352.403 172.515 352.403C172.411 352.49 172.022 353.186 172.022 354.649C172.022 356.477 173.638 357.882 175.311 357.882C179.661 357.882 179.972 357.545 179.972 353.442C179.972 352.659 179.57 352.996 179.351 353.181C179.04 353.442 176.554 354.487 175.311 354.748Z" fill="#976565"/>
<path d="M179.938 354.982C179.938 355.504 180.283 356.669 180.593 357.105L179.351 360.239L176.554 361.022L171.894 358.149L171.626 354.316C171.833 354.316 171.939 354.441 172.417 355.647C174.282 360.348 179.938 354.398 179.938 354.982Z" fill="#ECAEAE"/>
<path d="M187.28 377.857C187.303 377.439 187.954 373.37 188.277 371.291C187.69 370.658 185.788 370.253 185.765 370.671C185.736 371.192 185.887 374.05 185.461 376.125C185.355 376.639 183.864 377.273 183.864 377.857C183.864 378.392 184.268 378.507 184.487 377.747C184.56 377.493 185.122 377.51 184.695 379.585C184.414 380.956 184.973 381.032 186.144 380.596C187.415 380.124 187.251 378.379 187.28 377.857Z" fill="#ECAEAE"/>
<path d="M169.07 370.417C168.866 370.104 164.859 365.838 165.336 364.735C166.579 361.862 167.785 364.328 167.854 364.68C168.165 366.247 168.643 366.965 169.937 368.402C170.258 368.758 171.87 368.687 172.127 369.136C172.362 369.548 172.051 369.787 171.521 369.285C171.344 369.117 170.849 369.341 172.142 370.778C172.997 371.727 172.53 371.995 171.29 372.099C169.946 372.212 169.325 370.807 169.07 370.417Z" fill="#ECAEAE"/>
<path d="M177.167 358.975C177.959 358.642 180.076 357.631 180.283 356.325C181.215 356.586 181.836 357.804 182.458 358.675L179.972 373.3L171.893 370.428C171.686 365.379 171.626 353.985 172.022 353.984C172.32 356.659 173.68 360.441 177.167 358.975Z" fill="#213A94"/>
<path d="M184.943 403.333C185.254 402.419 185.047 401.243 184.943 400.199C184.633 400.721 183.39 399.938 183.079 399.938C182.768 399.938 182.458 400.982 181.215 403.333C179.972 405.683 179.661 406.467 181.215 406.728C182.768 406.989 184.789 403.785 184.943 403.333Z" fill="#0B0C1C"/>
<path d="M168.165 400.721C168.165 400.303 172.411 398.283 174.379 397.326L176.865 397.064C177.072 397.587 177.797 398.948 177.797 399.415C177.797 399.882 176.554 400.198 176.243 400.198C175.622 400.198 175.622 399.415 172.826 400.721C170.029 402.027 168.165 401.243 168.165 400.721Z" fill="#0B0C1C"/>
<path d="M184.011 400.46C185.565 400.721 184.633 399.676 185.254 398.327L183.684 397.079C183.482 397.009 182.768 397.162 182.768 398.327C182.768 400.46 183.122 400.31 184.011 400.46Z" fill="#ECAEAE"/>
<path d="M175.001 398.109C175.118 398.257 176.243 398.283 176.865 397.847C177.176 397.586 176.865 397.064 176.865 396.019C176.865 395.359 174.897 395.062 174.068 394.975C174.172 395.671 174.379 397.325 175.001 398.109Z" fill="#ECAEAE"/>
<path d="M182.458 398.887C182.706 399.514 184.425 398.974 185.254 398.626C185.875 398.392 184.633 392.358 184.011 389.485C183.66 387.86 184.011 383.478 183.7 379.821C183.39 376.165 182.768 371.73 180.904 371.991C179.04 372.253 171.272 369.38 170.961 370.163C170.651 370.947 170.961 385.306 170.961 385.828C170.961 386.351 173.447 395.753 173.758 396.275C174.068 396.797 177.176 396.536 177.486 396.275C177.797 396.014 175.45 388.449 175.311 385.306C175.001 378.254 175.311 375.643 177.486 376.426C178.125 376.656 179.661 385.828 179.972 388.701C180.283 391.574 182.147 398.103 182.458 398.887Z" fill="#1A164A"/>
<path d="M171.894 370.164C174.172 370.744 179.599 372.375 180.593 372.514C180.593 371.934 180.221 371.47 179.972 371.47C179.723 371.47 173.551 369.758 171.272 369.119L171.894 370.164Z" fill="#0B0C1C"/>
<path d="M176.865 350.836C176.554 350.836 175.933 350.836 175.622 350.836M172.826 350.313H173.758" stroke="#976565" stroke-linecap="round"/>
<path d="M180.593 356.322C182.251 357.192 185.028 358.846 185.875 359.717C188.672 362.59 188.361 367.813 188.361 371.208C188.361 371.752 184.943 371.208 184.943 370.686C184.736 369.032 184.633 365.411 184.633 365.202C184.633 364.94 184.011 368.053 184.011 369.641C184.011 371.208 183.908 375.039 183.701 376.954C181.94 377.215 178.046 377.529 177.797 376.693C177.486 375.648 180.652 357.775 180.283 356.844C179.972 356.061 180.386 356.219 180.593 356.322C178.083 355.003 174.241 354.467 172.022 353.984C172.022 354.08 171.894 354.255 171.894 354.755C171.894 355.799 172.515 359.978 172.515 361.284C172.515 362.59 172.204 373.037 171.894 373.82C171.645 374.447 169.511 373.559 168.476 373.037C168.994 370.164 170.029 364.261 170.029 363.635C170.029 363.008 168.994 364.157 168.476 365.724L165.369 364.679C166.404 362.764 168.289 359.09 168.786 357.628C169.408 355.799 168.914 355.055 170.779 354.271C171.039 354.162 171.494 353.869 172.022 353.984C174.241 354.467 178.083 355.003 180.593 356.322Z" fill="#3C5AA9"/>
<path d="M174.379 352.665C173.608 352.535 172.826 353.013 172.515 353.187L172.826 353.709C173.033 353.535 173.882 353.239 174.379 353.448C175.079 353.742 175.311 354.841 175.311 355.276L175.933 355.015C175.933 354.493 175.486 352.851 174.379 352.665Z" fill="#976565"/>
<path fill-rule="evenodd" clip-rule="evenodd" d="M133.713 396.25C133.707 396.192 133.707 396.141 133.713 396.097L133.713 396.25ZM133.713 395.75L133.713 396.097C133.716 396.074 133.721 396.053 133.727 396.034C134.015 398.896 138.579 402.258 145.339 404.75C150.327 406.589 155.298 407.883 160.238 408.708C166.927 410.503 174.551 411.215 182.711 409.457C196.461 408.2 209.786 404.049 222.364 398.75C223.71 398.239 225.12 397.709 226.564 397.165C228.671 396.372 230.85 395.551 233.011 394.725L232.75 401.617C242.171 398.041 250.058 394.031 255.619 390.903L247.754 388.607C248.545 388.222 249.261 387.85 249.889 387.497L233.497 381.913L235.328 333.678L223.817 332.25L198.363 333.28L195.974 324.013L133.717 322.75L133.713 395.75Z" fill="#1787FF" fill-opacity="0.2"/>
<path d="M143.696 334.456C136.862 331.714 133.838 328.914 133.528 326.116C133.492 325.792 133.493 325.47 133.528 325.151V293.21L253.224 284.75V322.295C255.518 321.913 257.108 321.711 253.224 323.395C232.516 332.37 171.676 345.679 143.696 334.456Z" fill="url(#paint5_linear)"/>
<path d="M295.87 289.685L274.988 280.831L272.703 279.395L230.239 298.426L251.243 307.763L295.87 289.685Z" fill="#E7E7E7"/>
<path d="M244.501 289L192.001 266C173.739 272.421 133.501 281.822 133.501 294.098C133.696 297.012 136.709 299.93 143.712 302.785C170.67 313.776 199.944 308.379 220.501 299.75C229.135 296.126 235.271 293.376 244.501 289Z" fill="url(#paint6_linear)"/>
</g>
<path d="M278.065 47.6757L261.406 39.605L189.682 0.363281L207.315 14.3633L250.543 38.3633L248.837 39.605L224.5 53.5L226.5 54.5L222.672 56.3631L239.929 66.7476L278.065 47.6757Z" fill="#E7E7E7"/>
<path d="M241.373 65.0463L279.331 46.7656V423.16L240.987 441.785L241.373 65.0463Z" fill="url(#paint7_linear)"/>
<path d="M241.374 65.0448L222.672 56.3633L223.662 432.819L241.374 442.153V65.0448Z" fill="#D2CFCF"/>
<defs>
<linearGradient id="paint0_linear" x1="208.279" y1="442.043" x2="136.759" y2="510.379" gradientUnits="userSpaceOnUse">
<stop stop-color="#DEDEDE"/>
<stop offset="1" stop-color="#FCFCFC"/>
</linearGradient>
<linearGradient id="paint1_linear" x1="223.144" y1="49.9995" x2="255.462" y2="36.0936" gradientUnits="userSpaceOnUse">
<stop stop-color="#E7E7E7"/>
<stop offset="1" stop-color="#FCFCFC"/>
</linearGradient>
<linearGradient id="paint2_linear" x1="189.757" y1="9.89258" x2="189.757" y2="403.789" gradientUnits="userSpaceOnUse">
<stop stop-color="white"/>
<stop offset="1" stop-color="#AFABAB"/>
</linearGradient>
<linearGradient id="paint3_linear" x1="201.097" y1="12.542" x2="201.097" y2="402.29" gradientUnits="userSpaceOnUse">
<stop stop-color="white"/>
<stop offset="1" stop-color="#AFABAB"/>
</linearGradient>
<linearGradient id="paint4_linear" x1="154.82" y1="415.772" x2="250.734" y2="415.853" gradientUnits="userSpaceOnUse">
<stop stop-color="#68B1FF"/>
<stop offset="1" stop-color="#007BFF"/>
</linearGradient>
<linearGradient id="paint5_linear" x1="155.543" y1="312.35" x2="255.578" y2="312.427" gradientUnits="userSpaceOnUse">
<stop stop-color="#68B1FF"/>
<stop offset="1" stop-color="#007BFF"/>
</linearGradient>
<linearGradient id="paint6_linear" x1="195.361" y1="322.312" x2="168.419" y2="356.165" gradientUnits="userSpaceOnUse">
<stop stop-color="#5BAAFF"/>
<stop offset="1" stop-color="#1687FF"/>
</linearGradient>
<linearGradient id="paint7_linear" x1="260.353" y1="46.7656" x2="260.353" y2="442.062" gradientUnits="userSpaceOnUse">
<stop stop-color="white"/>
<stop offset="1" stop-color="#AFABAB"/>
</linearGradient>
<clipPath id="clip0">
<rect width="151.298" height="403" fill="white" transform="translate(105.501 36.3633)"/>
</clipPath>
</defs>
</svg>
