<svg width="150" height="37" viewBox="0 0 150 37" fill="none" xmlns="http://www.w3.org/2000/svg">
<path d="M49.4533 6.04589C48.1606 6.09871 47.1467 7.19558 47.183 8.49964C47.2194 9.80777 48.2899 10.8437 49.5866 10.8275C50.8793 10.8071 51.9216 9.74277 51.9256 8.43464C51.9256 7.78464 51.6631 7.15902 51.1985 6.70402C50.7299 6.25308 50.0997 6.01339 49.4533 6.04589ZM51.6994 12.3062H47.1628V21.8287C47.1628 23.4984 46.2054 24.1362 44.8359 24.774L46.4074 28.0931C49.2069 27.2481 51.6994 25.619 51.6994 21.5606V12.3062ZM58.272 11.8756C54.7009 11.8756 52.475 14.1628 52.475 17.8109C52.475 21.7231 54.7615 23.8031 58.272 23.8031C61.8472 23.8031 64.0731 21.4996 64.0731 17.8718C64.0731 13.9353 61.7866 11.8756 58.272 11.8756ZM58.272 15.1093C59.1123 15.1093 59.4597 15.8325 59.4597 17.8718C59.4597 19.769 59.1123 20.549 58.272 20.549C57.4358 20.549 57.0884 19.8503 57.0884 17.8109C57.0884 15.8934 57.4156 15.1093 58.272 15.1093ZM72.1969 11.8756C71.1102 11.8675 70.0761 12.3509 69.3812 13.1959V7.54902L64.8446 7.99995V23.3521H68.8884L69.0136 22.4462C69.6761 23.3359 70.7265 23.8437 71.8293 23.8071C74.6086 23.8071 76.2205 21.2112 76.2205 17.8718C76.2205 14.1628 74.9358 11.8756 72.201 11.8756H72.1969ZM70.4235 20.5693C69.971 20.5734 69.559 20.3175 69.361 19.9112L69.3812 19.83V15.9746C69.5873 15.4912 70.0437 15.1581 70.5649 15.1093C71.1183 15.1093 71.6071 15.3978 71.6071 17.8718C71.6071 20.0128 71.1183 20.5693 70.4235 20.5693ZM116.711 12.3062H112.364L111.689 19.83L110.728 12.3062H106.583L105.319 19.83L104.951 12.3062H100.358L102.479 23.3521H107.565L108.502 16.3687L109.544 23.3521H114.646L116.711 12.3062ZM122.467 11.8756C118.896 11.8756 116.67 14.1628 116.67 17.8109C116.67 21.7231 118.957 23.8031 122.467 23.8031C126.042 23.8031 128.268 21.4996 128.268 17.8718C128.268 13.9353 125.982 11.8756 122.467 11.8756ZM122.467 15.1093C123.307 15.1093 123.655 15.8325 123.655 17.8718C123.655 19.769 123.307 20.549 122.467 20.549C121.631 20.549 121.283 19.8503 121.283 17.8109C121.283 15.8934 121.611 15.1093 122.467 15.1093ZM136.109 11.9365C134.901 11.9365 133.782 12.9481 133.37 14.37L133.003 12.3103H129.044V23.3521H133.576V18.6153C133.843 17.3559 134.211 16.3687 135.495 16.3687C135.843 16.3809 136.186 16.4418 136.517 16.5556L137.212 12.1437C136.857 12.0137 136.485 11.9446 136.109 11.9365ZM142.048 7.54902L137.515 8.00402V23.3521H142.048V7.54902ZM149.238 12.3103H144.807L142.132 17.3153L144.354 23.3521H149.339L146.6 17.1487L149.238 12.3103ZM87.1641 8.72308C84.207 8.72308 82.7971 10.3725 82.7971 12.1437C82.7971 13.464 83.3465 14.2887 84.7564 15.6659C82.9183 16.8846 81.9973 17.9937 81.9973 19.704C81.9973 22.1171 84.0171 23.7015 87.0429 23.7015C88.6668 23.7421 90.2504 23.1937 91.5148 22.1578L93.1065 23.7015L95.8616 22.4015L93.3893 20.1996C94.1972 19.0215 94.8314 17.7296 95.2718 16.3646L92.5732 15.5643C92.3551 16.584 92.0238 17.5793 91.5956 18.53L88.8405 15.9137C90.412 14.8615 91.535 13.7484 91.535 12.0178C91.535 10.145 89.9232 8.72308 87.1641 8.72308ZM87.2044 10.8234C87.5478 10.799 87.8831 10.925 88.1215 11.1728C88.3638 11.4206 88.481 11.7578 88.4527 12.1031C88.4527 12.9684 88.0043 13.5859 87.0631 14.2034C86.2066 13.3381 85.8996 12.8668 85.8996 12.1437C85.8754 11.7862 86.0047 11.4368 86.2551 11.1809C86.5056 10.929 86.853 10.799 87.2085 10.8234H87.2044ZM86.5945 17.4209L89.903 20.614C89.2445 21.13 88.4285 21.4103 87.5923 21.394C86.247 21.394 85.3704 20.6546 85.3704 19.5212C85.3906 18.6559 85.8552 17.8596 86.5945 17.4168V17.4209Z" fill="#007BFF"/>
<path fill-rule="evenodd" clip-rule="evenodd" d="M17.9159 0.931641C27.5789 0.931641 35.4119 8.83727 35.4119 18.5873C35.4119 28.3373 27.5789 36.2429 17.9159 36.2429C8.25293 36.2429 0.419922 28.3373 0.419922 18.5873C0.419922 8.83727 8.25293 0.931641 17.9159 0.931641ZM19.6288 12.1807H18.4896C17.2292 12.1848 16.2071 13.2166 16.2031 14.4882V29.8404H16.3929C18.1785 29.8323 19.6207 28.3738 19.6288 26.5741V12.1807ZM9.68703 10.0479H10.8303C12.0907 10.052 13.1127 11.0798 13.1127 12.3554V25.977H12.9228C11.1413 25.9729 9.6951 24.5145 9.68703 22.7148V10.0479ZM26.1771 10.0479H25.0379C23.7775 10.052 22.7555 11.0798 22.7515 12.3554V25.977H22.9413C24.7269 25.9729 26.1691 24.5145 26.1771 22.7148V10.0479Z" fill="#007BFF"/>
</svg>
