<svg width="212" height="217" viewBox="0 0 212 217" fill="none" xmlns="http://www.w3.org/2000/svg">
<path d="M191.245 0.785267L211.068 90.9509H27.0003L45.2958 0.801109C45.3904 0.334994 45.8002 0 46.2759 0H190.268C190.738 0 191.144 0.326677 191.245 0.785267Z" fill="url(#paint0_linear)" fill-opacity="0.5"/>
<path d="M65.4772 22.2514C65.4772 21.6991 65.9249 21.2514 66.4772 21.2514L199.869 21.251C200.422 21.251 200.869 21.6987 200.869 22.251V178.352C200.869 178.905 200.422 179.352 199.869 179.352H66.4772C65.9249 179.352 65.4772 178.905 65.4772 178.352V22.2514Z" fill="url(#paint1_linear)"/>
<path d="M44.0543 13.7505C44.0543 13.1982 44.502 12.7505 45.0543 12.7505L193.653 12.75C194.205 12.75 194.653 13.1977 194.653 13.75V187.787C194.653 188.339 194.205 188.787 193.653 188.787H45.0543C44.502 188.787 44.0543 188.339 44.0543 187.787V13.7505Z" fill="#F6F6F6"/>
<path d="M64.319 32.1455C64.319 31.5932 64.7667 31.1455 65.319 31.1455H166.148C166.701 31.1455 167.148 31.5932 167.148 32.1455V38.6456C167.148 39.1979 166.701 39.6456 166.148 39.6456H65.319C64.7667 39.6456 64.319 39.1979 64.319 38.6456V32.1455Z" fill="url(#paint2_linear)"/>
<path d="M63.5616 71.2461C63.5616 70.6938 64.0094 70.2461 64.5616 70.2461H165.391C165.943 70.2461 166.391 70.6938 166.391 71.2461V77.7462C166.391 78.2985 165.943 78.7462 165.391 78.7462H64.5616C64.0094 78.7462 63.5616 78.2985 63.5616 77.7462V71.2461Z" fill="url(#paint3_linear)"/>
<path d="M64.319 110.347C64.319 109.794 64.7667 109.347 65.319 109.347L166.148 109.347C166.701 109.347 167.148 109.795 167.148 110.347V116.847C167.148 117.399 166.701 117.847 166.148 117.847L65.319 117.846C64.7667 117.846 64.319 117.399 64.319 116.846V110.347Z" fill="url(#paint4_linear)"/>
<path d="M64.192 90.7959C64.192 90.2436 64.6397 89.7959 65.192 89.7959L166.022 89.7962C166.574 89.7962 167.022 90.2439 167.022 90.7962V97.296C167.022 97.8483 166.574 98.296 166.022 98.296L65.192 98.2957C64.6397 98.2957 64.192 97.848 64.192 97.2957V90.7959Z" fill="url(#paint5_linear)"/>
<path d="M64.319 149.447C64.319 148.895 64.7667 148.447 65.319 148.447L166.148 148.448C166.701 148.448 167.148 148.895 167.148 149.448V155.947C167.148 156.5 166.701 156.947 166.148 156.947L65.319 156.947C64.7667 156.947 64.319 156.499 64.319 155.947V149.447Z" fill="url(#paint6_linear)"/>
<path d="M64.192 129.896C64.192 129.344 64.6397 128.896 65.192 128.896L166.022 128.897C166.574 128.897 167.022 129.344 167.022 129.897V136.397C167.022 136.949 166.574 137.397 166.022 137.397L65.192 137.396C64.6397 137.396 64.192 136.949 64.192 136.396V129.896Z" fill="url(#paint7_linear)"/>
<path d="M64.192 51.6953C64.192 51.143 64.6397 50.6953 65.192 50.6953L166.022 50.6956C166.574 50.6956 167.022 51.1433 167.022 51.6956V58.1954C167.022 58.7477 166.574 59.1954 166.022 59.1954L65.192 59.1951C64.6397 59.1951 64.192 58.7474 64.192 58.1951V51.6953Z" fill="url(#paint8_linear)"/>
<path d="M27.0001 90.9502H211.068V193.651C211.068 194.203 210.62 194.651 210.068 194.651H28.0001C27.4478 194.651 27.0001 194.203 27.0001 193.651V90.9502Z" fill="url(#paint9_linear)" fill-opacity="0.5"/>
<path d="M53.9196 122.92L28.0227 150.181C26.2619 152.034 26.3371 154.964 28.1907 156.725C30.0442 158.486 32.9742 158.411 34.735 156.557L60.6319 129.296L53.9196 122.92Z" fill="#057EFF"/>
<path d="M43.8305 128.22L5.71248 168.345C2.55756 171.666 2.69225 176.916 6.01333 180.071C9.3344 183.226 14.5842 183.091 17.7392 179.77L55.8572 139.645L43.8305 128.22Z" fill="url(#paint10_linear)"/>
<path d="M47.4906 95.5582C47.4906 116.48 64.8748 133.616 86.5385 133.616C108.202 133.616 125.586 116.48 125.586 95.5582C125.586 74.6362 108.202 57.5 86.5385 57.5C64.8748 57.5 47.4906 74.6362 47.4906 95.5582Z" stroke="url(#paint11_linear)" stroke-width="9"/>
<path d="M51.8984 95.5579C51.8984 114.689 67.4074 129.209 86.5388 129.209C105.67 129.209 121.179 114.689 121.179 95.5579C121.179 76.4265 105.67 61.9072 86.5388 61.9072C67.4074 61.9072 51.8984 76.4265 51.8984 95.5579Z" fill="url(#paint12_linear)" fill-opacity="0.6"/>
<path d="M151.745 106.676C153.639 111.728 152.797 118.15 151.745 119.413C155.534 122.781 161.044 124.358 161.55 124.358C162.181 124.358 167.609 115.431 166.346 115.431C165.083 115.431 161.55 111.728 164.707 106.676C165.765 104.982 151.301 105.493 151.745 106.676Z" fill="#E6C49B"/>
<path d="M169.344 100.513C169.64 97.9511 169.46 92.0998 168.864 87.988C168.458 88.2568 167.289 89.0979 165.863 90.3121C164.08 91.8299 155.082 89.7402 153.121 90.0245C151.551 90.2519 152.755 93.6459 152.528 95.1482C152.25 94.7686 150.81 95.2712 149.169 95.0052C147.118 94.6727 147.923 100.224 148.845 101.979C149.391 103.019 148.842 104.745 148.648 105.214C148.644 105.196 148.641 105.177 148.638 105.158C148.555 105.388 148.58 105.379 148.648 105.214C148.767 105.763 149.372 105.619 149.649 107.53C150.007 109.997 153.02 110.579 155.685 112.323C157.054 113.22 164.876 112.752 166.659 111.234C168.442 109.716 169.085 102.753 169.344 100.513Z" fill="#F3CFA4"/>
<path d="M160.704 78.891C162.862 79.6026 168.701 80.9025 169.615 87.2054C170.07 90.3398 170.69 93.2734 169.896 93.5665C169.102 93.8596 166.554 95.209 164.954 94.923C162.976 94.5694 156.742 92.5278 155.757 94.5915C154.163 97.9292 151.598 98.3963 151.36 99.7113C151.479 99.0538 151.626 97.1117 149.83 98.0123C148.959 98.4487 149.655 101.239 150.648 103.656C150.988 104.485 151.906 103.474 151.724 102.22C151.966 103.892 152.484 104.759 152.629 105.762C152.811 107.016 152.858 108.408 152.858 109.304C152.858 110.311 153.514 113.452 152.858 113.405C152.629 113.388 152.248 110.854 150.648 110.564C148.205 110.122 145.797 105.64 144.084 102.687C142.372 99.7337 141.652 99.196 141.463 93.4608C141.274 87.7256 145.398 80.7265 150.34 79.37C155.281 78.0136 158.006 78.0014 160.704 78.891Z" fill="#463A2B"/>
<path d="M162.434 117.411C164.455 116.401 163.545 116.441 165.019 114.547C169.001 114.104 176.523 114.282 178.293 114.99C180.819 116 183.731 118.89 186.257 121.627C186.257 122.069 180.948 131.803 179.62 131.361C178.662 131.042 177.85 130.476 174.311 127.379C174.311 133.573 173.545 139.387 174.05 141.407C174.681 143.933 148.542 168.561 145.385 171.087C142.227 173.612 128.383 174.82 128.837 172.981C130.045 168.086 130.046 165.431 130.046 158.794C130.931 146.847 132.701 131.361 134.47 123.839C136.673 114.476 151.957 114.565 153.072 115.432C157.054 118.529 159.908 118.674 162.434 117.411Z" fill="url(#paint13_linear)"/>
<path d="M190.602 198.871C190.602 196.976 189.97 193.819 189.97 193.819L195.653 188.136C196.495 190.241 196.285 191.925 197.548 196.345C198.12 198.348 190.602 200.765 190.602 198.871Z" fill="#CDCDCD"/>
<path d="M179.867 206.449C179.235 204.554 179.109 202.912 178.604 201.397L185.55 195.082C185.971 197.187 186.181 201.397 186.181 204.554C186.181 206.376 181.551 206.028 179.867 206.449Z" fill="#CDCDCD"/>
<path d="M204.492 202.029C203.574 201.37 199.65 197.819 197.545 196.346C196.745 197.547 192.776 198.017 190.6 198.872C190.6 199.503 189.739 200.935 189.97 201.397C190.475 202.408 192.232 203.292 192.496 203.292C192.76 203.292 193.128 202.66 193.128 202.66C193.128 202.66 193.759 204.555 198.809 207.712C204.796 211.456 209.931 209.021 211.018 207.023C211.737 205.702 208.363 204.811 204.492 202.029Z" fill="#034892"/>
<path d="M193.233 209.857C192.265 209.273 188.163 204.927 186.181 203.292C185.288 204.426 181.869 204.934 179.633 205.614C179.583 206.244 178.612 207.603 178.806 208.082C179.23 209.129 180.904 210.22 181.129 210.238C181.355 210.256 181.761 209.607 181.761 209.607C181.761 209.607 182.139 211.879 186.234 214.189C192.385 217.659 196.201 216.54 198.186 215.43C201.716 213.457 198.359 212.948 193.233 209.857Z" fill="#034892"/>
<path d="M128.837 187.997C127.575 182.612 128.276 172.953 129.603 168.528C131.498 168.528 136.683 171.625 140.665 168.971C145.154 165.978 155.87 137.305 162.185 135.726C169.131 133.989 169.552 137.199 171.657 138.883C173.552 136.358 174.819 133.779 183.024 134.462C190.601 135.093 193.619 157.835 193.759 159.09C194.39 164.773 198.811 190.031 198.811 191.926C198.811 193.82 189.338 198.24 189.338 197.609C189.338 196.977 178.603 164.774 178.603 166.037C178.603 167.3 187.836 196.914 187.444 198.872C186.813 202.029 179.866 204.562 177.341 204.557C176.709 204.555 163.88 170.491 163.249 174.28C162.617 178.069 151.886 191.669 147.302 193.306C141.108 195.519 130.393 194.634 128.837 187.997Z" fill="#0076F4"/>
<path d="M150.436 160.984C148.542 160.352 137.143 138.629 137.143 137.998L138.816 132.438C141.342 133.07 145.867 132.058 146.877 133.573C148.14 135.468 154.857 152.775 155.488 153.406C156.12 154.037 171.089 153.042 172.983 153.042C173.131 152.452 174.488 152.157 175.196 152.157C176.081 152.157 174.753 153.042 174.753 153.484C174.753 153.927 176.966 152.599 178.293 152.599C179.62 152.599 183.16 155.132 181.124 156.057C176.918 157.969 176.699 157.827 173.159 157.385C171.896 157.385 152.331 161.615 150.436 160.984Z" fill="#E6C49B"/>
<path d="M196.434 143.307C197.697 137.624 190.235 128.825 185.815 122.511C185.372 123.396 184.925 123.972 180.505 130.918C182.61 134.286 186.257 138.757 186.257 139.768C186.257 141.03 184.294 145.206 180.505 147.732C176.716 150.258 174.744 152.064 174.311 152.157C172.246 152.599 169.449 151.704 169.001 152.599C168.559 153.484 173.051 154.369 166.789 154.369C164.576 154.369 162.806 158.794 166.346 159.236C169.886 159.679 172.104 158.298 176.523 156.581C178.202 155.929 195.881 145.798 196.434 143.307Z" fill="#F3CFA4"/>
<path d="M135.373 141.537C134.868 140.527 133.603 137.113 133.603 130.918C134.488 121.626 134.913 118.086 144.205 115.874C143.7 119.41 146.394 127.678 148.288 134.203C144.71 136.308 135.878 142.548 135.373 141.537Z" fill="url(#paint14_linear)"/>
<defs>
<linearGradient id="paint0_linear" x1="119.034" y1="0" x2="119.034" y2="90.9509" gradientUnits="userSpaceOnUse">
<stop stop-color="#96C2F0"/>
<stop offset="1" stop-color="#8DB9F1"/>
</linearGradient>
<linearGradient id="paint1_linear" x1="162.737" y1="51.8513" x2="206.439" y2="53.1471" gradientUnits="userSpaceOnUse">
<stop stop-color="#626262"/>
<stop offset="0.0001" stop-color="#E1E1E1"/>
<stop offset="1" stop-color="#F6F6F6"/>
</linearGradient>
<linearGradient id="paint2_linear" x1="59.6776" y1="30.0122" x2="170.873" y2="30.0122" gradientUnits="userSpaceOnUse">
<stop stop-color="#C4C4C4" stop-opacity="0"/>
<stop offset="1" stop-color="#C4C4C4"/>
</linearGradient>
<linearGradient id="paint3_linear" x1="59.7193" y1="69.1127" x2="170.088" y2="69.1127" gradientUnits="userSpaceOnUse">
<stop stop-color="#C4C4C4" stop-opacity="0"/>
<stop offset="1" stop-color="#C4C4C4"/>
</linearGradient>
<linearGradient id="paint4_linear" x1="59.6776" y1="107.505" x2="170.873" y2="107.505" gradientUnits="userSpaceOnUse">
<stop stop-color="#C4C4C4" stop-opacity="0"/>
<stop offset="1" stop-color="#C4C4C4"/>
</linearGradient>
<linearGradient id="paint5_linear" x1="59.5506" y1="87.9544" x2="170.746" y2="87.9544" gradientUnits="userSpaceOnUse">
<stop stop-color="#C4C4C4" stop-opacity="0"/>
<stop offset="1" stop-color="#C4C4C4"/>
</linearGradient>
<linearGradient id="paint6_linear" x1="59.6776" y1="146.606" x2="170.873" y2="146.606" gradientUnits="userSpaceOnUse">
<stop stop-color="#C4C4C4" stop-opacity="0"/>
<stop offset="1" stop-color="#C4C4C4"/>
</linearGradient>
<linearGradient id="paint7_linear" x1="59.5506" y1="127.055" x2="170.746" y2="127.055" gradientUnits="userSpaceOnUse">
<stop stop-color="#C4C4C4" stop-opacity="0"/>
<stop offset="1" stop-color="#C4C4C4"/>
</linearGradient>
<linearGradient id="paint8_linear" x1="59.5506" y1="48.8538" x2="170.746" y2="48.8538" gradientUnits="userSpaceOnUse">
<stop stop-color="#C4C4C4" stop-opacity="0"/>
<stop offset="1" stop-color="#C4C4C4"/>
</linearGradient>
<linearGradient id="paint9_linear" x1="119.034" y1="90.9502" x2="119.034" y2="194.651" gradientUnits="userSpaceOnUse">
<stop stop-color="#96C2F0"/>
<stop offset="1" stop-color="#8DB9F1"/>
</linearGradient>
<linearGradient id="paint10_linear" x1="21.9153" y1="151.289" x2="33.9419" y2="162.714" gradientUnits="userSpaceOnUse">
<stop stop-color="#057EFF"/>
<stop offset="1" stop-color="#68B1FF"/>
</linearGradient>
<linearGradient id="paint11_linear" x1="114.361" y1="96.5039" x2="42.9906" y2="96.5287" gradientUnits="userSpaceOnUse">
<stop stop-color="#68B1FF"/>
<stop offset="1" stop-color="#007BFF"/>
</linearGradient>
<linearGradient id="paint12_linear" x1="83.3103" y1="130.198" x2="83.6757" y2="60.919" gradientUnits="userSpaceOnUse">
<stop stop-color="#E9E9E9"/>
<stop offset="1" stop-color="white"/>
</linearGradient>
<linearGradient id="paint13_linear" x1="139.196" y1="144.749" x2="186.257" y2="144.764" gradientUnits="userSpaceOnUse">
<stop stop-color="#68B1FF"/>
<stop offset="1" stop-color="#007BFF"/>
</linearGradient>
<linearGradient id="paint14_linear" x1="136.255" y1="129.047" x2="148.288" y2="129.049" gradientUnits="userSpaceOnUse">
<stop stop-color="#68B1FF"/>
<stop offset="1" stop-color="#007BFF"/>
</linearGradient>
</defs>
</svg>
