<svg width="244" height="196" viewBox="0 0 244 196" fill="none" xmlns="http://www.w3.org/2000/svg">
<path d="M234.885 114.804V89.3049L10.479 58.7061L8.74281 84.6687L76.4552 124.076L145.47 168.584L234.885 114.804Z" fill="#E6E6E6"/>
<path d="M160.662 53.1436C166.218 60.5615 166.739 65.5068 166.305 67.0522C136.21 86.8333 78.4249 122.867 78.6259 122.223C79.494 119.441 71.6811 109.242 63.8681 101.36C57.3531 94.7879 24.3692 69.3703 9.17729 59.1707L99.0265 4C118.559 12.3451 153.717 43.8713 160.662 53.1436Z" fill="#EFEFEF"/>
<path d="M113.35 125.93C95.1198 114.927 78.1917 122.224 78.1917 122.224L167.607 66.1234C167.607 66.1234 173.228 62.2007 177.156 61.9538C184.535 61.49 192.001 64.4957 198.859 67.5143C206.238 70.7624 225.77 82.3501 235.753 88.3772L144.168 145.402C143.01 144.63 135.438 139.262 113.35 125.93Z" fill="#F6F6F6"/>
<path d="M68.2084 131.031C65.604 129.176 65.0253 124.695 65.17 122.222L74.7192 118.977L82.0981 124.54L89.043 133.812C86.4386 135.512 81.0564 138.912 80.3619 138.912C79.4938 138.912 71.1201 133.104 68.2084 131.031Z" fill="#92B4D9"/>
<path d="M244 117.123C240.528 114.342 233.409 108.685 232.715 108.314L145.904 164.412L82.0982 124.541L79.9279 130.568L145.904 177.394L244 117.123Z" fill="#96C2F0"/>
<path d="M0.929672 87.9148C3.534 86.3694 8.74265 83.7422 8.74265 83.7422L74.7189 118.977L67.774 123.15L0.929672 87.9148Z" fill="#96C2F0"/>
<path d="M147.64 61.957L95.282 18.8557L88.1979 22.8304L141.566 66.7889L147.64 61.957Z" fill="url(#paint0_linear)"/>
<path d="M170 71L216.221 93.0117L208 97.4996L164 75.5L170 71Z" fill="url(#paint1_linear)"/>
<path d="M151.5 83L194.519 105.677L187.574 110.313L145.5 87.4995L151.5 83Z" fill="url(#paint2_linear)"/>
<path d="M132.001 96.5L176.288 117.956L168.909 121.807L126 99.9998L132.001 96.5Z" fill="url(#paint3_linear)"/>
<path d="M113.5 107.5L158.354 131.083L151.103 135.2L107 110.5L113.5 107.5Z" fill="url(#paint4_linear)"/>
<path d="M115.147 83.3613L61.5557 40.6342L54.4838 45.0688L109.816 87.3017L115.147 83.3613Z" fill="url(#paint5_linear)"/>
<path d="M98.7769 93.4922L47.9802 51.5505L42.2754 57.1439L92.0814 97.1885L98.7769 93.4922Z" fill="url(#paint6_linear)"/>
<path d="M131.617 72.6055L79.4996 29.4187L72.8639 33.413L126.556 76.3104L131.617 72.6055Z" fill="url(#paint7_linear)"/>
<path d="M41.4049 72.2505C40.9055 70.7525 39.4786 61.1801 39.4786 55.3543C41.5593 54.314 47.7299 54.359 47.6468 55.3542C46.969 63.4685 47.6468 71.0021 47.6468 72.8747C47.6468 74.3728 48.0629 78.4925 48.271 80.365C48.8952 84.1102 52.2658 91.6005 50.7677 91.6005C48.8952 91.6005 48.271 90.3521 47.6468 89.1037C47.0226 87.8554 42.0291 74.1231 41.4049 72.2505Z" fill="#F3CFA4"/>
<path d="M70.1171 28.5566C69.6178 29.0559 69.9091 31.6775 70.1171 32.9259C71.1574 35.2146 73.1132 39.9169 72.6139 40.4162C72.1145 40.9156 61.3784 44.1614 58.8816 38.5437C59.0897 37.0872 59.6307 34.0495 60.13 33.5501C60.6294 33.0508 58.6736 27.9324 57.6332 25.4356L62.6268 3.58887C66.9961 5.46145 73.8088 12.2837 75.0571 15.4046C75.7128 17.0438 75.1106 24.1872 75.1106 25.4356C75.1106 26.684 70.7413 27.9324 70.1171 28.5566Z" fill="#EECDA7"/>
<path d="M52.6397 187.725L53.2639 182.108L58.2031 177.899L60.7452 187.875L57.2521 189.052L52.6397 187.725Z" fill="#CDCDCD"/>
<path d="M69.2979 185.988C65.4995 186.387 60.5444 185.683 60.6023 185.062C59.3953 184.559 60.5444 185.683 58.5642 186.753C56.5839 187.822 53.5343 186.911 52.9128 186.853C52.2913 186.796 51.9441 190.525 52.4499 191.825C52.9556 193.126 56.7425 192.852 57.364 192.91C57.9855 192.968 57.4219 192.288 58.1013 191.725C58.7806 191.161 58.7648 193.072 66.4544 191.28C71.5807 190.086 72.4633 185.656 69.2979 185.988Z" fill="#033A76"/>
<path d="M65.7482 29.1803C67.7456 28.6809 66.9965 20.4419 68.245 19.1932C70.1175 14.8241 75.7352 15.4483 75.7352 6.70964C75.7352 4.21287 68.245 1.09163 59.5062 0.46744C50.7675 -0.156753 51.3918 6.08517 49.5192 8.58194C47.6466 11.0787 48.2708 17.3206 50.1434 22.3142C52.016 27.3077 55.7611 29.1803 57.0095 30.4287C58.2579 31.6771 62.0031 32.9255 62.0031 31.6771C62.0031 30.4287 63.2514 29.8045 65.7482 29.1803Z" fill="#463A2B"/>
<path d="M68.67 189.505L69.2702 181.413L75.1033 178.716L76.7161 190.728L68.67 189.505Z" fill="#CDCDCD"/>
<path d="M85.1739 186.441C81.3836 186.911 76.4164 186.324 76.4626 185.702C75.2464 185.222 76.4164 186.324 74.4567 187.431C72.4969 188.537 69.4306 187.684 68.8082 187.638C68.1857 187.592 67.8164 192.571 68.3465 193.863C68.8767 195.154 72.6577 194.808 73.2802 194.854C73.9027 194.9 73.3264 194.232 73.995 193.656C74.6637 193.079 75.1904 194.463 82.8448 192.527C87.9478 191.237 88.3325 186.049 85.1739 186.441Z" fill="#034892"/>
<path d="M52.0152 163.381C52.0153 125.929 45.7734 105.331 47.6459 94.0951C59.7136 93.679 83.8491 93.4709 83.8491 95.9677C83.8491 99.0887 82.6007 131.547 82.6007 136.541C82.6007 141.534 77.6071 183.979 76.3588 185.228C75.1104 186.476 68.4003 186.476 68.2443 185.228C67.6201 180.235 69.4926 152.145 69.4926 149.648C69.4926 147.152 67.6201 117.191 66.9959 114.07C66.7463 112.822 66.3717 114.07 66.3717 115.942C66.3717 117.815 65.7475 141.534 65.1233 143.407C64.4991 145.279 60.1298 183.355 60.1298 184.604C60.1298 185.852 52.2071 185.899 52.0152 185.228C50.7669 180.858 52.0152 167.126 52.0152 163.381Z" fill="#0076F4"/>
<path d="M70.1172 97.2176C75.1108 97.2176 81.5607 96.593 85.0978 94.7204C86.9704 94.7204 78.8559 51.0269 79.4801 48.5302C85.5862 44.2984 92.0941 39.7253 91.7914 39.4226C89.5753 37.2065 86.4727 34.1037 84.6998 31.4448C84.5133 31.1651 82.0404 31.8876 78.9378 32.7741C77.5215 33.1788 72.4913 33.5058 71.3121 34.1298C69.7514 34.9558 67.5669 36.0024 65.0702 36.0024C63.0728 36.0024 58.8817 35.0062 57.0092 32.9257C54.5124 32.3015 46.3444 36.627 43.8476 37.8753C41.3508 39.1237 37.6056 56.6002 38.2298 57.2244C38.8443 57.8389 44.9028 57.8451 48.0688 57.8484L48.2169 57.8486C48.841 57.8493 48.2168 55.9767 49.5189 51.6515C49.5189 56.0208 48.8946 63.5108 47.6463 69.7527C46.7894 74.0372 45.7737 90.3515 45.7737 92.8482C45.7737 95.345 63.8753 97.2176 70.1172 97.2176Z" fill="url(#paint8_linear)"/>
<path d="M73.1596 16.0233C74.757 16.0233 84.9185 24.9262 89.7995 29.3776C89.7995 29.3776 84.9465 32.0951 85.1427 32.3305C87.3588 34.9898 90.5501 38.5357 90.9046 38.5357C93.1208 36.3195 92.85 36.9561 97.1098 33.2169C99.7692 30.8826 98.671 27.7024 98.0054 26.367C97.3398 25.0316 93.564 21.9195 90.4614 20.3633C87.3588 18.807 80.2671 13.5035 75.8219 12.0169C71.8283 10.6814 70.4971 8.0107 68.5003 7.34298C66.5035 6.67527 64.5067 7.34298 61.1787 8.0107C57.8507 8.67842 59.8475 12.6847 62.5099 13.3524C65.1723 14.0202 67.8858 14.1477 67.1692 16.0233C66.527 17.7039 71.1628 16.0233 73.1596 16.0233Z" fill="#F3CFA4"/>
<defs>
<linearGradient id="paint0_linear" x1="147.925" y1="63.1977" x2="92.4304" y2="5.63265" gradientUnits="userSpaceOnUse">
<stop stop-color="#C4C4C4" stop-opacity="0"/>
<stop offset="1" stop-color="#C4C4C4"/>
</linearGradient>
<linearGradient id="paint1_linear" x1="173.663" y1="67.6516" x2="209.078" y2="104.387" gradientUnits="userSpaceOnUse">
<stop stop-color="#C4C4C4" stop-opacity="0"/>
<stop offset="1" stop-color="#C4C4C4"/>
</linearGradient>
<linearGradient id="paint2_linear" x1="158.906" y1="78.4594" x2="194.32" y2="115.195" gradientUnits="userSpaceOnUse">
<stop stop-color="#C4C4C4" stop-opacity="0"/>
<stop offset="1" stop-color="#C4C4C4"/>
</linearGradient>
<linearGradient id="paint3_linear" x1="142.845" y1="89.9517" x2="178.26" y2="126.688" gradientUnits="userSpaceOnUse">
<stop stop-color="#C4C4C4" stop-opacity="0"/>
<stop offset="1" stop-color="#C4C4C4"/>
</linearGradient>
<linearGradient id="paint4_linear" x1="123.111" y1="102.491" x2="159.677" y2="137.916" gradientUnits="userSpaceOnUse">
<stop stop-color="#C4C4C4" stop-opacity="0"/>
<stop offset="1" stop-color="#C4C4C4"/>
</linearGradient>
<linearGradient id="paint5_linear" x1="120.011" y1="89.2688" x2="65.5477" y2="32.7738" gradientUnits="userSpaceOnUse">
<stop stop-color="#C4C4C4" stop-opacity="0"/>
<stop offset="1" stop-color="#C4C4C4"/>
</linearGradient>
<linearGradient id="paint6_linear" x1="107.045" y1="102.61" x2="51.5504" y2="45.0453" gradientUnits="userSpaceOnUse">
<stop stop-color="#C4C4C4" stop-opacity="0"/>
<stop offset="1" stop-color="#C4C4C4"/>
</linearGradient>
<linearGradient id="paint7_linear" x1="134.645" y1="76.0009" x2="79.1503" y2="18.4359" gradientUnits="userSpaceOnUse">
<stop stop-color="#C4C4C4" stop-opacity="0"/>
<stop offset="1" stop-color="#C4C4C4"/>
</linearGradient>
<linearGradient id="paint8_linear" x1="47.8459" y1="65.0322" x2="91.8016" y2="65.0443" gradientUnits="userSpaceOnUse">
<stop stop-color="#68B1FF"/>
<stop offset="1" stop-color="#007BFF"/>
</linearGradient>
</defs>
</svg>
