<svg width="180" height="239" viewBox="0 0 180 239" fill="none" xmlns="http://www.w3.org/2000/svg">
<path d="M22.9442 21.8331C22.9354 21.2747 23.3856 20.8174 23.9441 20.8174L169.181 20.8174C169.733 20.8174 170.181 21.2651 170.181 21.8174V193.417C170.181 193.969 169.733 194.417 169.181 194.417H26.6437C26.0976 194.417 25.6524 193.978 25.6438 193.432L22.9442 21.8331Z" fill="url(#paint0_linear)" fill-opacity="0.5"/>
<path d="M34.5098 1.00049C34.5098 0.448208 34.9575 0.000486288 35.5098 0.000484435L178.898 3.35509e-06C179.45 1.50212e-06 179.898 0.447717 179.898 1V177.632C179.898 178.184 179.45 178.632 178.898 178.632H35.5098C34.9575 178.632 34.5098 178.184 34.5098 177.632V1.00049Z" fill="#F6F6F6"/>
<path d="M59.0369 23.9795C59.0369 23.4272 59.4846 22.9795 60.0369 22.9795H157.308C157.861 22.9795 158.308 23.4272 158.308 23.9795V30.6049C158.308 31.1572 157.861 31.6049 157.308 31.6049H60.0369C59.4846 31.6049 59.0369 31.1572 59.0369 30.6049V23.9795Z" fill="url(#paint1_linear)"/>
<path d="M58.3059 63.6562C58.3059 63.104 58.7536 62.6562 59.3059 62.6562H156.577C157.13 62.6562 157.577 63.104 157.577 63.6562V70.2816C157.577 70.8339 157.13 71.2816 156.577 71.2816H59.3059C58.7536 71.2816 58.3059 70.8339 58.3059 70.2816V63.6562Z" fill="url(#paint2_linear)"/>
<path d="M59.0369 103.333C59.0369 102.781 59.4846 102.333 60.0369 102.333L157.308 102.333C157.861 102.333 158.308 102.781 158.308 103.333V109.958C158.308 110.511 157.861 110.958 157.308 110.958L60.0369 110.958C59.4846 110.958 59.0369 110.51 59.0369 109.958V103.333Z" fill="url(#paint3_linear)"/>
<path d="M58.9141 83.4941C58.9141 82.9419 59.3618 82.4941 59.9141 82.4941L157.186 82.4944C157.738 82.4944 158.186 82.9421 158.186 83.4944V90.1195C158.186 90.6718 157.738 91.1195 157.186 91.1195L59.9141 91.1192C59.3618 91.1192 58.9141 90.6715 58.9141 90.1192V83.4941Z" fill="url(#paint4_linear)"/>
<path d="M59.0369 143.01C59.0369 142.457 59.4846 142.01 60.0369 142.01L157.308 142.01C157.861 142.01 158.308 142.458 158.308 143.01V149.635C158.308 150.187 157.861 150.635 157.308 150.635L60.0369 150.635C59.4846 150.635 59.0369 150.187 59.0369 149.635V143.01Z" fill="url(#paint5_linear)"/>
<path d="M58.9141 123.172C58.9141 122.62 59.3618 122.172 59.9141 122.172L157.186 122.172C157.738 122.172 158.186 122.62 158.186 123.172V129.797C158.186 130.35 157.738 130.797 157.186 130.797L59.9141 130.797C59.3618 130.797 58.9141 130.349 58.9141 129.797V123.172Z" fill="url(#paint6_linear)"/>
<path d="M58.9141 43.8174C58.9141 43.2651 59.3618 42.8174 59.9141 42.8174L157.186 42.8177C157.738 42.8177 158.186 43.2654 158.186 43.8177V50.4428C158.186 50.995 157.738 51.4428 157.186 51.4428L59.9141 51.4425C59.3618 51.4425 58.9141 50.9948 58.9141 50.4425V43.8174Z" fill="url(#paint7_linear)"/>
<path d="M67.7735 57.1398C67.3578 56.7762 67.3156 56.1445 67.6792 55.7288L77.6232 44.3606L79.9613 46.4225L69.8496 57.6467C69.4837 58.0528 68.8596 58.0899 68.4482 57.73L67.7735 57.1398Z" fill="url(#paint8_linear)"/>
<path d="M80.236 43.7539L79.9613 46.4216L77.6231 44.359L80.236 43.7539Z" fill="url(#paint9_linear)"/>
<path d="M68.456 80.6169C63.7236 83.8386 60.6112 84.9864 49.8353 89.1447L50.3447 80.4664L64.5636 73.51L70.1074 56.8477C72.7046 57.551 77.0484 57.1855 74.9576 60.0601C71.4302 64.9096 71.8711 78.292 68.456 80.6169Z" fill="#F3CFA4"/>
<path d="M3.22677 116.769C2.73001 115.279 0.881851 104.972 0.881851 99.1766C2.95168 98.1417 10.1399 95.9821 10.0572 96.9722C9.3829 105.044 9.43627 115.527 9.43627 117.39C9.43627 118.881 9.85023 122.979 10.0572 124.842C10.6782 128.567 14.0313 136.019 12.541 136.019C10.6782 136.019 10.0572 134.777 9.43627 133.535C8.81532 132.293 3.84772 118.632 3.22677 116.769Z" fill="#F3CFA4"/>
<path d="M31.7906 73.3028C31.2938 73.7996 31.2628 76.4883 31.7906 77.6495C32.8255 79.9263 47.235 81.4837 46.7383 81.9804C46.2415 82.4772 23.0973 88.8266 20.6135 83.238C20.8204 81.7891 17.1404 81.1544 17.6372 80.6576C18.1339 80.1609 20.4065 72.6819 19.3716 70.1981L24.3392 48.4648C28.6858 50.3277 35.463 57.1145 36.7049 60.2192C37.3572 61.8499 36.7582 68.9562 36.7582 70.1981C36.7582 71.44 32.4115 72.6819 31.7906 73.3028Z" fill="#F3CFA4"/>
<path d="M14.4038 231.645L15.0247 226.056L19.9382 221.869L22.4672 231.793L18.9922 232.964L14.4038 231.645Z" fill="#CDCDCD"/>
<path d="M30.9751 229.917C27.1964 230.313 22.2671 229.614 22.3246 228.995C21.1239 228.495 22.2671 228.732 20.2971 229.795C18.3272 230.859 15.2934 229.953 14.6751 229.896C14.0568 229.838 13.7114 233.548 14.2146 234.842C14.7177 236.136 18.4849 235.863 19.1032 235.921C19.7215 235.978 19.1608 235.302 19.8366 234.742C20.5124 234.181 20.4967 236.964 28.1463 235.181C33.246 233.993 34.124 229.586 30.9751 229.917Z" fill="#033A76"/>
<path d="M27.4439 73.9235C29.431 73.4267 28.6858 65.2305 29.9277 63.9883C31.7905 59.6419 37.3791 60.2629 37.3791 51.5696C37.3791 49.0858 29.9277 45.9807 21.2344 45.3598C12.541 44.7388 13.1621 50.9483 11.2992 53.4321C9.43639 55.9159 10.0573 62.1254 11.9202 67.093C13.783 72.0606 17.5087 73.9235 18.7506 75.1654C19.9925 76.4073 23.7182 77.6492 23.7182 76.4073C23.7182 75.1654 24.9601 74.5444 27.4439 73.9235Z" fill="#463A2B"/>
<path d="M30.3508 233.416L30.9478 225.366L36.7507 222.683L38.3551 234.632L30.3508 233.416Z" fill="#CDCDCD"/>
<path d="M46.7692 230.368C42.9986 230.836 38.0572 230.252 38.1031 229.633C36.8932 229.156 38.0572 229.37 36.1076 230.471C34.158 231.572 31.1077 230.723 30.4884 230.677C29.8692 230.631 29.5018 235.585 30.0292 236.869C30.5566 238.154 34.318 237.81 34.9373 237.856C35.5565 237.902 34.9832 237.237 35.6484 236.663C36.3135 236.09 36.8375 238.349 44.4522 236.423C49.5286 235.139 49.9113 229.978 46.7692 230.368Z" fill="#034892"/>
<path d="M13.7829 207.428C13.7829 170.171 7.57346 149.679 9.43625 138.502C21.4413 138.088 45.8564 133.856 45.8564 136.34C45.8564 139.445 44.2094 175.759 44.2094 180.727C44.2094 185.694 39.2418 227.919 37.9999 229.161C36.758 230.403 30.0828 230.403 29.9276 229.161C29.3066 224.194 31.1695 196.25 31.1695 193.766C31.1695 191.283 29.3066 161.477 28.6857 158.373C28.4374 157.131 28.0647 158.373 28.0647 160.236C28.0647 162.098 27.4438 185.694 26.8228 187.557C26.2019 189.42 21.8552 227.298 21.8552 228.54C21.8552 229.782 13.9738 229.829 13.7829 229.161C12.541 224.814 13.7829 211.153 13.7829 207.428Z" fill="#0076F4"/>
<path d="M31.7905 141.608C36.7581 141.608 43.1745 140.986 46.6932 139.123C48.5561 139.123 40.4837 95.6569 41.1047 93.1731C46.5712 92.5086 52.059 89.4039 54.0226 89.4039C55.1958 89.4039 52.7807 80.0893 52.7807 78.2268C52.7807 77.8924 44.7084 78.8476 41.6036 78.8477C40.2155 78.8478 34.1522 78.2268 32.9791 78.8476C31.4266 79.6693 29.2534 80.7105 26.7696 80.7105C24.7826 80.7105 20.6134 79.7195 18.7505 77.6498C16.2667 77.0288 8.14115 81.3318 5.65735 82.5737C3.17356 83.8156 -0.552229 101.201 0.0687203 101.822C0.679995 102.433 6.70709 102.44 9.85663 102.443L10.004 102.443C10.6248 102.444 10.0039 100.581 11.2991 96.2783C11.2991 100.625 10.6782 108.076 9.43627 114.285C8.58382 118.548 7.57343 134.777 7.57343 137.261C7.57343 139.745 25.581 141.608 31.7905 141.608Z" fill="url(#paint10_linear)"/>
<path d="M81.117 50.7678C81.2505 51.188 82.0798 52.0322 79.5773 54.398C76.5547 57.2553 75.8649 58.6078 75.4524 59.0755L70.0338 57.2054C70.2329 56.2133 70.0527 55.2878 70.6934 53.6297C71.4973 51.549 73.1822 48.7145 73.8555 47.6886C74.853 46.1687 75.3583 46.7113 75.3859 47.1513C75.4135 47.5914 72.7007 50.4117 73.5808 50.3565C74.4603 50.3014 75.2847 49.3672 76.5207 47.9665L76.5235 47.9634C76.876 47.5638 76.9084 47.0559 77.7885 47.0008C78.4143 46.9616 79.0488 47.4574 79.1779 48.0665C79.3944 48.0759 79.7021 48.2724 80.0991 48.6226C80.6076 49.0711 80.7664 49.4978 80.7172 49.8941C80.8352 50.0312 80.9702 50.3056 81.117 50.7678Z" fill="#F3CFA4"/>
<defs>
<linearGradient id="paint0_linear" x1="96.5546" y1="20.8174" x2="96.5546" y2="194.417" gradientUnits="userSpaceOnUse">
<stop stop-color="#96C2F0"/>
<stop offset="1" stop-color="#8DB9F1"/>
</linearGradient>
<linearGradient id="paint1_linear" x1="54.5561" y1="21.8294" x2="161.904" y2="21.8294" gradientUnits="userSpaceOnUse">
<stop stop-color="#C4C4C4" stop-opacity="0"/>
<stop offset="1" stop-color="#C4C4C4"/>
</linearGradient>
<linearGradient id="paint2_linear" x1="54.5965" y1="61.5062" x2="161.146" y2="61.5062" gradientUnits="userSpaceOnUse">
<stop stop-color="#C4C4C4" stop-opacity="0"/>
<stop offset="1" stop-color="#C4C4C4"/>
</linearGradient>
<linearGradient id="paint3_linear" x1="54.5561" y1="100.464" x2="161.904" y2="100.464" gradientUnits="userSpaceOnUse">
<stop stop-color="#C4C4C4" stop-opacity="0"/>
<stop offset="1" stop-color="#C4C4C4"/>
</linearGradient>
<linearGradient id="paint4_linear" x1="54.4333" y1="80.6255" x2="161.781" y2="80.6255" gradientUnits="userSpaceOnUse">
<stop stop-color="#C4C4C4" stop-opacity="0"/>
<stop offset="1" stop-color="#C4C4C4"/>
</linearGradient>
<linearGradient id="paint5_linear" x1="54.5561" y1="140.141" x2="161.904" y2="140.141" gradientUnits="userSpaceOnUse">
<stop stop-color="#C4C4C4" stop-opacity="0"/>
<stop offset="1" stop-color="#C4C4C4"/>
</linearGradient>
<linearGradient id="paint6_linear" x1="54.4333" y1="120.303" x2="161.781" y2="120.303" gradientUnits="userSpaceOnUse">
<stop stop-color="#C4C4C4" stop-opacity="0"/>
<stop offset="1" stop-color="#C4C4C4"/>
</linearGradient>
<linearGradient id="paint7_linear" x1="54.4333" y1="40.9487" x2="161.781" y2="40.9487" gradientUnits="userSpaceOnUse">
<stop stop-color="#C4C4C4" stop-opacity="0"/>
<stop offset="1" stop-color="#C4C4C4"/>
</linearGradient>
<linearGradient id="paint8_linear" x1="72.322" y1="50.421" x2="74.6684" y2="52.4735" gradientUnits="userSpaceOnUse">
<stop stop-color="#057EFF"/>
<stop offset="1" stop-color="#68B1FF"/>
</linearGradient>
<linearGradient id="paint9_linear" x1="79.9062" y1="45.5417" x2="78.5033" y2="44.3043" gradientUnits="userSpaceOnUse">
<stop stop-color="#463A2B"/>
<stop offset="0.67652" stop-color="#816C51"/>
</linearGradient>
<linearGradient id="paint10_linear" x1="9.81213" y1="110.31" x2="54.3441" y2="110.322" gradientUnits="userSpaceOnUse">
<stop stop-color="#68B1FF"/>
<stop offset="1" stop-color="#007BFF"/>
</linearGradient>
</defs>
</svg>
