<svg width="253" height="241" viewBox="0 0 253 241" fill="none" xmlns="http://www.w3.org/2000/svg">
<path d="M19.0146 160.586C19.0146 116.403 54.8318 80.5859 99.0146 80.5859H166.285C210.467 80.5859 246.285 116.403 246.285 160.586V176.565H19.0146V160.586Z" fill="url(#paint0_linear)" fill-opacity="0.5"/>
<path d="M19.3206 182.828C19.3206 185.59 21.5591 187.828 24.3206 187.828H241.342C244.104 187.828 246.342 185.59 246.342 182.828V163.134C246.342 160.373 244.104 158.134 241.342 158.134H24.3206C21.5591 158.134 19.3206 160.373 19.3206 163.134V182.828Z" fill="#7AB4F7"/>
<path d="M19.5978 224.551H246.743V184.711H19.5978V224.551Z" fill="#A8CBF3"/>
<path d="M6.3382 152.117C6.3382 142.116 14.4459 134.008 24.4474 134.008C34.4488 134.008 42.5565 142.116 42.5565 152.117V223.554C42.5565 224.106 42.1088 224.554 41.5565 224.554H7.33819C6.78591 224.554 6.3382 224.106 6.3382 223.554V152.117Z" fill="#8FBDF3"/>
<path d="M216.405 152.117C216.405 142.116 224.512 134.008 234.514 134.008C244.515 134.008 252.623 142.116 252.623 152.117V223.554C252.623 224.106 252.175 224.554 251.623 224.554H217.405C216.852 224.554 216.405 224.106 216.405 223.554V152.117Z" fill="#8FBDF3"/>
<path d="M180.639 197.843C180.105 197.823 177.838 194 177.47 191.957L170.226 194.221C170.996 197.405 170.62 204.732 172.755 204.813C175.425 204.914 181.306 197.868 180.639 197.843Z" fill="#CDCDCD"/>
<path d="M143.485 224.056C144.53 223.747 144.391 217.78 144.46 215.98L134.476 214.925C135.015 218.326 135.005 222.112 135.478 223.753C136.068 225.804 141.458 224.656 143.485 224.056Z" fill="#CDCDCD"/>
<path d="M135.367 81.9443C136.725 81.9438 134.461 84.2085 138.185 89.5374C137.127 92.5025 134.244 98.0515 133.736 99.0681C133.228 100.085 125.232 95.0813 122.69 91.9044C122.69 91.9044 123.065 90.8998 123.596 90.5462C126.312 88.7353 126.749 82.5581 126.749 82.5581C127.808 82.77 129.161 83.3107 131.194 83.819C133.736 84.4544 134.468 81.9447 135.367 81.9443Z" fill="#E6C49B"/>
<path d="M179.483 85.7266C175.925 85.7266 161.269 86.3619 153.432 86.3619L157.245 97.1634C161.481 96.3162 170.334 94.6219 171.858 94.6219C173.765 94.6219 185.201 93.3511 188.378 93.3511C191.555 93.3511 201.086 93.9865 202.357 93.9865C203.628 93.9865 204.263 96.528 205.534 97.1634C206.804 97.7988 207.44 96.528 206.804 95.8927C206.169 95.2573 205.534 92.0804 208.711 94.6219C211.887 97.1634 215.7 95.8927 216.971 94.6219C218.823 92.7695 211.887 90.1742 208.711 88.2681C205.534 86.3619 183.931 85.7266 179.483 85.7266Z" fill="#F3CFA4"/>
<path d="M100.95 140.031C101.071 138.511 102.794 115.79 104.163 111.221L114.542 112.052C114.061 115.413 112.353 122.386 112.069 125.933C111.715 130.367 108.04 143.624 107.204 146.107C106.368 148.59 94.3845 162.929 93.7005 163.512C93.0164 164.094 92.1059 166.418 90.8647 167.109C88.8633 168.224 86.5742 167.884 88.3296 166.906C90.331 165.792 90.3833 165.159 89.6993 165.741C89.2278 166.143 88.4436 166.888 85.7475 167.337C83.1631 167.768 81.7676 167.656 79.9961 167.515L79.9961 167.515C77.4629 167.312 79.5655 164.931 81.5161 164.449C84.6616 163.673 88.4139 162.374 88.7367 161.84C89.4714 160.624 100.798 141.932 100.95 140.031Z" fill="#F3CFA4"/>
<path d="M142.95 234.887C142.588 236.936 141.91 240.128 139.149 240.31C136.486 240.486 134.039 236.2 134.023 232.654C134.008 229.585 133.868 228.568 134.913 219.121C136.033 219.707 138.587 220.307 140.689 219.924C142.61 219.574 144.019 219.135 144.421 218.669C144.78 220.845 144.069 223.824 144.173 225.401C144.217 226.058 143.748 226.982 143.102 227.025C143.076 227.027 143.051 227.023 143.029 227.016C143.064 228.46 143.081 229.858 143.102 230.174C143.136 230.7 143.287 232.984 142.95 234.887Z" fill="#034892"/>
<path d="M154.524 145.804C147.668 141.466 112.73 153.023 112.73 153.023C112.73 153.023 111.663 158.428 112.73 164.793C114.248 173.848 124.121 171.317 128.123 171.317C132.124 171.317 141.968 166.623 147.871 171.317C152.623 175.097 169.081 199.723 170.682 199.193C172.683 198.529 180.186 194.454 180.186 192.578C180.186 191.633 167.724 167.326 166.88 165.648C162.878 157.692 159.752 149.112 154.524 145.804Z" fill="#0076F4"/>
<path d="M125.476 87.6325C126.256 87.9778 128.145 92.7156 131.194 92.7156C134.244 92.7156 136.913 88.2679 137.55 87.6323C138.187 86.9968 142.415 88.3749 145.808 87.6325C148.419 87.0614 151.378 85.1598 152.162 85.091C152.797 85.0353 160.074 97.7986 159.437 99.0694C158.867 100.205 147.732 103.342 146.459 104.613C145.038 106.033 154.399 144.146 153.798 144.817C144.421 155.287 112.848 154.499 112.848 153.077C112.848 151.486 112.451 126.981 114.81 113.667C112.515 113.845 103.035 111.866 102.587 110.967C101.953 109.696 108.37 94.8846 109.671 92.7156C110.972 90.5466 114.088 88.7356 119.837 87.6325C124.205 86.7944 124.697 87.2873 125.476 87.6325Z" fill="url(#paint1_linear)"/>
<path d="M188.544 195.385C185.449 195.927 180.805 195.837 178.871 195.385C178.656 196.288 177.581 197.823 175.001 199.449C171.777 201.481 171.132 200.126 171.132 202.836C171.132 205.004 171.562 207.352 172.422 208.256L176.936 207.578C178.871 207.578 176.936 205.546 179.515 205.546C182.74 205.546 194.348 202.837 197.573 198.095C200.797 193.353 192.414 194.707 188.544 195.385Z" fill="#034892"/>
<path d="M133.618 216.071C134.457 218.215 145.519 217.707 145.564 216.523C145.609 215.339 146.128 200.884 147.666 185.342C149.843 163.349 143.131 162.07 135.065 163.925C128.179 165.509 130.442 184.551 130.442 187.693C130.442 192.242 132.779 213.927 133.618 216.071Z" fill="#0774E8"/>
<path d="M119.85 74.0273C119.233 71.6547 118.615 66.1187 118.615 62.1644C119.027 62.3621 120.221 62.9948 121.703 63.9439C123.556 65.1301 134.056 61.5713 135.909 61.5713C137.392 61.5713 136.733 64.9324 137.144 66.3164C137.35 65.921 138.75 66.1978 140.233 65.7233C142.086 65.1301 142.086 70.4684 141.468 72.2478C141.102 73.3013 141.842 74.8527 142.084 75.2678C142.085 75.2504 142.086 75.2323 142.086 75.2135C142.193 75.4192 142.169 75.4136 142.084 75.2678C142.047 75.8012 141.468 75.7481 141.468 77.5861C141.468 79.9587 138.38 80.5518 136.527 82.9244C135.479 84.2665 127.262 84.7038 125.409 83.5175C123.556 82.3312 120.391 76.102 119.85 74.0273Z" fill="#F3CFA4"/>
<path d="M125.814 52.139C123.899 53.098 118.635 55.1068 118.634 61.1312C118.633 64.127 118.452 66.9573 119.232 67.1239C120.011 67.2905 122.567 68.208 124.019 67.7232C125.814 67.1239 132.994 64.127 134.191 65.9251C136.127 68.8334 138.579 68.9227 138.978 70.1215C138.779 69.5221 138.38 67.724 140.175 68.3233C141.044 68.6137 140.773 71.3202 140.175 73.7177C139.969 74.54 138.978 73.7177 138.978 72.5189C138.978 74.1173 138.38 75.7548 138.38 76.7138C138.38 77.9125 137.431 80.0617 136.584 80.9094C135.986 81.5088 136.133 82.3226 135.986 82.7082C135.834 83.1078 136.052 84.8861 136.584 85.1057C136.912 85.2409 137.654 83.5634 137.781 83.3076C138.38 82.1086 138.38 83.3076 138.978 82.7082C139.824 81.8606 141.811 80.6898 142.568 80.3108C143.765 79.7114 144.962 74.9167 146.158 71.9199C147.355 68.923 147.953 68.3219 147.355 62.9276C146.757 57.5333 141.97 51.5408 137.183 50.9414C132.396 50.342 128.207 50.9403 125.814 52.139Z" fill="#463A2B"/>
<path d="M63.5633 122.18C69.8392 122.17 79.2472 109.688 83.1667 103.448C87.8534 108.501 94.804 123.897 94.0988 124.887C84.9317 137.765 68.5193 145.409 63.5555 143.891C59.5845 142.676 54.0764 129.531 54.4014 120.583C54.8404 121.119 57.2875 122.19 63.5633 122.18Z" fill="#F6F6F6"/>
<path d="M56.2832 130.205C57.4094 134.41 61.9126 141.377 63.5562 143.89C55.8842 140.578 49.6196 126.357 47.94 110.161L54.5708 120.031C54.6724 121.67 55.157 126 56.2832 130.205Z" fill="#E6E6E6"/>
<path d="M80.6601 112.588L88.5338 126.238L87.0387 128.093L79.5294 114.681L80.6601 112.588Z" fill="url(#paint2_linear)"/>
<path d="M75.1802 117.729L83.1743 131.031L81.4726 132.367L73.9633 118.955L75.1802 117.729Z" fill="url(#paint3_linear)"/>
<path d="M69.5846 122.214L76.4217 135.468L74.1456 136.878L67.4237 123.362L69.5846 122.214Z" fill="url(#paint4_linear)"/>
<path d="M63.0735 125.751L69.7949 139.268L67.77 140.08L60.6989 125.627L63.0735 125.751Z" fill="url(#paint5_linear)"/>
<path d="M46.9024 28.914C51.8634 32.8821 67.1988 28.9883 74.2463 26.5454C74.7452 33.5037 70.4785 50.062 69.2943 50.3973C53.8986 54.7559 36.0979 50.3933 33.1413 46.0496C30.776 42.5746 34.7555 28.7072 40.6809 21.8489C40.6877 22.5505 41.9414 24.9458 46.9024 28.914Z" fill="#F6F6F6"/>
<path d="M36.0692 30.6375C34.2944 34.6706 33.4357 43.0238 33.141 46.0494C29.1826 38.5738 33.2464 23.3777 42.1812 9.52734L41.1632 21.5202C40.2047 22.8789 37.844 26.6045 36.0692 30.6375Z" fill="#E6E6E6"/>
<path d="M66.4759 32.1727L64.236 47.8106L61.6885 48.4548L64.2576 33.1082L66.4759 32.1727Z" fill="url(#paint6_linear)"/>
<path d="M58.8926 32.7594L56.776 48.3261L54.586 48.3028L57.1552 32.9562L58.8926 32.7594Z" fill="url(#paint7_linear)"/>
<path d="M51.6346 32.7553L48.4727 47.8108L45.945 47.2221L49.2012 32.2928L51.6346 32.7553Z" fill="url(#paint8_linear)"/>
<path d="M44.2522 31.4244L40.9949 46.3542L38.5477 45.4755L42.4557 29.8224L44.2522 31.4244Z" fill="url(#paint9_linear)"/>
<path d="M217.9 233.523C209.056 232.108 205.371 224.089 204.634 220.257C204.633 215.393 209.498 199.473 214.362 196.378C212.151 200.063 209.409 208.052 216.131 210.528C222.852 213.005 236.619 208.317 242.663 205.664L228.955 233.965C228.955 234.407 226.744 234.938 217.9 233.523Z" fill="#F6F6F6"/>
<path d="M232.584 214.066L225.859 229.102L223.766 228.975L230.623 214.599L232.584 214.066Z" fill="url(#paint10_linear)"/>
<path d="M226.257 214.802L220.11 228.217L218.342 227.775L224.509 215.029L226.257 214.802Z" fill="url(#paint11_linear)"/>
<path d="M220.111 214.51L213.95 226.214L212.151 225.123L218.022 214.613L220.111 214.51Z" fill="url(#paint12_linear)"/>
<path d="M214.597 212.953L209.128 223.153L207.729 222.027L213.478 211.856L214.597 212.953Z" fill="url(#paint13_linear)"/>
<path d="M214.362 196.379C213.92 196.821 205.518 208.318 204.634 220.7C204.634 216.455 207.287 199.769 208.613 191.957C210.677 193.284 214.716 196.025 214.362 196.379Z" fill="#E6E6E6"/>
<path d="M31.115 207.663C26.8479 212.641 15.854 220.405 11.1127 223.665C16.0021 239.667 28.0036 241 29.337 241C30.6705 241 48.8949 226.332 48.8949 224.109C48.8949 222.331 41.4866 207.959 38.227 200.106C37.338 201.144 35.3822 202.685 31.115 207.663Z" fill="#F6F6F6"/>
<path d="M33.291 211.915L40.3193 225.189L38.7397 226.523L31.9533 213.245L33.291 211.915Z" fill="url(#paint14_linear)"/>
<path d="M28.9864 214.891L35.6517 228.545L34.3132 229.557L27.6347 216.146L28.9864 214.891Z" fill="url(#paint15_linear)"/>
<path d="M24.0052 217.945L30.1646 231.896L28.663 232.917L22.5035 219.31L24.0052 217.945Z" fill="url(#paint16_linear)"/>
<path d="M19.2353 220.771L25.3365 234.777L24.0031 235.666L17.9219 221.712L19.2353 220.771Z" fill="url(#paint17_linear)"/>
<path d="M12.4459 225.903C16.7887 234.587 18.2244 237.016 29.3368 240.572C21.3359 241.016 8.88994 232.126 0 225.903C0.444497 225.755 2.22248 225.903 4.00047 225.014C5.93519 224.047 9.0381 221.31 10.2234 219.68C10.3716 219.384 11.1124 223.237 12.4459 225.903Z" fill="#E6E6E6"/>
<path d="M193.335 69.3884C199.963 67.1515 213.178 61.898 219.097 60.2753C219.779 42.4385 208.11 36.9248 206.687 36.9248C202.431 36.9248 181.93 44.7935 181.151 47.0329C180.528 48.8244 184.621 72.2995 185.407 72.0375L185.555 71.9879C187.281 71.4126 191.836 69.8942 193.335 69.3884Z" fill="#F6F6F6"/>
<path d="M192.632 64.34L190.203 48.5024L192.262 47.7119L194.446 63.4691L192.632 64.34Z" fill="url(#paint18_linear)"/>
<path d="M198.013 62.8508L196.082 46.7579L197.785 46.2072L199.814 62.0607L198.013 62.8508Z" fill="url(#paint19_linear)"/>
<path d="M204.103 61.5195L202.786 45.3045L204.657 44.8015L206.094 60.6703L204.103 61.5195Z" fill="url(#paint20_linear)"/>
<path d="M209.899 60.343L208.66 44.0932L210.315 43.6649L211.552 59.856L209.899 60.343Z" fill="url(#paint21_linear)"/>
<path d="M218.538 57.5509C217.206 47.2787 212.539 38.5196 206.687 36.9236C212.539 36.9236 224.302 52.5269 231.079 61.9128C230.579 61.9063 228.839 61.1339 226.736 61.4064C224.448 61.7029 220.362 63.3732 218.597 64.6C218.344 64.8466 218.947 60.7051 218.538 57.5509Z" fill="#E6E6E6"/>
<defs>
<linearGradient id="paint0_linear" x1="132.65" y1="80.5859" x2="132.65" y2="176.565" gradientUnits="userSpaceOnUse">
<stop stop-color="#96C2F0"/>
<stop offset="1" stop-color="#8DB9F1"/>
</linearGradient>
<linearGradient id="paint1_linear" x1="112.823" y1="120.26" x2="159.476" y2="120.273" gradientUnits="userSpaceOnUse">
<stop stop-color="#68B1FF"/>
<stop offset="1" stop-color="#007BFF"/>
</linearGradient>
<linearGradient id="paint2_linear" x1="80.5542" y1="111.176" x2="89.5125" y2="127.443" gradientUnits="userSpaceOnUse">
<stop stop-color="#C4C4C4" stop-opacity="0"/>
<stop offset="1" stop-color="#C4C4C4"/>
</linearGradient>
<linearGradient id="paint3_linear" x1="74.9869" y1="115.451" x2="83.9451" y2="131.718" gradientUnits="userSpaceOnUse">
<stop stop-color="#C4C4C4" stop-opacity="0"/>
<stop offset="1" stop-color="#C4C4C4"/>
</linearGradient>
<linearGradient id="paint4_linear" x1="69.4678" y1="120.488" x2="76.987" y2="137.469" gradientUnits="userSpaceOnUse">
<stop stop-color="#C4C4C4" stop-opacity="0"/>
<stop offset="1" stop-color="#C4C4C4"/>
</linearGradient>
<linearGradient id="paint5_linear" x1="62.6567" y1="123.339" x2="70.1759" y2="140.32" gradientUnits="userSpaceOnUse">
<stop stop-color="#C4C4C4" stop-opacity="0"/>
<stop offset="1" stop-color="#C4C4C4"/>
</linearGradient>
<linearGradient id="paint6_linear" x1="67.2866" y1="30.9917" x2="64.053" y2="49.5098" gradientUnits="userSpaceOnUse">
<stop stop-color="#C4C4C4" stop-opacity="0"/>
<stop offset="1" stop-color="#C4C4C4"/>
</linearGradient>
<linearGradient id="paint7_linear" x1="60.1833" y1="30.8383" x2="56.9497" y2="49.3564" gradientUnits="userSpaceOnUse">
<stop stop-color="#C4C4C4" stop-opacity="0"/>
<stop offset="1" stop-color="#C4C4C4"/>
</linearGradient>
<linearGradient id="paint8_linear" x1="52.6354" y1="31.3182" x2="47.8138" y2="49.4877" gradientUnits="userSpaceOnUse">
<stop stop-color="#C4C4C4" stop-opacity="0"/>
<stop offset="1" stop-color="#C4C4C4"/>
</linearGradient>
<linearGradient id="paint9_linear" x1="45.4511" y1="29.2563" x2="40.6295" y2="47.4257" gradientUnits="userSpaceOnUse">
<stop stop-color="#C4C4C4" stop-opacity="0"/>
<stop offset="1" stop-color="#C4C4C4"/>
</linearGradient>
<linearGradient id="paint10_linear" x1="233.571" y1="213.061" x2="225.197" y2="230.386" gradientUnits="userSpaceOnUse">
<stop stop-color="#C4C4C4" stop-opacity="0"/>
<stop offset="1" stop-color="#C4C4C4"/>
</linearGradient>
<linearGradient id="paint11_linear" x1="227.287" y1="213.836" x2="220.127" y2="228.65" gradientUnits="userSpaceOnUse">
<stop stop-color="#C4C4C4" stop-opacity="0"/>
<stop offset="1" stop-color="#C4C4C4"/>
</linearGradient>
<linearGradient id="paint12_linear" x1="220.726" y1="214.616" x2="213.445" y2="226.852" gradientUnits="userSpaceOnUse">
<stop stop-color="#C4C4C4" stop-opacity="0"/>
<stop offset="1" stop-color="#C4C4C4"/>
</linearGradient>
<linearGradient id="paint13_linear" x1="215.92" y1="211.622" x2="208.64" y2="223.858" gradientUnits="userSpaceOnUse">
<stop stop-color="#C4C4C4" stop-opacity="0"/>
<stop offset="1" stop-color="#C4C4C4"/>
</linearGradient>
<linearGradient id="paint14_linear" x1="33.1797" y1="210.422" x2="40.7175" y2="226.23" gradientUnits="userSpaceOnUse">
<stop stop-color="#C4C4C4" stop-opacity="0"/>
<stop offset="1" stop-color="#C4C4C4"/>
</linearGradient>
<linearGradient id="paint15_linear" x1="28.6861" y1="213.521" x2="36.2933" y2="229.267" gradientUnits="userSpaceOnUse">
<stop stop-color="#C4C4C4" stop-opacity="0"/>
<stop offset="1" stop-color="#C4C4C4"/>
</linearGradient>
<linearGradient id="paint16_linear" x1="24.6436" y1="217.493" x2="30.7498" y2="233.542" gradientUnits="userSpaceOnUse">
<stop stop-color="#C4C4C4" stop-opacity="0"/>
<stop offset="1" stop-color="#C4C4C4"/>
</linearGradient>
<linearGradient id="paint17_linear" x1="19.4704" y1="219.909" x2="25.3171" y2="235.277" gradientUnits="userSpaceOnUse">
<stop stop-color="#C4C4C4" stop-opacity="0"/>
<stop offset="1" stop-color="#C4C4C4"/>
</linearGradient>
<linearGradient id="paint18_linear" x1="192.221" y1="65.8838" x2="190.166" y2="47.314" gradientUnits="userSpaceOnUse">
<stop stop-color="#C4C4C4" stop-opacity="0"/>
<stop offset="1" stop-color="#C4C4C4"/>
</linearGradient>
<linearGradient id="paint19_linear" x1="197.835" y1="64.3362" x2="195.689" y2="45.8052" gradientUnits="userSpaceOnUse">
<stop stop-color="#C4C4C4" stop-opacity="0"/>
<stop offset="1" stop-color="#C4C4C4"/>
</linearGradient>
<linearGradient id="paint20_linear" x1="203.301" y1="61.7519" x2="202.773" y2="43.4404" gradientUnits="userSpaceOnUse">
<stop stop-color="#C4C4C4" stop-opacity="0"/>
<stop offset="1" stop-color="#C4C4C4"/>
</linearGradient>
<linearGradient id="paint21_linear" x1="209.36" y1="61.1294" x2="208.854" y2="43.5963" gradientUnits="userSpaceOnUse">
<stop stop-color="#C4C4C4" stop-opacity="0"/>
<stop offset="1" stop-color="#C4C4C4"/>
</linearGradient>
</defs>
</svg>
