<svg width="8" height="14" viewBox="0 0 8 14" fill="none" xmlns="http://www.w3.org/2000/svg">
<path d="M0.289812 12.1655C-0.0990032 12.5577 -0.096238 13.1909 0.295988 13.5797C0.688214 13.9685 1.32137 13.9657 1.71019 13.5735L0.289812 12.1655ZM6.01752 7.80796L5.54853 6.92476L5.41432 6.99603L5.30734 7.10395L6.01752 7.80796ZM6.01752 6.06154L5.30734 6.76556L5.41432 6.87348L5.54853 6.94475L6.01752 6.06154ZM1.71019 0.295988C1.32137 -0.096238 0.688214 -0.0990032 0.295988 0.289812C-0.096238 0.678627 -0.0990032 1.31179 0.289812 1.70401L1.71019 0.295988ZM1.71019 13.5735L6.72771 8.51197L5.30734 7.10395L0.289812 12.1655L1.71019 13.5735ZM6.48652 8.69116C6.79454 8.5276 7.07499 8.29424 7.28165 7.99179L5.63035 6.86344C5.62918 6.86515 5.60872 6.8928 5.54853 6.92476L6.48652 8.69116ZM7.28165 7.99179C7.49044 7.68624 7.6142 7.32265 7.6142 6.93475H5.6142C5.6142 6.91441 5.61752 6.89659 5.62191 6.88291C5.62622 6.86948 5.63052 6.86318 5.63035 6.86344L7.28165 7.99179ZM7.6142 6.93475C7.6142 6.54686 7.49044 6.18327 7.28165 5.87771L5.63035 7.00607C5.63052 7.00633 5.62622 7.00003 5.62191 6.98659C5.61752 6.97292 5.6142 6.9551 5.6142 6.93475H7.6142ZM7.28165 5.87771C7.07499 5.57527 6.79454 5.34191 6.48652 5.17834L5.54853 6.94475C5.60872 6.97671 5.62918 7.00436 5.63035 7.00607L7.28165 5.87771ZM6.72771 5.35753L1.71019 0.295988L0.289812 1.70401L5.30734 6.76556L6.72771 5.35753Z" fill="#007BFF"/>
</svg>
