<svg width="8" height="14" viewBox="0 0 8 14" fill="none" xmlns="http://www.w3.org/2000/svg">
<path d="M7.32347 12.1655C7.71228 12.5577 7.70952 13.1909 7.31729 13.5797C6.92507 13.9685 6.29191 13.9657 5.90309 13.5735L7.32347 12.1655ZM1.59576 7.80796L2.06475 6.92476L2.19896 6.99603L2.30594 7.10395L1.59576 7.80796ZM1.59576 6.06154L2.30594 6.76556L2.19896 6.87348L2.06475 6.94475L1.59576 6.06154ZM5.90309 0.295988C6.29191 -0.096238 6.92507 -0.0990032 7.31729 0.289812C7.70952 0.678627 7.71228 1.31179 7.32347 1.70401L5.90309 0.295988ZM5.90309 13.5735L0.885568 8.51197L2.30594 7.10395L7.32347 12.1655L5.90309 13.5735ZM1.12676 8.69116C0.818738 8.5276 0.538291 8.29424 0.331628 7.99179L1.98293 6.86344C1.9841 6.86515 2.00456 6.8928 2.06475 6.92476L1.12676 8.69116ZM0.331628 7.99179C0.122841 7.68624 -0.000915527 7.32265 -0.000915527 6.93475H1.99908C1.99908 6.91441 1.99576 6.89659 1.99137 6.88291C1.98706 6.86948 1.98276 6.86318 1.98293 6.86344L0.331628 7.99179ZM-0.000915527 6.93475C-0.000915527 6.54686 0.122841 6.18327 0.331628 5.87771L1.98293 7.00607C1.98276 7.00633 1.98706 7.00003 1.99137 6.98659C1.99576 6.97292 1.99908 6.9551 1.99908 6.93475H-0.000915527ZM0.331628 5.87771C0.538291 5.57527 0.818738 5.34191 1.12676 5.17834L2.06475 6.94475C2.00456 6.97671 1.9841 7.00436 1.98293 7.00607L0.331628 5.87771ZM0.885568 5.35753L5.90309 0.295988L7.32347 1.70401L2.30594 6.76556L0.885568 5.35753Z" fill="#007BFF"/>
</svg>
