<svg width="60" height="60" viewBox="0 0 60 60" fill="none" xmlns="http://www.w3.org/2000/svg">
<circle cx="30" cy="30" r="29.5" stroke="#007BFF"/>
<path d="M7 48C10.5967 46.4948 17.9037 43.3716 18.358 42.9201C18.9259 42.3556 22.9012 39.5334 22.9012 38.969C22.9012 38.5174 21.3868 34.6416 20.6296 32.7602C19.4938 33.325 18.2444 30.6153 17.7901 28.8091C17.2222 26.5514 17.7901 25.9869 18.358 25.9869C18.9259 25.9869 17.7901 21.4717 17.7901 17.5203C17.7901 14.6423 20.6296 9.61821 28.5802 9.05377C36.5309 8.48934 41.642 12.4406 41.642 17.5203C41.642 20.907 40.5062 25.9869 41.0741 25.9869C41.642 25.9869 42.2099 27.6799 41.642 28.8091C41.0741 29.9384 39.3704 33.3242 38.8025 32.7602C38.3481 32.3089 37.2465 36.7114 36.7525 38.969C38.193 40.0977 41.1877 42.4682 41.642 42.9201C42.0963 43.3719 49.4033 46.495 53 48" stroke="#007BFF"/>
</svg>
