<svg width="227" height="223" viewBox="0 0 227 223" fill="none" xmlns="http://www.w3.org/2000/svg">
<path opacity="0.2" d="M219.663 78.7437L151.613 68.6456L121.193 5.67597C120.362 3.9519 118.995 2.55622 117.306 1.70787C113.072 -0.426689 107.926 1.35211 105.808 5.67597L75.3881 68.6456L7.33796 78.7437C5.46182 79.0173 3.7465 79.9204 2.4332 81.2887C0.845497 82.955 -0.0293993 85.1966 0.000754366 87.5212C0.030908 89.8457 0.963645 92.0629 2.59401 93.6856L51.8292 142.698L40.1972 211.908C39.9244 213.517 40.0989 215.173 40.7008 216.687C41.3028 218.201 42.3081 219.512 43.6029 220.472C44.8976 221.433 46.4299 222.003 48.026 222.119C49.6221 222.236 51.2182 221.893 52.6333 221.13L113.501 188.455L174.368 221.13C176.03 222.033 177.959 222.334 179.809 222.006C184.472 221.185 187.608 216.669 186.804 211.908L175.172 142.698L224.407 93.6856C225.747 92.3447 226.632 90.5932 226.9 88.6776C227.623 83.8885 224.353 79.4552 219.663 78.7437ZM154.454 135.802L164.129 193.353L113.501 166.206L62.8716 193.381L72.5471 135.83L31.5937 95.0539L88.1995 86.6525L113.501 34.301L138.802 86.6525L195.407 95.0539L154.454 135.802Z" fill="#BDBDBD"/>
</svg>
