<svg width="28" height="28" viewBox="0 0 28 28" fill="none" xmlns="http://www.w3.org/2000/svg">
<path d="M23.191 12.835H19.414V10.5691C19.414 10.0502 19.4795 9.79591 19.5931 9.65654C19.6855 9.54309 19.9072 9.39559 20.5625 9.39559C21.2175 9.39559 21.8454 9.39832 22.3096 9.40104C22.5417 9.40241 22.7328 9.40377 22.8658 9.40479L23.0197 9.40603L23.0599 9.40637L23.0702 9.40646L23.0728 9.40649L23.0734 9.40649L23.0735 9.4065H23.0736L23.5651 9.41096L23.578 8.91962L23.6707 5.38256L23.6834 4.89788L23.1994 4.87026L23.1709 5.36945L23.1993 4.87026L23.1992 4.87026L23.1988 4.87023L23.1974 4.87015L23.1916 4.86983L23.1694 4.86858L23.0842 4.86387C23.0101 4.85983 22.9027 4.85405 22.7687 4.84712C22.501 4.83327 22.1273 4.81481 21.7035 4.79634C20.8581 4.7595 19.8054 4.72228 18.9963 4.72228C16.926 4.72228 15.3772 5.33785 14.344 6.35009C13.3129 7.3603 12.8464 8.71612 12.8464 10.099V12.835H10.4519H9.9519V13.335V17.1226V17.6226H10.4519H12.8464V27.143H5C3.73846 27.143 2.83233 27.1423 2.1615 27.072C1.4845 27.001 1.1563 26.8672 0.96812 26.6896C0.785928 26.5177 0.648651 26.2224 0.574694 25.5944C0.500832 24.9673 0.5 24.118 0.5 22.9258V5.64612C0.5 4.40527 0.500768 3.51776 0.574959 2.86156C0.649475 2.20249 0.788816 1.88668 0.975462 1.70325C1.16387 1.5181 1.48967 1.37984 2.16365 1.30624C2.83315 1.23314 3.73799 1.23242 5 1.23242H22.9956C24.255 1.25465 25.1592 1.27137 25.8287 1.35497C26.5033 1.43922 26.8331 1.58133 27.0245 1.76942C27.2125 1.9541 27.3509 2.26629 27.4251 2.9121C27.4992 3.55673 27.5 4.42719 27.5 5.64615L27.5 22.9258C27.5 24.1183 27.4991 24.9668 27.4237 25.5931C27.3483 26.2191 27.2087 26.5134 27.0219 26.6858C26.8267 26.866 26.4865 27.0007 25.7921 27.0719C25.1047 27.1423 24.1768 27.143 22.8874 27.143H19.414V17.6226H23.0046H23.4806L23.504 17.1472L23.6904 13.3596L23.7162 12.835H23.191Z" stroke="#007BFF"/>
</svg>
