<svg width="29" height="28" viewBox="0 0 29 28" fill="none" xmlns="http://www.w3.org/2000/svg">
<path d="M24.1429 1.30078H5.82143C1.00001 1.30078 1 1.30087 1 6.09122V21.964C1 27.2499 1.00001 27.2499 5.82143 27.2499H23.1786C28 27.2499 28 27.2499 28 22.9251L28 15.0292V6.09128C28 1.30046 28 1.30078 24.1429 1.30078Z" stroke="#007BFF" stroke-miterlimit="10"/>
<path d="M22.5106 12.8505C23.293 12.8718 23.75 13.076 24.0242 13.3728C24.3218 13.695 24.5 14.2286 24.5 15.0883C24.5 17.7264 23.6008 20.0069 22.0161 21.6256C20.4334 23.2423 18.1342 24.2324 15.2686 24.2324C9.50469 24.2324 5.5 19.8823 5.5 14.2324C5.5 8.55397 9.47492 4.23242 15.2686 4.23242C17.453 4.23242 19.4261 4.72422 20.8367 5.44068C21.5425 5.79916 22.0896 6.20478 22.4541 6.61592C22.8194 7.02795 22.9769 7.41603 22.9769 7.75573C22.9769 8.25744 22.8143 8.62707 22.583 8.86803C22.352 9.10881 22.0229 9.25267 21.6266 9.25267C20.934 9.25267 20.5018 8.97638 19.8494 8.55933C19.7152 8.47359 19.5718 8.38191 19.4149 8.28545C18.5072 7.72751 17.3355 7.17015 15.2686 7.17015C13.2471 7.17015 11.6988 8.02029 10.6685 9.35028C9.6491 10.666 9.15678 12.4221 9.15678 14.2324C9.15678 16.0524 9.63215 17.8096 10.6453 19.1244C11.6705 20.4548 13.2207 21.2956 15.2686 21.2956C16.5264 21.2956 17.9077 20.9624 18.9883 20.163C20.0884 19.3492 20.8442 18.0736 20.8442 16.2873V15.7873H20.3442H17.2981C16.8005 15.7873 16.4065 15.6206 16.1401 15.366C15.8753 15.1129 15.7089 14.747 15.7089 14.2904C15.7089 13.4261 16.3786 12.8505 17.2981 12.8505H22.3727H22.5106Z" stroke="#007BFF"/>
</svg>
