<svg width="61" height="196" viewBox="0 0 61 196" fill="none" xmlns="http://www.w3.org/2000/svg">
<path d="M3.24409 71.8267C2.74474 70.3286 1.31787 60.7563 1.31787 54.9305C3.39851 53.8901 9.56916 53.9351 9.48602 54.9304C8.80818 63.0447 9.48602 70.5783 9.48602 72.4509C9.48602 73.949 9.90215 78.0686 10.1102 79.9412C10.7344 83.6864 14.105 91.1767 12.607 91.1767C10.7344 91.1767 10.1102 89.9283 9.48602 88.6799C8.86183 87.4315 3.86828 73.6993 3.24409 71.8267Z" fill="#F3CFA4"/>
<path d="M31.9566 28.1327C31.4572 28.6321 31.7485 31.2537 31.9566 32.5021C32.9969 34.7908 34.9526 39.4931 34.4533 39.9924C33.9539 40.4918 23.2178 43.7376 20.721 38.1198C20.9291 36.6634 21.4701 33.6256 21.9694 33.1263C22.4688 32.6269 20.513 27.5086 19.4727 25.0118L24.4662 3.16504C28.8355 5.03762 35.6482 11.8598 36.8966 14.9808C37.5522 16.62 36.9501 23.7634 36.9501 25.0118C36.9501 26.2602 32.5807 27.5086 31.9566 28.1327Z" fill="#EECDA7"/>
<path d="M14.4791 187.302L15.1033 181.684L20.0425 177.475L22.5846 187.451L19.0916 188.628L14.4791 187.302Z" fill="#CDCDCD"/>
<path d="M31.1372 185.564C27.3387 185.963 22.3837 185.26 22.4415 184.638C21.2345 184.135 22.3837 185.259 20.4034 186.329C18.4232 187.398 15.3735 186.487 14.752 186.43C14.1305 186.372 13.7833 190.101 14.2891 191.402C14.7949 192.702 18.5818 192.428 19.2033 192.486C19.8248 192.544 19.2611 191.865 19.9405 191.301C20.6199 190.737 20.6041 192.648 28.2936 190.857C33.4199 189.662 34.3026 185.232 31.1372 185.564Z" fill="#033A76"/>
<path d="M27.5874 28.7565C29.5849 28.2571 28.8358 20.0181 30.0842 18.7694C31.9567 14.4003 37.5745 15.0245 37.5745 6.28582C37.5745 3.78904 30.0842 0.667804 21.3455 0.0436117C12.6067 -0.580581 13.231 5.66135 11.3584 8.15812C9.48586 10.6549 10.1101 16.8968 11.9826 21.8904C13.8552 26.8839 17.6004 28.7565 18.8488 30.0049C20.0971 31.2532 23.8423 32.5016 23.8423 31.2532C23.8423 30.0049 25.0907 29.3807 27.5874 28.7565Z" fill="#463A2B"/>
<path d="M30.5094 189.082L31.1095 180.989L36.9427 178.292L38.5555 190.304L30.5094 189.082Z" fill="#CDCDCD"/>
<path d="M47.0131 186.017C43.2228 186.487 38.2556 185.901 38.3018 185.278C37.0855 184.798 38.2556 185.9 36.2958 187.007C34.3361 188.113 31.2698 187.26 30.6473 187.214C30.0248 187.168 29.6555 192.148 30.1857 193.439C30.7158 194.73 34.4969 194.384 35.1194 194.431C35.7419 194.477 35.1656 193.808 35.8342 193.232C36.5028 192.655 37.0295 194.039 44.684 192.103C49.787 190.813 50.1717 185.625 47.0131 186.017Z" fill="#034892"/>
<path d="M13.8545 162.957C13.8546 125.506 7.61267 104.907 9.48519 93.6713C21.5529 93.2552 45.6884 93.0471 45.6884 95.5439C45.6884 98.6648 44.44 131.123 44.44 136.117C44.44 141.11 39.4464 183.556 38.1981 184.804C36.9497 186.052 30.2396 186.052 30.0836 184.804C29.4594 179.811 31.3319 151.721 31.3319 149.224C31.3319 146.728 29.4594 116.767 28.8352 113.646C28.5856 112.398 28.211 113.646 28.211 115.519C28.211 117.391 27.5868 141.11 26.9626 142.983C26.3384 144.856 21.969 182.931 21.969 184.18C21.969 185.428 14.0464 185.475 13.8545 184.804C12.6062 180.435 13.8545 166.702 13.8545 162.957Z" fill="#0076F4"/>
<path d="M31.9565 96.7937C36.95 96.7937 43.4 96.1692 46.9371 94.2966C48.8097 94.2966 40.6952 50.6031 41.3194 48.1063C47.4255 43.8746 53.9334 39.3015 53.6307 38.9988C51.4146 36.7827 48.312 33.6799 46.5391 31.021C46.3526 30.7413 43.8797 31.4638 40.7771 32.3503C39.3607 32.755 34.3306 33.0819 33.1514 33.706C31.5907 34.532 29.4062 35.5786 26.9095 35.5786C24.912 35.5786 20.721 34.5824 18.8484 32.5019C16.3517 31.8777 8.18367 36.2031 5.6869 37.4515C3.19013 38.6999 -0.555113 56.1764 0.0690792 56.8006C0.683546 57.415 6.74212 57.4213 9.9081 57.4246L10.0562 57.4248C10.6803 57.4254 10.0561 55.5529 11.3581 51.2277C11.3581 55.597 10.7339 63.0869 9.48556 69.3289C8.62866 73.6134 7.61299 89.9276 7.61299 92.4244C7.61299 94.9212 25.7146 96.7937 31.9565 96.7937Z" fill="url(#paint0_linear)"/>
<path d="M34.9988 15.5995C36.5963 15.5995 46.7578 24.5024 51.6388 28.9538C51.6388 28.9538 46.7858 31.6713 46.982 31.9066C49.1981 34.566 52.3894 38.1119 52.7439 38.1119C54.9601 35.8957 54.6893 36.5323 58.9491 32.7931C61.6085 30.4587 60.5103 27.2786 59.8447 25.9432C59.1791 24.6077 55.4033 21.4957 52.3007 19.9395C49.1981 18.3832 42.1064 13.0797 37.6612 11.5931C33.6676 10.2575 32.3364 7.58687 30.3396 6.91916C28.3428 6.25144 26.346 6.91916 23.018 7.58687C19.69 8.25459 21.6868 12.2609 24.3492 12.9286C27.0116 13.5963 29.7251 13.7239 29.0084 15.5995C28.3663 17.2801 33.002 15.5995 34.9988 15.5995Z" fill="#F3CFA4"/>
<defs>
<linearGradient id="paint0_linear" x1="9.68516" y1="64.6083" x2="53.6409" y2="64.6205" gradientUnits="userSpaceOnUse">
<stop stop-color="#68B1FF"/>
<stop offset="1" stop-color="#007BFF"/>
</linearGradient>
</defs>
</svg>
