<svg width="76" height="239" viewBox="0 0 76 239" fill="none" xmlns="http://www.w3.org/2000/svg">
<path d="M74.3682 231.605L73.7504 226.044L68.8608 221.877L66.3442 231.753L69.8022 232.918L74.3682 231.605Z" fill="#CDCDCD"/>
<path d="M57.8781 229.887C61.6384 230.281 66.5437 229.585 66.4864 228.97C67.6813 228.472 66.5437 229.585 68.504 230.643C70.4644 231.702 73.4834 230.8 74.0986 230.743C74.7139 230.686 75.0576 234.377 74.5569 235.665C74.0562 236.953 70.3074 236.681 69.6921 236.739C69.0769 236.796 69.6348 236.123 68.9623 235.566C68.2897 235.008 68.3054 236.899 60.6931 235.126C55.6183 233.943 54.7445 229.558 57.8781 229.887Z" fill="#033A76"/>
<path d="M19.9026 178.182L19.2627 169.554L13.0434 166.678L11.3238 179.485L19.9026 178.182Z" fill="#CDCDCD"/>
<path d="M2.30599 174.915C6.34718 175.416 11.6432 174.79 11.5939 174.127C12.8907 173.615 11.6432 173.845 13.7327 175.025C15.8222 176.204 19.0914 175.295 19.7551 175.245C20.4188 175.196 20.8125 180.506 20.2473 181.882C19.682 183.259 15.6507 182.89 14.987 182.94C14.3233 182.989 14.9378 182.276 14.2249 181.662C13.5119 181.047 12.9504 183.468 4.78925 181.404C-0.651505 180.028 -1.06167 174.497 2.30599 174.915Z" fill="#034892"/>
<path d="M15.5568 116.73C18.8515 110.331 36.3135 110.758 38.2904 110.758C39.169 110.758 41.7828 111.27 45.2093 113.317C49.4924 115.877 65.966 109.478 67.9429 113.317C69.9197 117.156 70.9081 181.142 70.9081 186.687C70.9081 191.124 75.5206 229.555 74.7501 229.812C73.5942 230.197 68.5852 230.197 67.4293 229.041C66.0314 227.644 61.6829 197.352 59.3766 190.953C57.0703 184.554 54.097 136.971 51.7987 136.779C35.4486 135.412 28.8928 132.935 26.5865 134.641C24.2802 136.347 23.0575 174.287 20.4217 174.713C18.3131 175.054 13.3726 174.635 11.9449 172.787C11.6154 157.003 12.921 121.849 15.5568 116.73Z" fill="#0076F4"/>
<path d="M28.5132 51.4139C26.2536 46.5462 20.118 36.4266 19.8167 35.314C19.4401 33.9232 14.5445 19.3201 14.5445 18.2771C14.5445 17.234 14.6072 9.45293 13.1009 9.80062C12.8052 9.86886 12.6667 9.99573 12.6265 10.1556C12.6363 8.73212 12.5682 7.07786 10.789 7.48853C7.77629 8.18391 4.60262 10.1256 5.12969 12.0185C6.55063 17.1215 8.8956 17.5814 8.8956 18.9722C8.8956 20.3629 12.5066 35.5625 13.0381 37.0522C15.4127 43.7077 20.8245 58.387 21.5776 58.7347C22.1802 59.0129 27.0068 53.6158 28.5132 51.4139Z" fill="#F3CFA4"/>
<path d="M65.4406 50.149C63.4742 42.4347 58.6993 30.799 57.7568 29.0648C53.3107 20.8835 44.8568 10.6702 43.2098 9.24218C42.2893 8.44396 41.0682 1.90219 38.3505 1.70967C35.6327 1.51714 33.5221 4.7612 34.4531 5.61734C34.9947 6.11539 35.3897 6.46172 35.6706 6.69617C35.5849 6.67331 35.5065 6.67512 35.449 6.71825C33.9078 7.87417 37.0879 10.0652 38.3505 11.5203C39.3606 12.6844 42.5042 17.4048 43.9497 19.6194C45.6055 22.9779 48.1049 26.9716 48.8076 28.1577C49.6004 29.496 57.0351 48.9337 57.8077 51.3289C57.7836 51.3676 57.7831 51.4128 57.8087 51.4657C57.8968 51.6472 57.8909 51.587 57.8077 51.3289C58.162 50.7591 63.6152 51.6056 65.4406 50.149Z" fill="#F3CFA4"/>
<path d="M47.0077 115.761C43.1062 114.991 37.4555 113.027 33.6214 111.266C33.6214 110.367 34.7749 82.7849 31.6988 75.4685C29.3917 70.8131 21.534 57.5101 19.3944 57.5101C18.116 57.5101 26.7002 49.5286 29.3918 49.8609C29.7537 49.9056 31.7048 51.4408 33.6214 53.852C37.851 59.173 42.9462 57.2375 43.5399 57.5101C45.2316 58.287 46.2278 58.7354 48.9342 58.7354C51.0993 58.7354 54.6105 58.3803 56.6404 56.4235C58.9522 53.852 56.6895 53.7462 55.4844 50.2591C54.6997 47.9882 63.5624 45.4294 65.8696 46.427C66.7269 46.7977 68.2276 56.8451 67.4585 61.1684C66.743 65.1901 65.1513 68.4848 64.375 72.519C64.375 76.6285 65.6326 83.5688 66.4048 89.5439C68.1996 103.432 68.9702 114.569 68.9702 116.917C68.9702 119.266 53.6456 117.072 47.0077 115.761Z" fill="url(#paint0_linear)"/>
<path d="M44.4152 51.3921C44.9923 51.6899 45.757 54.0393 45.6069 55.2041C45.3125 57.488 42.9625 57.2821 43.5396 57.5799C44.1167 57.8777 50.09 60.6619 55.8695 57.1946C59.7228 54.8829 57.4108 52.7444 55.8694 50.047C55.5472 49.4831 54.349 47.6888 54.5866 45.2234L44.2191 27.5416C40.8719 30.3814 36.7174 38.2138 36.4663 41.2813C36.3345 42.8924 38.8145 48.9584 39.155 50.0475C39.4954 51.1367 43.6938 51.0198 44.4152 51.3921Z" fill="#F3CFA4"/>
<path d="M48.6101 50.9735C46.7127 51.0786 45.0788 43.5363 43.6321 42.7681C40.7674 39.3932 35.9954 41.4951 33.563 33.7141C32.868 31.4909 38.5934 26.6503 46.1131 23.6894C53.6327 20.7286 54.8206 26.4583 57.1641 28.1661C59.5077 29.8738 60.6956 35.6035 60.437 40.5651C60.1784 45.5268 57.4025 48.2249 56.651 49.68C55.8994 51.1352 52.9498 53.2775 52.6023 52.1659C52.2548 51.0544 50.982 50.8422 48.6101 50.9735Z" fill="#463A2B"/>
<defs>
<linearGradient id="paint0_linear" x1="59.9958" y1="82.8768" x2="19.2655" y2="82.8864" gradientUnits="userSpaceOnUse">
<stop stop-color="#68B1FF"/>
<stop offset="1" stop-color="#007BFF"/>
</linearGradient>
</defs>
</svg>
