<svg width="105" height="179" viewBox="0 0 105 179" fill="none" xmlns="http://www.w3.org/2000/svg">
<path d="M83.9449 14.4513C85.2775 16.0805 80.8358 29.5328 70.1761 40.9469C66.0307 34.9685 62.0918 30.1849 65.2898 29.5328C69.2873 28.7175 76.039 16.8956 74.1735 15.6727C72.8411 14.8561 58.4602 10.3728 56.6836 9.96572C54.907 9.55867 51.5219 9.5581 49.7453 9.96572C47.9687 10.3733 50.1893 9.14941 50.1893 8.33416C50.1893 7.51891 46.192 8.74178 43.9712 8.74178C41.7505 8.74178 40.4179 4.66581 43.527 3.4428C46.636 2.21978 55.5193 6.29548 57.7399 6.29548C59.5165 6.62125 81.6786 11.6805 83.9449 14.4513Z" fill="#F3CFA4"/>
<path d="M14.368 81.2777C14.476 80.0385 16.0063 61.5148 17.2222 57.7903L26.4425 58.4672C26.0149 61.2073 24.4978 66.8926 24.2457 69.7842C23.9307 73.3986 20.6661 84.2067 19.9234 86.2308C19.1808 88.2549 13.866 99.9449 13.2583 100.42C12.6507 100.895 11.8419 102.789 10.7393 103.353C8.96144 104.262 6.92807 103.985 8.48736 103.188C10.2652 102.279 10.3117 101.763 9.70409 102.238C9.28526 102.565 8.58859 103.173 6.19364 103.539C3.8979 103.89 2.65825 103.799 1.08462 103.683C-1.16558 103.518 0.702173 101.577 2.43488 101.184C5.22901 100.551 8.56223 99.4925 8.84897 99.0569C9.5016 98.0656 14.233 82.8268 14.368 81.2777Z" fill="#F3CFA4"/>
<path d="M40.3194 26.4213C42.0023 30.5398 41.2543 35.7759 40.3194 36.8055C43.685 39.5511 48.6126 40.683 49.0291 40.8364C58.1838 44.2087 54.8642 34.4257 53.7423 34.4257C52.6204 34.4257 49.0291 30.5398 51.8338 26.4211C52.7739 25.0406 39.9255 25.4573 40.3194 26.4213Z" fill="#E6C49B"/>
<path d="M54.9291 20.756C54.7378 18.469 53.4854 13.3908 52.1589 9.90185C51.8222 10.2054 50.8657 11.1379 49.7331 12.4398C48.3173 14.0673 39.3718 13.768 37.5581 14.3488C36.1072 14.8134 37.8795 17.5725 37.9407 18.9227C37.6066 18.6384 36.3291 19.3214 34.719 19.3673C32.7064 19.4247 34.4971 24.1349 35.6985 25.5113C36.4098 26.3262 36.2066 27.9268 36.1087 28.369C36.1017 28.354 36.0951 28.3382 36.0888 28.3217C36.0529 28.5366 36.0743 28.5243 36.1087 28.369C36.3235 28.8281 36.8726 28.5997 37.4892 30.2215C38.285 32.3149 41.259 32.3118 44.1163 33.383C45.5847 33.9334 52.9396 32.1993 54.3553 30.5718C55.771 28.9444 55.0964 22.7559 54.9291 20.756Z" fill="#F3CFA4"/>
<path d="M42.7153 3.34372C44.9002 3.59914 50.6948 3.74417 52.7292 9.09222C53.7409 11.7517 54.8724 14.208 54.1708 14.5986C53.4695 14.9891 51.2949 16.5991 49.72 16.6207C47.7728 16.6473 41.4655 15.9215 40.9092 17.8904C40.0094 21.0748 37.6558 21.9174 37.6727 23.1058C37.6643 22.5116 37.4451 20.7911 35.9025 21.8819C35.1552 22.4104 36.3324 24.7287 37.7232 26.671C38.2002 27.3372 38.8865 26.2985 38.4819 25.2343C39.0213 26.6533 39.6738 27.322 39.9975 28.1734C40.4021 29.2377 40.7034 30.4449 40.869 31.2276C41.055 32.1066 42.2598 34.7373 41.6264 34.8074C41.4062 34.8318 40.5751 32.6842 38.9993 32.7024C36.5935 32.7303 33.475 29.2254 31.3003 26.9373C29.1256 24.6491 28.341 24.3018 27.102 19.3264C25.8629 14.3511 28.4934 7.54103 32.9441 5.51898C37.3948 3.49693 39.9842 3.02445 42.7153 3.34372Z" fill="#463A2B"/>
<path d="M76.7388 156.713C78.1513 155.873 80.5732 153.525 80.5732 153.525L85.1778 151.006C84.0149 152.515 84.7547 156.743 82.0686 159.566C80.8516 160.845 75.3263 157.552 76.7388 156.713Z" fill="#CDCDCD"/>
<path d="M44.6479 164.918C45.3996 162.537 47.2452 159.621 47.5246 158.344L54.297 158.344C53.6926 160.004 51.9968 163.068 50.6033 165.301C49.7994 166.59 46.1318 165.302 44.6479 164.918Z" fill="#CDCDCD"/>
<path d="M85.4036 165.106C84.8302 164.35 83.3959 161.271 82.0687 159.567C81.0428 160.273 77.627 158.344 76.7388 156.714C76.2947 157.121 73.3703 160.259 73.4271 160.677C73.5514 161.591 74.7609 162.748 74.9824 162.819C75.2039 162.891 75.6981 162.505 75.6981 162.505C75.6981 162.505 75.6666 164.133 78.9619 167.931C82.8697 172.435 87.8908 171.957 89.3927 170.716C90.3855 169.896 87.8236 168.295 85.4036 165.106Z" fill="#034892"/>
<path d="M54.5012 171.646C53.9219 170.894 51.9575 166.642 50.9271 164.773C49.7964 165.328 46.6363 164.773 45.3037 163.234C45.0387 163.688 43.5401 166.073 43.5272 166.495C43.499 167.415 44.3397 167.885 44.5169 167.972C44.6941 168.059 45.2557 167.707 45.2557 167.707C45.2557 167.707 44.7535 169.528 47.2625 172.592C51.0308 177.195 54.5343 177.607 56.5457 177.428C60.1207 177.109 57.5711 175.631 54.5012 171.646Z" fill="#034892"/>
<path d="M104.764 110.651C102.988 98.4227 73.2856 87.0092 70.6207 86.6016L54.187 91.4931L67.9558 107.798C75.8025 109.157 83.445 112.2 85.2216 113.505C87.4423 115.135 80.6337 143.544 76.7388 154.267C75.9985 156.305 81.6245 159.974 83.8452 158.751C86.066 157.528 106.541 122.88 104.764 110.651Z" fill="#0774E8"/>
<path d="M61.2932 89.8625C59.872 90.5147 45.3037 94.2105 38.1973 95.9769C38.1973 100.868 56.3514 111.874 59.0163 112.689C61.6812 113.505 45.7479 157.528 44.8596 160.789C44.3515 162.654 51.5894 164.929 52.4102 164.05C55.0751 161.197 84.333 118.396 83.0006 111.874C81.6681 105.352 63.0699 89.0472 61.2932 89.8625Z" fill="#0076F4"/>
<path d="M65.9113 50.6155C66.1785 62.1416 70.4068 75.286 71.0643 87.0067C64.3582 90.708 40.5637 95.666 38.1968 95.9744C35.8299 96.2829 34.9628 88.1627 34.1994 84.9686C31.2308 72.5477 31.7249 63.9468 29.7579 62.1416C28.8696 61.3264 26.26 61.4074 25.8655 63.7721C25.4439 66.299 17.1929 59.2132 16.8774 58.473C15.8348 56.0272 23.9841 45.429 25.8655 43.3909C27.7469 41.3528 39.284 35.7452 40.8619 36.0536C42.4398 36.3621 46.7759 39.7223 51.5216 39.7223C56.2672 39.7223 52.5589 33.8063 53.7423 34.4231C54.9258 35.04 55.9631 35.646 57.2956 36.0536C59.2621 36.6552 63.8116 29.124 66.1785 29.124C68.5453 29.124 73.2804 41.9588 72.886 42.5756C72.4915 43.1925 65.847 47.8402 65.9113 50.6155Z" fill="url(#paint0_linear)"/>
<defs>
<linearGradient id="paint0_linear" x1="26.9191" y1="63.2964" x2="72.9092" y2="63.3095" gradientUnits="userSpaceOnUse">
<stop stop-color="#68B1FF"/>
<stop offset="1" stop-color="#007BFF"/>
</linearGradient>
</defs>
</svg>
