<svg width="29" height="28" viewBox="0 0 29 28" fill="none" xmlns="http://www.w3.org/2000/svg">
<path d="M24.1429 0.569336H5.82143C1.00001 0.569336 1 0.569424 1 5.36915V21.273C1 26.5693 1.00001 26.5693 5.82143 26.5693H23.1786C28 26.5693 28 26.5693 28 22.2359L28 14.3246V5.36921C28 0.569014 28 0.569336 24.1429 0.569336Z" stroke="#F9F9F9" stroke-miterlimit="10"/>
<path d="M14.4998 19.5794C18.0992 19.5794 21.0171 16.7269 21.0171 13.2081C21.0171 9.68941 18.0992 6.83691 14.4998 6.83691C10.9003 6.83691 7.98242 9.68941 7.98242 13.2081C7.98242 16.7269 10.9003 19.5794 14.4998 19.5794Z" stroke="#F9F9F9" stroke-miterlimit="10"/>
<path d="M23.3104 5.47249C23.3104 5.93875 22.9202 6.33659 22.414 6.33659C21.9078 6.33659 21.5176 5.93875 21.5176 5.47249C21.5176 5.00624 21.9078 4.6084 22.414 4.6084C22.9202 4.6084 23.3104 5.00624 23.3104 5.47249Z" stroke="#F9F9F9"/>
</svg>
