<svg width="16" height="13" viewBox="0 0 16 13" fill="none" xmlns="http://www.w3.org/2000/svg">
<path d="M1.74201 5.29197C1.37173 4.88221 0.739369 4.8502 0.329603 5.22048C-0.080164 5.59076 -0.112171 6.22312 0.258112 6.63289L1.74201 5.29197ZM5.50006 10.9423L6.4031 10.5127L6.3402 10.3805L6.24201 10.2718L5.50006 10.9423ZM5.83821 11.3775L6.44471 10.5824L6.44471 10.5824L5.83821 11.3775ZM6.71458 11.3775L6.10809 10.5824L6.10808 10.5824L6.71458 11.3775ZM7.05273 10.9423L6.2544 10.34L6.19328 10.4211L6.14969 10.5127L7.05273 10.9423ZM15.3511 1.60222C15.6837 1.16132 15.5959 0.534271 15.155 0.201672C14.7141 -0.130926 14.087 -0.0431273 13.7544 0.397777L15.3511 1.60222ZM0.258112 6.63289L4.75811 11.6127L6.24201 10.2718L1.74201 5.29197L0.258112 6.63289ZM4.59702 11.3718C4.73939 11.6711 4.94808 11.9562 5.23172 12.1725L6.44471 10.5824C6.4522 10.5881 6.44972 10.5878 6.44067 10.5761C6.43167 10.5646 6.41803 10.5441 6.4031 10.5127L4.59702 11.3718ZM5.23172 12.1725C5.52021 12.3926 5.87963 12.5345 6.2764 12.5345V10.5345C6.36791 10.5345 6.42663 10.5686 6.44471 10.5824L5.23172 12.1725ZM6.2764 12.5345C6.67316 12.5345 7.03259 12.3926 7.32108 12.1725L6.10808 10.5824C6.12616 10.5686 6.18488 10.5345 6.2764 10.5345V12.5345ZM7.32107 12.1725C7.60471 11.9562 7.8134 11.6711 7.95577 11.3718L6.14969 10.5127C6.13477 10.5441 6.12112 10.5646 6.11213 10.5761C6.10308 10.5878 6.10059 10.5881 6.10809 10.5824L7.32107 12.1725ZM7.85106 11.5445L15.3511 1.60222L13.7544 0.397777L6.2544 10.34L7.85106 11.5445Z" fill="#007BFF"/>
</svg>
