<svg width="29" height="29" viewBox="0 0 29 29" fill="none" xmlns="http://www.w3.org/2000/svg">
<path d="M0 4.1084V5.21572V23.7844V24.8917H29V23.7844V5.21572V4.1084H0ZM17.7021 14.7727L15.0698 17.4175C14.7499 17.7147 14.2491 17.7142 13.9427 17.43L11.2974 14.7727L11.3206 14.7499L1.76272 5.07507H27.2436L17.6789 14.7504L17.7021 14.7727ZM9.91993 14.7577L0.966667 23.3716V5.76285L9.91993 14.7577ZM10.6014 15.4426L13.2709 18.1246C13.6136 18.4441 14.0534 18.6045 14.4952 18.6045C14.9413 18.6045 15.3893 18.4407 15.7426 18.1115L18.3991 15.4426L27.2136 23.9251H1.78157L10.6014 15.4426ZM19.0806 14.7582L28.0333 5.76237V23.3716L19.0806 14.7582Z" fill="#007BFF"/>
</svg>
