<svg width="60" height="60" viewBox="0 0 60 60" fill="none" xmlns="http://www.w3.org/2000/svg">
<circle cx="30" cy="30" r="29.5" stroke="#F9F9F9"/>
<path d="M17.5 22.0003L12.4117 23.018C11.0094 23.2984 10 24.5297 10 25.9597V44.0003C10 45.6572 11.3431 47.0003 13 47.0003H46.8333C48.4902 47.0003 49.8333 45.6572 49.8333 44.0003V25.9217C49.8333 24.5089 48.8475 23.2875 47.4665 22.9893L42.5 21.917" stroke="#F9F9F9"/>
<path d="M42.5 22L39.5944 14.8681C39.1342 13.7385 38.0359 13 36.8161 13H23.1839C21.9641 13 20.8658 13.7385 20.4056 14.8681L17.5 22" stroke="#F9F9F9" stroke-linecap="round"/>
<circle cx="30" cy="32" r="9" stroke="#F9F9F9"/>
<path d="M30.1653 27.5826C29.3042 27.4715 27.3653 27.5993 26.4986 28.9993C25.6319 30.3993 25.5819 31.7493 25.6653 32.2493" stroke="#F9F9F9" stroke-linecap="round"/>
</svg>
