<svg width="911" height="629" viewBox="0 0 911 629" fill="none" xmlns="http://www.w3.org/2000/svg">
<path d="M689.765 339.917C688.565 391.52 821.265 422.687 974.765 394.145L982.5 570.531C975.333 570.912 923.429 583.146 789.5 557.973C625.5 527.148 532.562 447.245 534 356.954C536 231.371 760.5 224.609 760.5 176.089C760.5 117.293 481.5 68.7727 509 200.063C535.916 328.567 336.5 370.171 260 370.171C183.5 370.171 59.5 352.475 56.4095 271.988C51.9381 155.539 339.381 166.044 335.409 116.151C328.5 29.3561 125 85.5 0.5 89.5L6.5 60.6375C67.5 60.6375 182 33.9229 250 33.9229C341.5 33.9229 403.5 61.922 403.5 117.293C403.5 185.222 167 177.228 168.5 245.158C169.9 308.541 349.5 318.795 403.5 253.721C425.39 227.343 403.5 192.072 420 146.405C436.5 100.739 516 74.4808 637.5 76.1933C759 77.9058 861.45 120.619 861 186.835C860.488 262.184 691.225 277.125 689.765 339.917Z" fill="url(#paint0_linear)"/>
<path d="M24 79.9996C310.5 19.5 369.5 65.1959 369.5 115.999C369.5 173.652 99.7122 168.413 103 254.038C104.534 293.996 167.315 340.921 252.5 332.242C471 309.98 455.5 271.685 455.5 163.76C455.5 55.8345 804.5 84.9352 804.5 180.834C804.5 261.334 607.5 245.219 607.5 338.835C607.5 405.622 695.05 448.873 791 480.835C874.5 508.649 988.333 475.901 995.5 475.52" stroke="#F9F9F9" stroke-dasharray="50 50"/>
<path d="M753.79 392.851C755.281 392.517 758.027 387.008 758.373 383.603L766.358 388.664C764.165 394.31 759.3 405.554 757.377 405.358C754.973 405.114 726.687 390.706 725.964 391.846C725.241 392.987 715.27 389.546 711.908 386.776C708.547 384.006 712.162 378.302 713.303 379.025C714.443 379.748 720.81 382.823 721.472 382.283C722.134 381.743 718.955 377.171 720.758 377.354C724.078 377.691 726.096 384.574 727.837 385.358C729.579 386.142 751.926 393.269 753.79 392.851Z" fill="#F3CFA4"/>
<path d="M824.658 379.756C824.439 377.568 819.729 369.659 815.998 366.53L805.686 372.647C807.615 374.428 812.933 378.743 811.639 380.474C810.344 382.204 805.598 388.999 803.763 390.1L799.403 404.043C808.543 396.487 825.008 383.256 824.658 379.756Z" fill="#F3CFA4"/>
<path d="M849.469 477.706L842.908 479.332L838.697 485.851L850.925 487.291L851.769 482.964L849.469 477.706Z" fill="#CDCDCD"/>
<path d="M850.04 497.725C849.913 493.159 848.297 487.396 847.57 487.562C846.784 486.211 848.297 487.396 849.253 484.88C850.208 482.363 848.647 478.892 848.48 478.164C848.314 477.437 852.679 476.437 854.301 476.831C855.923 477.225 856.196 481.758 856.362 482.485C856.529 483.213 855.635 482.652 855.074 483.546C854.513 484.441 856.776 484.12 855.865 493.519C855.258 499.784 850.146 501.529 850.04 497.725Z" fill="#033A76"/>
<path d="M814.197 467.593C813.493 456.589 812.225 421.256 809.098 422.152C802.72 427.171 789.323 438.717 789.413 442.612C789.526 447.48 797.671 476.368 801.915 480.917C806.295 485.612 845.287 487.778 846.224 487.015C847.547 485.935 849.003 477.583 848.463 476.921C847.923 476.259 814.431 471.261 814.197 467.593Z" fill="#006CE0"/>
<path d="M766.283 527.058L768.649 516.877L762.512 511.324L755.921 525.474L766.283 527.058Z" fill="#CDCDCD"/>
<path d="M758.521 519.618C758.521 519.617 758.522 519.616 758.522 519.615C758.521 519.616 758.521 519.617 758.521 519.618C758.324 520.395 751.64 518.988 747.166 516.959C743.432 515.266 741.915 521.791 747.695 525.336C756.364 530.652 757.882 528.063 758.483 529.028C759.084 529.993 758.119 530.594 758.902 530.776C759.685 530.958 764.202 532.833 765.349 531.449C766.496 530.065 767.952 523.8 767.169 523.618C766.386 523.436 762.471 523.121 760.303 521.197C758.686 519.761 758.517 519.654 758.521 519.618Z" fill="#034892"/>
<path d="M758.188 463.118C758.384 461.195 766.517 440.893 770.559 430.983L804.301 415.589C806.243 416.393 810.149 418.976 810.24 422.871C810.352 427.739 776.573 467.414 775.066 470.297C773.559 473.179 769.399 520.113 768.554 522.456C767.709 524.798 759.061 520.277 758.582 519.014C758.103 517.751 757.944 465.522 758.188 463.118Z" fill="#0076F4"/>
<path d="M789.971 431.133C785.267 432.104 774.351 433.507 769.958 430.922C769.109 397.443 770.015 394.499 769.371 382.899C768.883 387.707 767.498 389.387 765.869 393.472C765.636 394.055 756.796 385.442 757.893 382.34C759.262 378.469 761.57 370.353 762.546 366.42C763.575 362.275 764.368 354.462 770.02 352.608C783.058 355.753 785.445 348.23 785.946 348.525C787.884 349.665 791.894 349.973 795.146 350.304C797.749 350.568 800.494 351.454 804.517 353.684C812.564 358.144 817.901 365.365 819.46 367.951C819.772 368.469 812.475 376.956 810.967 379.839C810.341 381.035 805.118 372.976 804.968 373.158C804.275 373.998 805.828 384.924 806.681 392.152C808.639 408.744 810.108 418.185 809.821 421.007C809.534 423.829 803.755 428.289 789.971 431.133Z" fill="url(#paint1_linear)"/>
<path d="M770.899 345.17C771.556 345.599 772.189 348.516 771.866 349.897C771.234 352.606 768.701 352.719 769.358 353.148C770.016 353.576 776.588 357.004 783.957 353.542C788.871 351.234 786.353 348.382 784.83 344.952C784.511 344.235 783.29 341.932 783.877 338.998L773.575 316.481C769.206 319.486 763.256 328.392 762.58 332.048C762.225 333.968 764.465 341.562 764.741 342.912C765.018 344.263 770.078 344.635 770.899 345.17Z" fill="#F3CFA4"/>
<path d="M775.992 345.18C773.699 345.075 772.656 335.81 771.011 334.71C767.98 330.305 761.988 332.248 760.015 322.6C759.451 319.843 766.923 314.724 776.322 312.083C785.721 309.443 786.449 316.474 789.057 318.813C791.666 321.151 792.394 328.183 791.477 334.114C790.561 340.046 786.895 342.95 785.814 344.607C784.733 346.264 780.927 348.479 780.645 347.1C780.363 345.722 778.859 345.312 775.992 345.18Z" fill="#463A2B"/>
<defs>
<linearGradient id="paint0_linear" x1="733.584" y1="335.703" x2="407.782" y2="560.963" gradientUnits="userSpaceOnUse">
<stop stop-color="#DEDEDE"/>
<stop offset="1" stop-color="#FCFCFC"/>
</linearGradient>
<linearGradient id="paint1_linear" x1="805.974" y1="393.924" x2="757.174" y2="388.979" gradientUnits="userSpaceOnUse">
<stop stop-color="#68B1FF"/>
<stop offset="1" stop-color="#007BFF"/>
</linearGradient>
</defs>
</svg>
