<svg width="29" height="28" viewBox="0 0 29 28" fill="none" xmlns="http://www.w3.org/2000/svg">
<path d="M21.7441 7.94117C21.5395 8.06006 21.4462 8.30611 21.5207 8.53074C21.5951 8.75537 21.8168 8.89707 22.0519 8.87027C22.3343 8.83808 22.6124 8.79288 22.8857 8.73547C22.6156 8.98582 22.3272 9.2175 22.0225 9.42851C21.8837 9.52464 21.8028 9.68433 21.8074 9.85311L21.8216 10.3761C21.8181 15.5439 17.7648 21.4928 10.3441 21.4928L10.3434 21.4928C8.83708 21.4949 7.35203 21.2064 5.96976 20.6508C7.5851 20.4641 9.127 19.8494 10.4269 18.8623C10.5968 18.7332 10.6661 18.5105 10.5994 18.3078C10.5327 18.1051 10.3447 17.9671 10.1314 17.9641C9.36033 17.9535 8.61249 17.7066 7.99166 17.2586C7.59359 16.9714 7.26054 16.6107 7.0091 16.1998C7.41702 16.1982 7.82434 16.1455 8.22115 16.0421C8.44746 15.9831 8.60266 15.7752 8.59479 15.5414C8.58692 15.3077 8.41808 15.1106 8.18831 15.067C7.35419 14.9087 6.603 14.4706 6.06188 13.8291C5.6838 13.381 5.42448 12.8528 5.30068 12.2914C5.7232 12.4257 6.16399 12.5014 6.61039 12.5152C6.83477 12.5221 7.03626 12.3787 7.10313 12.1644C7.17001 11.9501 7.08588 11.7175 6.89739 11.5956C5.90205 10.9518 5.25237 9.85137 5.25237 8.61615L5.25236 8.61545C5.25181 8.21916 5.31954 7.82721 5.45119 7.45586C6.46298 8.51731 7.65869 9.39498 8.98382 10.0467C10.5394 10.8117 12.2393 11.2486 13.9753 11.3299C14.1324 11.3372 14.2837 11.2703 14.384 11.1491C14.4842 11.0279 14.5216 10.8666 14.4849 10.7137C14.4224 10.4533 14.3899 10.1811 14.3899 9.90022C14.3899 7.93549 16.0357 6.31545 18.0986 6.31545L18.1001 6.31545C18.6073 6.31387 19.1094 6.41413 19.5756 6.60993C20.0418 6.80573 20.4621 7.09284 20.8112 7.45337C20.9283 7.57441 21.0986 7.6283 21.2641 7.59673C21.7293 7.50799 22.1858 7.38346 22.6297 7.22464C22.376 7.50506 22.0775 7.74746 21.7441 7.94117Z" stroke="#F9F9F9" stroke-linecap="round" stroke-linejoin="round"/>
<path d="M23.1786 1H4.85714C1 1 1 1.00015 1 5.33318L1 22.6667C1 27 1 27 5.91571 27H23.1786C28 27 28 27 28 22.6667V5.33321C28 1.00012 28 1 23.1786 1Z" stroke="#F9F9F9" stroke-miterlimit="10"/>
</svg>
