<svg width="28" height="28" viewBox="0 0 28 28" fill="none" xmlns="http://www.w3.org/2000/svg">
<path d="M20.7031 14.753L20.6123 14.8893C20.5568 14.9727 20.5258 15.0215 20.506 15.0588C20.5197 15.0831 20.5445 15.1213 20.5886 15.1772L20.5931 15.1829L20.5975 15.1887C20.6691 15.2851 20.8568 15.4658 21.1391 15.7318L21.1655 15.7568C21.42 15.9965 21.7206 16.2797 21.9658 16.5501L20.7031 14.753ZM20.7031 14.753C20.7036 14.7523 20.7041 14.7516 20.7046 14.7508C20.7364 14.7052 20.7736 14.6522 20.8165 14.5909C20.8645 14.5224 20.9198 14.4435 20.9831 14.3529C21.2177 14.017 21.5372 13.5549 21.8662 13.0558C22.1945 12.5578 22.5358 12.0174 22.8126 11.5252C23.0735 11.0615 23.3075 10.5886 23.3937 10.2248C23.4784 9.95794 23.5196 9.59054 23.2908 9.27682C23.0553 8.95406 22.6622 8.8646 22.2955 8.8646H20.2941C19.934 8.8646 19.6344 8.95526 19.3938 9.12948C19.1597 9.29894 19.0241 9.51708 18.9363 9.69435L18.9304 9.70622L18.9252 9.71824L18.9252 9.71828L18.9252 9.71833L18.9252 9.71838L18.9248 9.71915L18.923 9.72341L18.9148 9.74203C18.9074 9.75884 18.896 9.7843 18.8809 9.81762C18.8507 9.88425 18.8055 9.98221 18.7466 10.1051C18.6285 10.3511 18.4559 10.6958 18.2384 11.0886C17.8016 11.8774 17.1974 12.8353 16.5062 13.5777C16.3245 13.7574 16.1988 13.8691 16.1054 13.9388V10.0777C16.1054 9.79699 16.0687 9.46935 15.867 9.21335C15.6405 8.92566 15.3111 8.85114 15.0176 8.85114H11.8125C11.2428 8.85114 10.7947 9.26283 10.7947 9.80863C10.7947 10.0745 10.9054 10.2728 11.0058 10.4124C11.0537 10.479 11.1071 10.5426 11.15 10.5938L11.1553 10.6001C11.1995 10.6527 11.2383 10.699 11.2771 10.7498C11.4169 10.9326 11.5757 11.1951 11.6065 11.7331V14.6123C11.6065 14.666 11.6055 14.7131 11.6038 14.7544C11.548 14.7102 11.4827 14.6518 11.4085 14.5772C11.1707 14.338 10.8856 13.9765 10.5803 13.5131C9.97147 12.5888 9.31733 11.313 8.8265 9.9367L8.82651 9.9367L8.82539 9.93361C8.7226 9.65128 8.58979 9.35931 8.35091 9.15C8.08964 8.92107 7.77553 8.85114 7.44583 8.85114H5.38843C5.03172 8.85114 4.69686 8.93131 4.46348 9.17572C4.2313 9.41886 4.20263 9.71861 4.20263 9.90282C4.20263 10.1033 4.2621 10.416 4.36822 10.7915C4.47862 11.1821 4.65109 11.6802 4.90273 12.2664C5.40601 13.4387 6.22966 14.9718 7.51809 16.7105C9.27322 19.1416 11.8058 20.5079 14.1499 20.5079C14.8026 20.5079 15.3042 20.4409 15.6413 20.2183C16.0589 19.9425 16.1054 19.5258 16.1054 19.241V17.4783C16.1054 17.4043 16.108 17.3481 16.1118 17.3057C16.1198 17.3056 16.1283 17.3055 16.1373 17.3055C16.2256 17.3055 16.6308 17.342 17.8515 18.4476L20.7031 14.753ZM15.9273 14.0315C15.929 14.0315 15.9306 14.0315 15.9322 14.0316C15.9309 14.0316 15.9298 14.0316 15.9288 14.0316C15.9283 14.0315 15.9278 14.0315 15.9273 14.0315ZM5.00001 1.32031H23C24.2618 1.32031 25.1673 1.32098 25.8376 1.39254C26.5132 1.46467 26.8403 1.6005 27.0285 1.78142C27.2127 1.95846 27.351 2.26301 27.4252 2.90507C27.4992 3.54536 27.5 4.41194 27.5 5.62618V22.9259C27.5 24.14 27.4992 25.0064 27.425 25.6465C27.3506 26.2883 27.2121 26.5927 27.0273 26.7698C26.8382 26.951 26.5096 27.087 25.8318 27.1592C25.1595 27.2308 24.2512 27.2314 22.9859 27.2314H4.00002C2.9854 27.2314 2.27526 27.2304 1.75367 27.1608C1.23874 27.092 1.01542 26.9684 0.884305 26.8109C0.736987 26.6339 0.621205 26.3156 0.560386 25.6581C0.500525 25.0108 0.500006 24.1375 0.5 22.9259V5.62609C0.500002 4.41195 0.500805 3.54543 0.574822 2.90517C0.649043 2.26313 0.787284 1.95857 0.971489 1.78152C1.15974 1.60058 1.48683 1.46473 2.16248 1.39258C2.83271 1.321 3.73826 1.32031 5.00001 1.32031Z" stroke="#007BFF"/>
</svg>
