<svg width="27" height="28" viewBox="0 0 27 28" fill="none" xmlns="http://www.w3.org/2000/svg">
<path d="M7.23491 15.4497C5.99175 13.7689 5.19689 12.2866 4.71108 11.1528C4.46819 10.5859 4.30163 10.104 4.19495 9.72583C4.09255 9.36284 4.03467 9.05886 4.03467 8.86289C4.03467 8.68365 4.0624 8.38873 4.29082 8.14906C4.52066 7.9079 4.84953 7.82989 5.19598 7.82989H7.1799C7.50057 7.82989 7.80845 7.8981 8.06479 8.12315C8.29861 8.32841 8.42783 8.61401 8.52708 8.88714L8.5282 8.89022L8.52819 8.89023C9.00107 10.2188 9.63126 11.4502 10.2176 12.342C10.5117 12.7892 10.7858 13.1375 11.0141 13.3674C11.0731 13.4269 11.1261 13.4755 11.1728 13.5144C11.1736 13.4837 11.1741 13.4499 11.1741 13.4129V10.6316C11.1445 10.1157 10.9928 9.86527 10.8599 9.6911C10.8227 9.64235 10.7855 9.59794 10.7429 9.54706L10.7378 9.54102L10.7377 9.54083C10.6963 9.49144 10.6446 9.42962 10.598 9.36476C10.5001 9.2284 10.3913 9.03344 10.3913 8.77189C10.3913 8.23517 10.8315 7.82989 11.3907 7.82989H14.4813C14.7673 7.82989 15.0915 7.90276 15.3147 8.18666C15.5127 8.43861 15.5481 8.75992 15.5481 9.03189V12.7267C15.6338 12.6594 15.7467 12.5573 15.9035 12.4019C16.5686 11.6861 17.1503 10.7622 17.5712 10.0007C17.7807 9.62156 17.9471 9.28875 18.0608 9.05134C18.1176 8.93273 18.1611 8.83819 18.1902 8.77391C18.2047 8.74178 18.2156 8.71723 18.2228 8.70103L18.2306 8.68311L18.2324 8.67903L18.2327 8.67831L18.2328 8.67825L18.2328 8.67822L18.2328 8.67817L18.238 8.66617L18.2438 8.65431C18.329 8.4819 18.4613 8.26837 18.6903 8.10229C18.9259 7.93139 19.2188 7.84289 19.5693 7.84289H21.4992C21.8552 7.84289 22.2417 7.9299 22.4736 8.24848C22.6986 8.55752 22.6577 8.91834 22.5754 9.17822C22.4917 9.53217 22.265 9.99057 22.0137 10.4383C21.7465 10.9143 21.417 11.4368 21.1004 11.9181C20.7831 12.4004 20.4748 12.847 20.2486 13.1717C20.1874 13.2595 20.134 13.3358 20.0876 13.402C20.0464 13.461 20.0107 13.512 19.98 13.5561C19.9796 13.5567 19.9791 13.5574 19.9787 13.558L19.8913 13.6896C19.8415 13.7644 19.8126 13.8098 19.7938 13.844C19.8072 13.8667 19.8299 13.9007 19.8676 13.9485L19.8721 13.9542L19.8764 13.9601C19.9443 14.0516 20.1238 14.225 20.3967 14.4826L20.4224 14.5068C20.6677 14.7383 20.9581 15.0125 21.1951 15.2743L7.23491 15.4497ZM7.23491 15.4497C8.92988 17.8019 11.377 19.1259 13.6445 19.1259C14.2741 19.1259 14.7628 19.0614 15.0929 18.843C15.5031 18.5715 15.5481 18.1614 15.5481 17.8849V16.1819C15.5481 16.1193 15.55 16.0702 15.5529 16.0319C15.5555 16.0319 15.5582 16.0319 15.5609 16.0319C15.6384 16.0319 16.0245 16.0625 17.2014 17.1303C17.5168 17.4408 17.7681 17.7095 17.9814 17.9411C18.0169 17.9797 18.0519 18.0177 18.0862 18.0551C18.2545 18.2385 18.4077 18.4055 18.5481 18.5428C18.7191 18.7102 18.9003 18.8638 19.1123 18.9724C19.3346 19.0862 19.5671 19.1389 19.8257 19.1389H21.7961C22.1384 19.1389 22.5234 19.0594 22.7824 18.7678C23.0589 18.4563 23.0647 18.0526 22.9661 17.6987L22.963 17.6876L22.9594 17.6766C22.8434 17.3242 22.5919 16.9427 22.2982 16.5621C21.9968 16.1717 21.6144 15.7368 21.1951 15.2744L7.23491 15.4497ZM15.3585 12.8349C15.3604 12.8349 15.3624 12.8349 15.3643 12.8349C15.362 12.8351 15.3605 12.835 15.3594 12.8349C15.3591 12.8349 15.3587 12.8349 15.3585 12.8349ZM4.82143 0.587891H22.1786C23.3957 0.587891 24.2677 0.588561 24.9128 0.657562C25.5632 0.727135 25.8734 0.857803 26.0505 1.02833C26.2237 1.19516 26.3565 1.48456 26.428 2.1039C26.4992 2.72138 26.5 3.55751 26.5 4.73105V21.445C26.5 22.6153 26.4994 23.5193 26.427 24.2351C26.3544 24.9527 26.2151 25.406 25.9914 25.7133C25.7799 26.0038 25.4472 26.2253 24.8414 26.3734C24.2228 26.5247 23.3663 26.5879 22.165 26.5879H3.85716C2.90285 26.5879 2.24171 26.5245 1.7738 26.3811C1.32968 26.2449 1.08159 26.0441 0.914549 25.7565C0.73121 25.4407 0.617367 24.9725 0.558657 24.2452C0.500379 23.5232 0.500006 22.6134 0.5 21.445V4.73096C0.500002 3.55752 0.500802 2.72144 0.572044 2.104C0.643501 1.48468 0.776259 1.19527 0.949514 1.02843C1.12661 0.857879 1.43685 0.727194 2.08724 0.657601C2.7323 0.588579 3.60431 0.587891 4.82143 0.587891Z" stroke="#F9F9F9"/>
</svg>
