<svg width="60" height="60" fill="none" xmlns="http://www.w3.org/2000/svg"><circle cx="30" cy="30" r="29.5" stroke="#007BFF"/><path d="M7 48c3.597-1.505 10.904-4.628 11.358-5.08.568-.564 4.543-3.387 4.543-3.951 0-.452-1.514-4.327-2.271-6.209-1.136.565-2.386-2.145-2.84-3.95-.568-2.259 0-2.823.568-2.823s-.568-4.515-.568-8.467c0-2.878 2.84-7.902 10.79-8.466 7.95-.565 13.062 3.387 13.062 8.466 0 3.387-1.136 8.467-.568 8.467s1.136 1.693.568 2.822c-.568 1.13-2.272 4.515-2.84 3.951-.454-.451-1.556 3.951-2.05 6.209 1.441 1.129 4.436 3.5 4.89 3.951.454.452 7.761 3.575 11.358 5.08" stroke="#007BFF"/></svg>