<svg width="280" height="460" fill="none" xmlns="http://www.w3.org/2000/svg"><path d="M0 380h158.755L209 386.5l22 9.5 48 11.391V491H77.465L0 380z" fill="url(#paint0_linear)"/><path d="M279 105.5V.37L191 0v155h88v-49.5z" fill="url(#paint1_linear)"/><path d="M260.307 277.614v7.24l-50.539 20.957-56.307-20.957v-83.258l56.307-23.815 50.539 23.815.027 7.85c.022 6.82.044 14.617.062 22.443.017 7.703.029 15.434.032 22.291.006 13.294-.023 23.299-.121 23.434z" fill="#C7C7EC"/><path d="M260.307 277.614v7.24l-50.539 20.957m50.539-28.197l-13.733 5.54m13.733-5.54c.098-.135.127-10.14.121-23.434M209.768 298v7.811m0-7.811l12.635-5.097M209.768 298l-16.205-5.867M209.768 298v-24.006m0 31.817l-56.307-20.957v-7.24m106.846-76.018l-50.539-23.815-56.307 23.815m106.846 0l-13.733 5.333m13.733-5.333l.027 7.85m-50.566 11.774l12.635-4.906m-12.635 4.906l-16.205-5.648m16.205 5.648v8.764m-56.307 47.63l13.734 4.972m-13.734-4.972V254.18m0-52.584l13.734 4.787m-13.734-4.787v7.85m93.113-2.517v76.225m0-76.225l-10.987 4.266m10.987 71.959l-10.987 4.431m-13.184-71.271v76.589m0-76.589l13.184-5.119m-13.184 81.708l13.184-5.318m-42.024-72.013v76.561m0-76.561l-8.789-3.063m8.789 79.624l-8.789-3.183m-17.579-82.567v76.203m0-76.203l8.789 3.063m-8.789 73.14l8.789 3.182m8.79-73.259v76.441m0-76.441l-8.79-3.063m8.79 79.504l-8.79-3.182m0-76.322v76.322m59.603 1.817v-76.39m24.841 42.985l-50.66 19.814m50.66-19.814c-.003-6.857-.015-14.588-.032-22.291m-50.628 42.105l-56.307-19.814m56.307 19.814v-22.1m-56.307 2.286v-22.291m106.935 0l-50.628 20.005m50.628-20.005c-.018-7.826-.04-15.623-.062-22.443m-50.566 42.448l-56.307-20.005m56.307 20.005v-21.91m-56.307 1.905v-22.443m106.873 0l-50.566 20.538m0 0l-56.307-20.538" stroke="#fff"/><path d="M177.632 157.377l30.652-14.459 27.512 14.459.014 4.766c.012 4.141.024 8.875.034 13.626.009 4.677.016 9.371.017 13.534.004 8.071-.012 14.146-.065 14.228l-7.476 3.363-5.981 2.691-7.177 3.229-6.878 3.094-8.822-3.562-4.784-1.932-4.785-1.932-4.785-1.932-7.476-3.019v-46.154z" fill="#C7C7EC"/><path d="M208.284 215.908l6.878-3.094m-6.878 3.094l-8.822-3.562m8.822 3.562v-14.575m27.512-43.956l-27.512-14.459-30.652 14.459m58.164 0l-7.476 3.238m7.476-3.238l.014 4.766c.012 4.141.024 8.875.034 13.626m-27.56-6.478l6.878-2.978m-6.878 2.978l-8.822-3.429m8.822 3.429v18.624m-30.652-30.538l7.476 2.906m-7.476-2.906v18.392m50.688-15.154v46.279m0-46.279l-5.981 2.59m5.981 43.689l7.476-3.363c.053-.082.069-6.157.065-14.228m-7.541 17.591l-5.981 2.691m-7.177-43.272v46.501m0-46.501l7.177-3.108m-7.177 49.609l7.177-3.229m-22.877-43.723v46.484m0-46.484l-4.784-1.859m4.784 48.343l-4.784-1.932m-9.57-50.131v46.267m0-46.267l4.785 1.86m-4.785 44.407l-7.476-3.019v-14.228m7.476 17.247l4.785 1.932m4.785-44.479v46.411m0-46.411l-4.785-1.86m4.785 48.271l-4.785-1.932m0-46.339v46.339m32.446 1.103v-46.38m13.522 26.098l-27.577 12.03m27.577-12.03c-.001-4.163-.008-8.857-.017-13.534m-27.56 25.564l-30.652-12.03m30.652 12.03v-13.418m-30.652 1.388v-13.534m58.212 0l-27.56 12.146m0 0l-30.652-12.146" stroke="#fff"/><path d="M190.816 130.647h31.826l.008 2.613c.006 2.27.013 4.865.018 7.469.005 2.564.009 5.137.009 7.419.002 4.424-.006 7.754-.035 7.799l-4.091 1.843-3.273 1.475-3.927 1.77-3.763 1.696-4.827-1.953-2.618-1.059-2.618-1.059-2.618-1.059-4.091-1.654v-25.3z" fill="#C7C7EC"/><path d="M207.588 162.731l3.763-1.696 3.927-1.77m-7.69 3.466l-4.827-1.953-2.618-1.059-2.618-1.059m10.063 4.071v-7.989m15.054-24.095h-31.826m31.826 0l-4.091 1.775-3.273 1.42m7.364-3.195l.008 2.613c.006 2.27.013 4.865.018 7.469.005 2.564.009 5.137.009 7.419m-15.089-10.97l3.763-1.632 3.927-1.704m-7.69 3.336l-4.827-1.879-2.618-1.02-2.618-1.019m10.063 3.918v17.564m-16.772-24.095l4.091 1.593 2.618 1.02m-6.709-2.613v17.501m6.709-14.888v25.4m0 0l-2.618-1.059-4.091-1.654v-7.799m24.462 11.117l3.273-1.475 4.091-1.843c.029-.045.037-3.375.035-7.799m-7.399 11.117v-25.423m7.399 14.306l-15.089 6.594m0 0l-16.772-6.594" stroke="#fff"/><path d="M172.05 372.363l5.011-364.988 26.841 1.988 48.101 23.888v370.673l-79.953-31.561z" fill="#96C2F0" fill-opacity=".8"/><path d="M171.033 28.9l37.449-19.007v374.994l-37.449 18.902V28.899z" fill="url(#paint2_linear)"/><path d="M193.352 26.425l15.491-13.883v374.185l-12.006 7.443-3.485-367.745z" fill="url(#paint3_linear)"/><path d="M171.498 28.673L153.28 19l-.465 374.988 18.218 9.801.465-375.116z" fill="#D2CFCF"/><path d="M153.28 19l38.189-19 17.984 9.53L192.992 19l-21.494 9.665L153.28 19z" fill="#E7E7E7"/><path d="M260.844 37.661l18.707 9.202L277 48l-24.586-12.084-4.878-1.781 2.934 3.526-42.763-23.101-10.87 6.47-.238 371.372-3.289-2.8-.733-371.524 15.636-8.185 52.631 27.768z" fill="#E7E7E7"/><path d="M196.837 21.045l-4.26-1.86.273 373.618 3.987 1.366V21.045z" fill="#D2D2D2"/><g clip-path="url(#clip0)"><path d="M232.636 415.325l18.098 5.247a178.437 178.437 0 01-20.481 9.059c-20.781 7.658-58.442 13.801-86.521 4.224-6.858-2.339-9.708-4.697-10.019-7.084a3.234 3.234 0 010-.834V396.25l102.848-4.5-3.925 23.575z" fill="url(#paint4_linear)"/><path d="M232.019 381.787l-46.744-14.307v-41.103h48.749l-2.005 55.41 23.138 7.081c-5.792 3.416-14.006 7.795-23.818 11.7l.68-18.781z" fill="#A6B8CE"/><path d="M133.725 397.25a4.046 4.046 0 010-.603V324.25l60.058 3v41.175c-18.372 7.059-59.281 17.732-60.058 28.222v.603z" fill="#9299B1"/><path d="M248.797 384.914L194 367.137c-18.157 6.257-60.286 16.651-60.286 28.613.194 2.84 2.978 5.521 9.94 8.304 26.802 10.71 54.486 4.526 74.924-3.883 9.391-3.863 24.676-11.877 30.219-15.257z" fill="#C2C7DF"/><path d="M173.136 349.533c.311-.784 2.175-2.09 2.486-2.09 1.139.087 3.79.47 5.282 1.306 1.864 1.045-.932 5.485-2.796 6.268-1.865.784-4.901.079-5.282-1.044-.728-2.142-.001-3.657.31-4.44z" fill="#ECAEAE"/><path d="M174.69 348.487c.497 1.045 2.9.435 4.039 0 .932.522-.621 1.567 0 2.089.622.523.311 0 .311 1.045s0 2.089.621 3.134c.622 1.045.311.522 1.554.261 1.279-.269.621-.522.621-2.089s.311-1.306.932-2.612c.622-1.306-.621-1.828-1.864-3.134-1.243-1.306-4.039-1.306-5.593-1.045-1.553.262-1.243 1.045-.621 2.351z" fill="#976565"/><path d="M181.082 351.384c-.083-.603-.729-.014-1.042.356-.179.962.163 1.746.729 1.328.566-.419.417-.931.313-1.684z" fill="#ECAEAE"/><path d="M175.311 354.748c-.994.209-1.864-.521-2.175-1.043-.497-.602-.621-1.302-.621-1.302-.104.087-.493.783-.493 2.246 0 1.828 1.616 3.233 3.289 3.233 4.35 0 4.661-.337 4.661-4.44 0-.783-.402-.446-.621-.261-.311.261-2.797 1.306-4.04 1.567z" fill="#976565"/><path d="M179.938 354.982c0 .522.345 1.687.655 2.123l-1.242 3.134-2.797.783-4.66-2.873-.268-3.833c.207 0 .313.125.791 1.331 1.865 4.701 7.521-1.249 7.521-.665zm7.342 22.875c.023-.418.674-4.487.997-6.566-.587-.633-2.489-1.038-2.512-.62-.029.521.122 3.379-.304 5.454-.106.514-1.597 1.148-1.597 1.732 0 .535.404.65.623-.11.073-.254.635-.237.208 1.838-.281 1.371.278 1.447 1.449 1.011 1.271-.472 1.107-2.217 1.136-2.739zm-18.21-7.44c-.204-.313-4.211-4.579-3.734-5.682 1.243-2.873 2.449-.407 2.518-.055.311 1.567.789 2.285 2.083 3.722.321.356 1.933.285 2.19.734.235.412-.076.651-.606.149-.177-.168-.672.056.621 1.493.855.949.388 1.217-.852 1.321-1.344.113-1.965-1.292-2.22-1.682z" fill="#ECAEAE"/><path d="M177.167 358.975c.792-.333 2.909-1.344 3.116-2.65.932.261 1.553 1.479 2.175 2.35l-2.486 14.625-8.079-2.872c-.207-5.049-.267-16.443.129-16.444.298 2.675 1.658 6.457 5.145 4.991z" fill="#213A94"/><path d="M184.943 403.333c.311-.914.104-2.09 0-3.134-.31.522-1.553-.261-1.864-.261-.311 0-.621 1.044-1.864 3.395-1.243 2.35-1.554 3.134 0 3.395 1.553.261 3.574-2.943 3.728-3.395zm-16.778-2.612c0-.418 4.246-2.438 6.214-3.395l2.486-.262c.207.523.932 1.884.932 2.351 0 .467-1.243.783-1.554.783-.621 0-.621-.783-3.417.523-2.797 1.306-4.661.522-4.661 0z" fill="#0B0C1C"/><path d="M184.011 400.46c1.554.261.622-.784 1.243-2.133l-1.57-1.248c-.202-.07-.916.083-.916 1.248 0 2.133.354 1.983 1.243 2.133zm-9.01-2.351c.117.148 1.242.174 1.864-.262.311-.261 0-.783 0-1.828 0-.66-1.968-.957-2.797-1.044.104.696.311 2.35.933 3.134z" fill="#ECAEAE"/><path d="M182.458 398.887c.248.627 1.967.087 2.796-.261.621-.234-.621-6.268-1.243-9.141-.351-1.625 0-6.007-.311-9.664-.31-3.656-.932-8.091-2.796-7.83-1.864.262-9.632-2.611-9.943-1.828-.31.784 0 15.143 0 15.665 0 .523 2.486 9.925 2.797 10.447.31.522 3.418.261 3.728 0 .311-.261-2.036-7.826-2.175-10.969-.31-7.052 0-9.663 2.175-8.88.639.23 2.175 9.402 2.486 12.275.311 2.873 2.175 9.402 2.486 10.186z" fill="#1A164A"/><path d="M171.894 370.164c2.278.58 7.705 2.211 8.699 2.35 0-.58-.372-1.044-.621-1.044s-6.421-1.712-8.7-2.351l.622 1.045z" fill="#0B0C1C"/><path d="M176.865 350.836h-1.243m-2.796-.523h.932" stroke="#976565" stroke-linecap="round"/><path d="M180.593 356.322c1.658.87 4.435 2.524 5.282 3.395 2.797 2.873 2.486 8.096 2.486 11.491 0 .544-3.418 0-3.418-.522-.207-1.654-.31-5.275-.31-5.484 0-.262-.622 2.851-.622 4.439 0 1.567-.103 5.398-.31 7.313-1.761.261-5.655.575-5.904-.261-.311-1.045 2.855-18.918 2.486-19.849-.311-.783.103-.625.31-.522-2.51-1.319-6.352-1.855-8.571-2.338 0 .096-.128.271-.128.771 0 1.044.621 5.223.621 6.529s-.311 11.753-.621 12.536c-.249.627-2.383-.261-3.418-.783.518-2.873 1.553-8.776 1.553-9.402 0-.627-1.035.522-1.553 2.089l-3.107-1.045c1.035-1.915 2.92-5.589 3.417-7.051.622-1.829.128-2.573 1.993-3.357.26-.109.715-.402 1.243-.287 2.219.483 6.061 1.019 8.571 2.338z" fill="#3C5AA9"/><path d="M174.379 352.665c-.771-.13-1.553.348-1.864.522l.311.522c.207-.174 1.056-.47 1.553-.261.7.294.932 1.393.932 1.828l.622-.261c0-.522-.447-2.164-1.554-2.35z" fill="#976565"/><path fill-rule="evenodd" clip-rule="evenodd" d="M133.713 396.25a.65.65 0 010-.153v.153zm0-.5v.347a.366.366 0 01.014-.063c.288 2.862 4.852 6.224 11.612 8.716a82.024 82.024 0 0014.899 3.958c6.689 1.795 14.313 2.507 22.473.749 13.75-1.257 27.075-5.408 39.653-10.707 1.346-.511 2.756-1.041 4.2-1.585 2.107-.793 4.286-1.614 6.447-2.44l-.261 6.892a170.743 170.743 0 0022.869-10.714l-7.865-2.296a41.15 41.15 0 002.135-1.11l-16.392-5.584 1.831-48.235-11.511-1.428-25.454 1.03-2.389-9.267-62.257-1.263-.004 73z" fill="#1787FF" fill-opacity=".2"/><path d="M143.696 334.456c-6.834-2.742-9.858-5.542-10.168-8.34a4.385 4.385 0 010-.965V293.21l119.696-8.46v37.545c2.294-.382 3.884-.584 0 1.1-20.708 8.975-81.548 22.284-109.528 11.061z" fill="url(#paint5_linear)"/><path d="M295.87 289.685l-20.882-8.854-2.285-1.436-42.464 19.031 21.004 9.337 44.627-18.078z" fill="#E7E7E7"/><path d="M244.501 289l-52.5-23c-18.262 6.421-58.5 15.822-58.5 28.098.195 2.914 3.208 5.832 10.211 8.687 26.958 10.991 56.232 5.594 76.789-3.035 8.634-3.624 14.77-6.374 24-10.75z" fill="url(#paint6_linear)"/></g><path d="M278.065 47.676l-16.659-8.071L189.682.363l17.633 14 43.228 24-1.706 1.242L224.5 53.5l2 1-3.828 1.863 17.257 10.385 38.136-19.072z" fill="#E7E7E7"/><path d="M241.373 65.046l37.958-18.28V423.16l-38.344 18.625.386-376.739z" fill="url(#paint7_linear)"/><path d="M241.374 65.045l-18.702-8.682.99 376.456 17.712 9.334V65.045z" fill="#D2CFCF"/><defs><linearGradient id="paint0_linear" x1="208.279" y1="442.043" x2="136.759" y2="510.379" gradientUnits="userSpaceOnUse"><stop stop-color="#DEDEDE"/><stop offset="1" stop-color="#FCFCFC"/></linearGradient><linearGradient id="paint1_linear" x1="223.144" y1="49.999" x2="255.462" y2="36.094" gradientUnits="userSpaceOnUse"><stop stop-color="#E7E7E7"/><stop offset="1" stop-color="#FCFCFC"/></linearGradient><linearGradient id="paint2_linear" x1="189.757" y1="9.893" x2="189.757" y2="403.789" gradientUnits="userSpaceOnUse"><stop stop-color="#fff"/><stop offset="1" stop-color="#AFABAB"/></linearGradient><linearGradient id="paint3_linear" x1="201.097" y1="12.542" x2="201.097" y2="402.29" gradientUnits="userSpaceOnUse"><stop stop-color="#fff"/><stop offset="1" stop-color="#AFABAB"/></linearGradient><linearGradient id="paint4_linear" x1="154.82" y1="415.772" x2="250.734" y2="415.853" gradientUnits="userSpaceOnUse"><stop stop-color="#68B1FF"/><stop offset="1" stop-color="#007BFF"/></linearGradient><linearGradient id="paint5_linear" x1="155.543" y1="312.35" x2="255.578" y2="312.427" gradientUnits="userSpaceOnUse"><stop stop-color="#68B1FF"/><stop offset="1" stop-color="#007BFF"/></linearGradient><linearGradient id="paint6_linear" x1="195.361" y1="322.312" x2="168.419" y2="356.165" gradientUnits="userSpaceOnUse"><stop stop-color="#5BAAFF"/><stop offset="1" stop-color="#1687FF"/></linearGradient><linearGradient id="paint7_linear" x1="260.353" y1="46.766" x2="260.353" y2="442.062" gradientUnits="userSpaceOnUse"><stop stop-color="#fff"/><stop offset="1" stop-color="#AFABAB"/></linearGradient><clipPath id="clip0"><path fill="#fff" transform="translate(105.501 36.363)" d="M0 0h151.298v403H0z"/></clipPath></defs></svg>