<svg width="831" height="790" fill="none" xmlns="http://www.w3.org/2000/svg"><path d="M19.469 517.091l316.689-11.745 472.095-9.611v281.366H389.048l-369.58-260.01z" fill="url(#paint0_linear)"/><path d="M-19 497.604h826.5v280.7H280.47L-19 497.604z" fill="url(#paint1_linear)"/><path d="M830.5 122.371V0h-481v281h481V122.371z" fill="url(#paint2_linear)"/><path d="M364.826 509.452v-8.079l124.137 67.742v8.079l-124.137-67.742z" fill="#E7E7E7"/><path d="M508.312 475.914v10.882l-78.43 31.502-87.382-31.502V361.647l87.382-35.797 78.43 35.797.041 11.799c.035 10.253.069 21.972.096 33.736.026 11.579.045 23.2.05 33.507.009 19.982-.036 35.021-.187 35.225z" fill="#C7C7EC"/><path d="M508.312 475.914v10.882l-78.431 31.502m78.431-42.384l-21.313 8.326m21.313-8.326c.151-.204.196-15.243.187-35.225m-78.618 65.867v11.742m0-11.742l19.608-7.66m-19.608 7.66l-25.148-8.819m25.148 8.819v-36.084m0 47.826L342.5 486.796v-10.882m165.812-114.267l-78.431-35.797-87.381 35.797m165.812 0l-21.313 8.016m21.313-8.016l.041 11.799m-78.472 17.699l19.608-7.375m-19.608 7.375l-25.148-8.49m25.148 8.49v13.173M342.5 475.914l21.313 7.474m-21.313-7.474v-35.225m0-79.042l21.313 7.195m-21.313-7.195v11.799m144.499-3.783V484.24m0-114.577l-17.05 6.412m17.05 108.165l-17.05 6.662m-20.46-107.132v115.126m0-115.126l20.46-7.695m-20.46 122.821l20.46-7.994m-65.216-108.247v115.082m0-115.082l-13.64-4.604m13.64 119.686l-13.64-4.783m-27.28-124.112v114.546m0-114.546l13.64 4.604m-13.64 109.942l13.64 4.783m13.64-110.12v114.903m0-114.903l-13.64-4.605m13.64 119.508l-13.64-4.783m0-114.725v114.725m92.496 2.731V376.075m38.55 64.614l-78.618 29.783m78.618-29.783a19575.95 19575.95 0 00-.05-33.507m-78.568 63.29L342.5 440.689m87.381 29.783v-33.22m-87.381 3.437v-33.507m165.949 0l-78.568 30.07m78.568-30.07c-.027-11.764-.061-23.483-.096-33.736m-78.472 63.806l-87.381-30.07m87.381 30.07v-32.934m-87.381 2.864v-33.736m165.853 0l-78.472 30.872m0 0L342.5 373.446" stroke="#fff"/><path d="M380.01 295.178l47.568-21.735 42.695 21.735.022 7.163c.019 6.225.038 13.341.052 20.483.014 7.03.025 14.086.027 20.343.005 12.132-.019 21.263-.101 21.387l-11.602 5.055-9.282 4.045-11.138 4.853-10.673 4.651-13.691-5.354-7.425-2.904-7.425-2.904-7.425-2.905-11.602-4.537v-69.376z" fill="#C7C7EC"/><path d="M427.578 383.158l10.673-4.651m-10.673 4.651l-13.691-5.354m13.691 5.354V361.25m42.695-66.072l-42.695-21.735-47.568 21.735m90.263 0l-11.602 4.866m11.602-4.866l.022 7.163c.019 6.225.038 13.341.052 20.483m-42.769-9.737l10.673-4.477m-10.673 4.477l-13.691-5.155m13.691 5.155v27.994m-47.568-45.903l11.602 4.368m-11.602-4.368v27.646m78.661-22.78v69.565m0-69.565l-9.282 3.894m9.282 65.671l11.602-5.055c.082-.124.106-9.255.101-21.387m-11.703 26.442l-9.282 4.045m-11.138-65.044v69.897m0-69.897l11.138-4.672m-11.138 74.569l11.138-4.853m-35.502-65.722v69.872m0-69.872l-7.425-2.795m7.425 72.667l-7.425-2.904m-14.85-75.354v69.545m0-69.545l7.425 2.795m-7.425 66.75l-11.602-4.537v-21.387m11.602 25.924l7.425 2.905m7.425-66.859V374.9m0-69.763l-7.425-2.796m7.425 72.559l-7.425-2.904m0-69.655v69.655m50.352 1.658v-69.716m20.985 39.229l-42.796 18.083m42.796-18.083c-.002-6.257-.013-13.313-.027-20.343m-42.769 38.426l-47.568-18.083m47.568 18.083v-20.169m-47.568 2.086v-20.343m90.337 0l-42.769 18.257m0 0l-47.568-18.257" stroke="#fff"/><path d="M400.471 255h49.389l.012 3.927a9349.429 9349.429 0 01.044 22.378c.002 6.651-.011 11.656-.056 11.723l-6.348 2.772-5.079 2.217-6.094 2.66-5.841 2.55-7.491-2.936-4.062-1.591-4.063-1.592-4.063-1.592-6.348-2.488V255z" fill="#C7C7EC"/><path d="M426.498 303.227l5.841-2.55 6.094-2.66m-11.935 5.21l-7.491-2.936-4.062-1.591-4.063-1.592m15.616 6.119v-12.009M449.86 255h-49.389m49.389 0l-6.348 2.668-5.079 2.134M449.86 255l.012 3.927a9349.429 9349.429 0 01.044 22.378m-23.418-16.488l5.841-2.454 6.094-2.561m-11.935 5.015l-7.491-2.825-4.062-1.533-4.063-1.532m15.616 5.89v26.401M400.471 255l6.348 2.394 4.063 1.533M400.471 255v26.305m10.411-22.378v38.181m0 0l-4.063-1.592-6.348-2.488v-11.723m37.962 16.712l5.079-2.217 6.348-2.772c.045-.067.058-5.072.056-11.723m-11.483 16.712v-38.215m11.483 21.503l-23.418 9.913m0 0l-26.027-9.913" stroke="#fff"/><path d="M666.921 502.099v9.808l-74.461 28.391-82.96-28.391V399.116l82.96-32.262 74.461 32.262.04 10.634c.032 9.24.065 19.803.09 30.405.025 10.435.043 20.909.048 30.198.008 18.009-.034 31.563-.178 31.746z" fill="#C7C7EC"/><path d="M666.921 502.099v9.808l-74.461 28.391m74.461-38.199l-20.234 7.505m20.234-7.505c.144-.183.186-13.737.178-31.746m-74.639 59.363v10.582m0-10.582l18.615-6.904m-18.615 6.904l-23.877-7.948m23.877 7.948v-32.521m0 43.103l-82.96-28.391v-9.808m157.421-102.983l-74.461-32.262-82.96 32.262m157.421 0l-20.234 7.224m20.234-7.224l.04 10.634m-74.501 15.951l18.615-6.646m-18.615 6.646l-23.877-7.651m23.877 7.651v11.873m-82.96 64.525l20.234 6.736m-20.234-6.736v-31.746m0-71.237l20.234 6.484m-20.234-6.484v10.634m137.187-3.41v103.264m0-103.264l-16.187 5.78m16.187 97.484l-16.187 6.003m-19.425-96.552v103.757m0-103.757l19.425-6.935m-19.425 110.692l19.425-7.205m-61.917-97.557v103.718m0-103.718l-12.949-4.15m12.949 107.868l-12.949-4.311m-25.9-111.857v103.235m0-103.235l12.95 4.15m-12.95 99.085l12.95 4.311m12.95-99.246v103.557m0-103.557l-12.95-4.15m12.95 107.707l-12.95-4.311m0-103.396v103.396m87.816 2.461V412.12m36.599 58.233l-74.639 26.842m74.639-26.842c-.005-9.289-.023-19.763-.048-30.198m-74.591 57.04l-82.96-26.842m82.96 26.842v-29.94m-82.96 3.098v-30.198m157.551 0l-74.591 27.1m74.591-27.1c-.025-10.602-.058-21.165-.09-30.405m-74.501 57.505l-82.96-27.1m82.96 27.1v-29.681m-82.96 2.581V409.75m157.461 0l-74.501 27.824m0 0L509.5 409.75" stroke="#fff"/><path d="M545.111 339.21l45.161-19.588 40.534 19.588.022 6.456c.018 5.61.035 12.023.049 18.46.014 6.336.024 12.695.026 18.335.005 10.934-.018 19.163-.097 19.274l-11.014 4.557-8.812 3.645-10.574 4.374-10.134 4.192-12.997-4.826-7.05-2.617-7.049-2.618-7.05-2.617-11.015-4.09V339.21z" fill="#C7C7EC"/><path d="M590.272 418.503l10.134-4.192m-10.134 4.192l-12.997-4.826m12.997 4.826v-19.745m40.534-59.548l-40.534-19.588-45.161 19.588m85.695 0l-11.014 4.386m11.014-4.386l.022 6.456c.018 5.61.035 12.023.049 18.46m-40.605-8.775l10.134-4.035m-10.134 4.035l-12.997-4.646m12.997 4.646v25.229m-45.161-41.37l11.015 3.937m-11.015-3.937v24.916m74.681-20.53v62.696m0-62.696l-8.812 3.509m8.812 59.187l11.014-4.557c.079-.111.102-8.34.097-19.274m-11.111 23.831l-8.812 3.645m-10.574-58.621v62.995m0-62.995l10.574-4.211m-10.574 67.206l10.574-4.374m-33.705-59.232v62.972m0-62.972l-7.05-2.519m7.05 65.491l-7.05-2.617m-14.099-67.913v62.678m0-62.678l7.05 2.519m-7.05 60.159l-11.015-4.09v-19.274m11.015 23.364l7.05 2.617m7.049-60.256v62.874m0-62.874l-7.049-2.52m7.049 65.394l-7.049-2.618m0-62.776v62.776m47.804 1.495v-62.832m19.923 35.356l-40.631 16.297m40.631-16.297c-.002-5.64-.012-11.999-.026-18.335m-40.605 34.632l-45.161-16.297m45.161 16.297V380.58m-45.161 1.881v-18.335m85.766 0l-40.605 16.454m0 0l-45.161-16.454" stroke="#fff"/><path d="M564.537 303h46.89l.012 3.539a7527.07 7527.07 0 01.041 20.169c.002 5.993-.01 10.504-.053 10.565l-6.027 2.498-4.822 1.998-5.786 2.397-5.544 2.298-7.112-2.645-3.857-1.435-3.858-1.434-3.857-1.435-6.027-2.242V303z" fill="#C7C7EC"/><path d="M589.248 346.464l5.544-2.298 5.786-2.397m-11.33 4.695l-7.112-2.645-3.857-1.435-3.858-1.434m14.827 5.514v-10.823M611.427 303h-46.89m46.89 0l-6.027 2.404-4.822 1.924M611.427 303l.012 3.539a7527.07 7527.07 0 01.041 20.169m-22.232-14.861l5.544-2.211 5.786-2.308m-11.33 4.519l-7.112-2.546-3.857-1.381-3.858-1.381m14.827 5.308v23.794M564.537 303l6.027 2.158 3.857 1.381M564.537 303v23.708m9.884-20.169v34.411m0 0l-3.857-1.435-6.027-2.242v-10.565m36.041 15.061l4.822-1.998 6.027-2.498c.043-.061.055-4.572.053-10.565m-10.902 15.061v-34.441m10.902 19.38l-22.232 8.933m0 0l-24.711-8.933" stroke="#fff"/><path d="M505.951 593.664V91.504l150.271 79.551v502.158l-150.271-79.549zM364.827 52.352l-.266-43.678 114.844 62.348 8.906 48.761-123.484-67.43z" fill="#96C2F0" fill-opacity=".8"/><path d="M364.828 60.121v-8.079l124.137 67.742v8.079L364.828 60.121zm0 161.585v-8.079l124.137 67.742v8.079l-124.137-67.742zm0 71.471v-8.079l124.137 67.741v8.08l-124.137-67.742zm0 153.509v-8.08l124.137 67.742v8.079l-124.137-67.741z" fill="#E7E7E7"/><path d="M364.828 285.409v-64.013l124.137 67.742v64.013l-124.137-67.742zm0 153.194V293.176l124.137 67.741v145.428l-124.137-67.742zm0 62.771v-54.69l124.137 67.741v54.691l-124.137-67.742zm0-288.057V59.19l124.137 67.741v154.128l-124.137-67.742z" fill="#96C2F0" fill-opacity=".8"/><path d="M342.613 20.375l22.214-12.472v512.123l-22.214 12.013V20.375z" fill="url(#paint3_linear)"/><path d="M342.613 20.374l-15.027-8.046V523.82l15.027 8.219V20.374z" fill="#D2CFCF"/><path d="M327.586 12.329L349.8 0l15.027 7.903-22.214 12.645-15.027-8.22zm154.517 67.019l-30.381 16.439-1.96 1.264-2.613 58.799-5.227-3.161V93.258l37.568-21.18c.261 0 7.513 4.425 7.513 4.425l-4.9 2.845z" fill="#E7E7E7"/><path d="M461.523 115.214l32.349-25.75-2 508.014-30.349 25.606v-507.87z" fill="url(#paint4_linear)"/><path d="M489.5 104.794L509.5 91l-3 503-17 15V104.794z" fill="url(#paint5_linear)"/><path d="M461.523 115.213l-23.52-13.104v507.697l23.52 13.278V115.213z" fill="#D2CFCF"/><path d="M438.002 102.109l49.001-25.606 23.521 12.961-49.001 25.922-23.521-13.277z" fill="#E7E7E7"/><path d="M509.5 94.5l55.579 32.584h13.394l-67.949-37.62L484.5 103l.783 492.865 4.247 3.793V105.49L509.5 94.5z" fill="#E7E7E7"/><path d="M489.5 105.5l-5-2.5v500.5l5 5.5V105.5z" fill="#D2D2D2"/><g clip-path="url(#clip0)"><g clip-path="url(#clip1)"><path d="M517.004 307.428l58.495-12.929c-5.784 3.674-41.426 55.403-50.937 59.68-23.627 10.628-66.444 19.152-98.368 5.863-7.797-3.246-11.248-6.562-11.601-9.875a5.467 5.467 0 010-1.151v-41.199l102.411-.389z" fill="url(#paint6_linear)"/><path d="M530.378 288.759l-53.882-20.932v-57.129h53.382l.5 78.061 22.641 8.796c-6.342 4.747-11.776 4.517-22.521 9.944l-.12-18.74z" fill="#A6B8CE"/><path d="M414.576 307.82a6.478 6.478 0 010-.836v-95.843l70.549-.443v57.129c-21.582 9.793-69.637 24.601-70.549 39.157v.836z" fill="#9299B1"/><path d="M546.487 292.386l-61.496-29.728c-20.774 8.789-70.417 27.918-70.417 44.721.222 3.989 3.649 7.983 11.615 11.891 30.665 15.045 62.339 6.358 85.723-5.453 10.745-5.427 28.233-16.684 34.575-21.431z" fill="#C2C7DF"/><path d="M470.916 251.287c-.269-6.127 1.111-10.551-3.176-15.968-1.833-1.738-7.199-1.551-9.6 1.049-3 3.25-.826 22.787-1.255 27.662-.428 4.875 10.602 3.563 14.031 1.938 3.43-1.625.429-4.93 0-14.681z" fill="#976565"/><path d="M465.599 247.168c0 .8 4.129 3.6 4.542 3.6l-10.323 5.6-.077-9.2c0-.533-.443-1.064-.8-1.6-.8-1.2-.8-1.6-.8-4s2.916-5.2 4.567-5.2c1.652 0 3.304 1.2 3.717 2.4.412 1.2 0 2.4.412 2.4.537 0-.571.177.469.898.435.302-.388 1.6-.8 2.8-.331.96-.632.835-.907.702v1.6z" fill="#ECAEAE"/><path d="M464.141 315.968c.32 0 .4-3.733.4-5.6-.533 1.467-1.92 4.4-3.2 4.4-.8 0-.4-1.6-1.2 0-.8 1.6-1.6 2.6-.4 3 1.2.4 3.2-2.2 3.6-2.6.4-.4.4.8.8.8zm1.599 3.216c-1 0-.5-2.385-.5-3 0-1.92-.033-1.816.1-2.616l3.4.07s.1 1.843 0 2.546c-.1.702-.1 1.569-.6.569-.532 2.38-1.509 2.431-2.4 2.431z" fill="#1A164A"/><path d="M461.739 310.369c.32-.64-1.733-9.067-2.8-13.2 1.6-.4 4.8-.96 4.8 0s.534 9.2.8 13.2c-.4 1.333-1.44 4.16-2.4 4.8-.96.64-1.733 0-2-.4.4-1.2 1.28-3.76 1.6-4.4zm5.5 5.815c.64-.32 1.367-1.034 1.5-2.5l.2-1.716v-14.8l-4-.8c.134 2.4.331 7.602.4 9.2.4 9.2 0 5.6 0 8.4 0 2.8 1.1 2.616 1.9 2.216zm-14.233-40.267l.513-18.101 3.513-2.477c.036.83-.073 2.768-.081 4.118-.012 2.112-1.591 10.132-1.782 11.761-.153 1.303-1.03 6.483-1.449 8.911l-.714-4.212z" fill="#ECAEAE"/><path d="M477.74 289.168l-9.2-24c-.4 0-1.176.8-3.2.8-4 0-6-.933-8-2.4l-8.4 26.4c-.8 2.534.72 7.84 13.2 8.8 12.48.96 15.6-6 15.6-9.6z" fill="#3C5AA9"/><path d="M453.926 271.661l-4.23-6.081c-.571-.821.283-1.879 1.205-1.494l6.16 2.566a.999.999 0 01.447.368l3.197 4.796c.507.761-.187 1.747-1.074 1.525l-5.127-1.281a1.005 1.005 0 01-.578-.399z" fill="#1A164A"/><path d="M474.139 269.168c.32 0 .667-1.867.8-2.8-.933-.8-2.8-2.32-2.8-2 0 .4-.8 2.4-1.6 2.8-.8.4-7.935 2.4-9.2 2.4-.8 0-1.2 0-2-.8-.34-.341-1.2-.566-1.2 0 0 .4.8.8 1.2 1.2.4.4.4.4-1.6 0-2.773-.555-2.8 0-2.8.8s4.4 1.6 5.2 1.6c1.2 0 13.6-3.2 14-3.2z" fill="#ECAEAE"/><path d="M471.34 266.768c.32 1.28 2.8.534 4 0 2-.4-.801-10-2.401-14.4-.492-1.355-2.8-2.399-3.6-2.399-.8 0-7.2 5.2-8.8 4.8-.867-.217-.8-6.801-.8-7.201 0-.4-.735 0-2 0-1.2 0-2.147.695-2.4 1.201-.4.8-2.4 7.6-2.4 8.799 0 1.2 2.335 1.2 3.6 1.2.932 0 .4-1.599.801-1.6.399 0-.183 5.161 0 6.801.399 3.6 11.199 3.2 11.199 1.6 0-2.087 1.467-4.401 2.401-6.801 0 2.134.08 6.72.4 8z" fill="#213A94"/><path d="M462.54 238.368c-.4-.4-1.6 2.4-4.4 2.8-1.306.187-.534-.933 0-1.6v-.4c1.066-1.333 3.68-3.92 5.6-3.6 2.4.4 3.6 4.4 3.6 5.2.057.325 2 2-.4 1.105-.385-.144-.579.698-.8.895 0-.894.4-2.4 0-2.8-.4-.4.4 0-1.6 0s-1.6-1.2-2-1.6z" fill="#976565"/><path fill-rule="evenodd" clip-rule="evenodd" d="M414.506 307.068l.002-.059-.002.01.576-95.997h70.549v.001h44.755l-2.072 72.657 18.678 9.029c-.672.503-1.468 1.079-2.368 1.713l8.903 3.458c-6.343 4.747-15.337 10.834-26.081 16.261l.248-8.7c-5.405 3.311-10.9 6.489-15.277 8.699-23.384 11.811-55.058 20.498-85.722 5.453-7.966-3.908-12.191-7.941-12.191-12.374v-.01a.914.914 0 01.002-.19v.049z" fill="#1787FF" fill-opacity=".2"/><path d="M531.88 170.144l31.62-2.645c-5.782 4.327-29.995 42.765-39.502 47.804-23.617 12.519-65.766 22.561-97.676 6.906-7.794-3.824-11.243-7.73-11.596-11.633a7.369 7.369 0 010-1.345v-44.546L534 157.999l-2.12 12.145z" fill="url(#paint7_linear)"/><path d="M546.489 150.727l-61.496-29.728c-20.774 8.789-70.417 27.918-70.417 44.721.222 3.989 3.649 7.983 11.615 11.891 30.665 15.045 62.339 6.358 85.723-5.453 10.745-5.427 28.233-16.684 34.575-21.431z" fill="url(#paint8_linear)"/></g></g><path d="M572.267 129.294l-30.381 16.439-1.96 1.264-.025.551.514.246-3.103 58.003 2.589-58.249-7.401-3.549 37.153-21.976c.262 0 7.514 4.426 7.514 4.426l-4.9 2.845z" fill="#E7E7E7"/><path d="M551.688 165.159l48.348-25.749v508.013l-48.348 25.606v-507.87z" fill="url(#paint9_linear)"/><path d="M580.5 161.807l20-18.808v506.917L585 659.999l-4.5-498.192z" fill="url(#paint10_linear)"/><path d="M551.688 165.159l-23.521-13.103v507.697l23.521 13.277V165.159z" fill="#D2CFCF"/><path d="M528.166 152.056l49.002-25.606 23.52 12.961-49.001 25.923-23.521-13.278z" fill="#E7E7E7"/><path d="M690.503 189.358l-22.867-12.329-67.949-37.619-20.187 11.089.946 503.311 4.247 3.794.307-503.105 14.034-8.766 55.208 31.296L621 196l5.5 2.5-7.866 4.135 22.868 12.645 49.001-25.922z" fill="#E7E7E7"/><path d="M585 154.519l-5.5-2.52.353 506.148 5.147 1.852v-505.48z" fill="#D2D2D2"/><g clip-path="url(#clip2)"><path d="M621.036 688.772l20.576 7.293c-5.784 3.68-13.773 8.307-23.284 12.593-23.628 10.646-66.445 19.186-98.368 5.872-7.797-3.251-11.248-6.573-11.601-9.892a5.42 5.42 0 010-1.153v-41.273L625.499 656l-4.463 32.772z" fill="url(#paint11_linear)"/><path d="M621.448 642.071l-51.186-19.921v-57.232h53.382l-2.196 77.153 25.337 9.86c-6.343 4.756-15.337 10.854-26.081 16.29l.744-26.15z" fill="#A6B8CE"/><path d="M508.341 662.215a6.843 6.843 0 01.006-.928l.652-97.759 69.891 1.389v57.232c-21.537 9.791-69.44 24.585-70.543 39.138l-.006.928z" fill="#9299B1"/><path d="M640.252 646.752l-61.495-29.781c-20.774 8.805-70.417 27.968-70.417 44.801.222 3.996 3.649 7.997 11.615 11.913 30.665 15.071 62.339 6.369 85.723-5.463 10.744-5.437 28.232-16.714 34.574-21.47z" fill="#C2C7DF"/><path fill-rule="evenodd" clip-rule="evenodd" d="M622.08 638.032l2.071-72.789h-53.382v.001h-61.921l-.576 96.169a.903.903 0 00-.002.196v.005c0 4.441 4.225 8.481 12.191 12.396 30.664 15.072 62.338 6.37 85.723-5.463 4.376-2.214 9.871-5.397 15.275-8.714l-.248 8.714c10.745-5.437 19.739-11.535 26.081-16.291l-8.901-3.464c.9-.635 1.696-1.211 2.367-1.714l-18.678-9.046zm-113.808 23.46v-.079l.002-.014-.002.093z" fill="#1787FF" fill-opacity=".2"/><path d="M520.088 576.455c-7.794-3.83-11.243-7.743-11.597-11.653a7.493 7.493 0 010-1.348v-44.633L645.001 507v52.464c2.616-.534 4.429-.817 0 1.536-23.617 12.542-93.004 31.139-124.913 15.455z" fill="url(#paint12_linear)"/><path d="M645.001 507l-65.587-31.5c-20.774 8.805-71.072 27.524-71.072 44.357.222 3.996 3.649 7.998 11.615 11.913 30.665 15.072 67.339 6.869 90.723-4.963 9.821-4.97 23.821-13.807 34.321-19.807z" fill="url(#paint13_linear)"/><path d="M691.369 513.829L668.502 501.5l-2.502-2-46.5 26.5 23 13 48.869-25.171z" fill="#E7E7E7"/></g><path d="M690.003 189.948l-22.868-12.329L599.186 140l54.555 37.619L620.999 196l5.5 2.5-8 4 22.502 13.37 49.002-25.922z" fill="#E7E7E7"/><path d="M826.588 648.491v18.103l-85.656 52.404-95.432-52.404V458.408l95.432-59.55 85.656 59.55.046 19.628c.037 17.055.074 36.551.104 56.12.028 19.261.049 38.593.054 55.738.01 33.241-.039 58.259-.204 58.597z" fill="#C7C7EC"/><path d="M826.588 648.491v18.103l-85.656 52.404m85.656-70.507l-23.276 13.852m23.276-13.852c.165-.338.214-25.356.204-58.597m-85.86 109.572v19.532m0-19.532l21.414-12.744m-21.414 12.744l-27.466-14.671m27.466 14.671V639.44m0 79.558L645.5 666.594v-18.103m181.088-190.083l-85.656-59.55-95.432 59.55m181.088 0l-23.276 13.334m23.276-13.334l.046 19.628m-85.702 29.441l21.414-12.267m-21.414 12.267l-27.466-14.122m27.466 14.122v21.915M645.5 648.491l23.276 12.433M645.5 648.491v-58.597m0-131.486l23.276 11.968M645.5 458.408v19.628m157.812-6.294v190.601m0-190.601l-18.621 10.667m18.621 179.934l-18.621 11.081M762.346 495.21v191.512m0-191.512l22.345-12.801m-22.345 204.313l22.345-13.298m-71.225-180.069v191.44m0-191.44l-14.897-7.66m14.897 199.1l-14.897-7.957m-29.793-206.462v190.548m0-190.548l14.897 7.66m-14.897 182.888l14.897 7.957m14.896-183.186v191.143m0-191.143l-14.896-7.659m14.896 198.802l-14.896-7.957m0-190.845v190.845m101.018 4.543V482.409m42.101 107.485l-85.86 49.546m85.86-49.546c-.005-17.145-.026-36.477-.054-55.738M740.932 639.44L645.5 589.894m95.432 49.546v-55.263m-95.432 5.717v-55.738m181.238 0l-85.806 50.021m85.806-50.021c-.03-19.569-.067-39.065-.104-56.12m-85.702 106.141L645.5 534.156m95.432 50.021v-54.785m-95.432 4.764v-56.12m181.134 0l-85.702 51.356m0 0L645.5 478.036" stroke="#fff"/><path d="M686.465 347.834l51.95-36.155 46.629 36.155.024 11.917c.021 10.355.041 22.191.057 34.072.016 11.695.027 23.432.03 33.842.005 20.182-.022 35.371-.111 35.577l-12.671 8.41-10.137 6.728-12.164 8.073-11.657 7.737-14.951-8.907-8.11-4.831-8.109-4.831-8.109-4.831-12.671-7.548V347.834z" fill="#C7C7EC"/><path d="M738.415 494.19l11.657-7.737m-11.657 7.737l-14.951-8.907m14.951 8.907v-36.444m46.629-109.912l-46.629-36.155-51.95 36.155m98.579 0l-12.671 8.096m12.671-8.096l.024 11.917c.021 10.355.041 22.191.057 34.072m-46.71-16.197l11.657-7.448m-11.657 7.448l-14.951-8.574m14.951 8.574v46.568m-51.95-76.36l12.671 7.266m-12.671-7.266v45.989m85.908-37.893v115.722m0-115.722l-10.137 6.476m10.137 109.246l12.671-8.41c.089-.206.116-15.395.111-35.577m-12.782 43.987l-10.137 6.728m-12.164-108.202v116.275m0-116.275l12.164-7.772m-12.164 124.047l12.164-8.073m-38.772-109.328v116.231m0-116.231l-8.11-4.651m8.11 120.882l-8.11-4.831M699.136 355.1v115.69m0-115.69l8.109 4.651m-8.109 111.039l-12.671-7.548v-35.577m12.671 43.125l8.109 4.831m8.109-111.22v116.051m0-116.051l-8.109-4.65m8.109 120.701l-8.109-4.831m0-115.87v115.87m54.991 2.759V362.406m22.919 65.259l-46.74 30.081m46.74-30.081c-.003-10.41-.014-22.147-.03-33.842m-46.71 63.923l-51.95-30.081m51.95 30.081v-33.552m-51.95 3.471v-33.842m98.66 0l-46.71 30.371m0 0l-51.95-30.371" stroke="#fff"/><path d="M708.811 281h53.939l.013 6.532a21558.107 21558.107 0 01.048 37.227c.003 11.063-.012 19.389-.061 19.502l-6.933 4.61-5.547 3.688-6.655 4.425-6.379 4.241-8.181-4.882-4.437-2.648-4.437-2.649-4.437-2.648-6.933-4.137V281z" fill="#C7C7EC"/><path d="M737.236 361.225l6.379-4.241 6.655-4.425m-13.034 8.666l-8.181-4.882-4.437-2.648-4.437-2.649m17.055 10.179v-19.977M762.75 281h-53.939m53.939 0l-6.933 4.438-5.547 3.55M762.75 281l.013 6.532a21558.107 21558.107 0 01.048 37.227m-25.575-27.429l6.379-4.082 6.655-4.26m-13.034 8.342l-8.181-4.7-4.437-2.549-4.437-2.549m17.055 9.798v43.918M708.811 281l6.933 3.983 4.437 2.549M708.811 281v43.759m11.37-37.227v63.514m0 0l-4.437-2.648-6.933-4.137v-19.502m41.459 27.8l5.547-3.688 6.933-4.61c.049-.113.064-8.439.061-19.502m-12.541 27.8v-63.571m12.541 35.771l-25.575 16.489m0 0l-28.425-16.489" stroke="#fff"/><path d="M691.504 234.25v-44.89l123.484 68.6v44.889L691.504 234.25z" fill="#96C2F0" fill-opacity=".8"/><path d="M691.504 242.155v-8.219l124.137 68.915v8.219l-124.137-68.915zm0 164.386v-8.22l124.137 68.916v8.219l-124.137-68.915zm0 72.708v-8.22l124.137 68.916v8.219l-124.137-68.915zm0 156.167v-8.22l124.137 68.916v8.219l-124.137-68.915zm0 63.857v-8.219l124.137 68.915v8.219l-124.137-68.915z" fill="#E7E7E7"/><path d="M691.504 471.344v-65.121l124.137 68.915v65.122l-124.137-68.916zm0 155.852V479.249l124.137 68.915v147.947l-124.137-68.915zm0 63.857v-55.638l124.137 68.915v55.638l-124.137-68.915zm-.004-291.887V238.001l124 70.835v161.165l-124-70.835z" fill="#96C2F0" fill-opacity=".8"/><path d="M807.801 278.335l22.214-12.472v512.123l-22.214 12.013V278.335z" fill="url(#paint14_linear)"/><path d="M807.801 278.336l-15.027-8.046v511.491L807.801 790V278.336z" fill="#D2CFCF"/><path d="M792.773 270.289l22.214-12.329 15.028 7.903-22.214 12.645-15.028-8.219z" fill="#E7E7E7"/><path d="M642.498 214.126l49.005-24.766v509.91L642 724.501l.498-510.375z" fill="url(#paint15_linear)"/><path d="M642.5 214.124l-24-11.622 1.133 509.854L642.5 725V214.124z" fill="#D2CFCF"/><defs><linearGradient id="paint0_linear" x1="601.263" y1="648.431" x2="500.089" y2="804.021" gradientUnits="userSpaceOnUse"><stop stop-color="#E1E5EA"/><stop offset="1" stop-color="#C4C4C4" stop-opacity="0"/></linearGradient><linearGradient id="paint1_linear" x1="598" y1="654.5" x2="418.094" y2="855.867" gradientUnits="userSpaceOnUse"><stop stop-color="#DEDEDE"/><stop offset="1" stop-color="#FCFCFC"/></linearGradient><linearGradient id="paint2_linear" x1="590.5" y1="133.5" x2="645.838" y2="41.182" gradientUnits="userSpaceOnUse"><stop stop-color="#E7E7E7"/><stop offset="1" stop-color="#FCFCFC"/></linearGradient><linearGradient id="paint3_linear" x1="353.72" y1="7.903" x2="353.72" y2="532.039" gradientUnits="userSpaceOnUse"><stop stop-color="#fff"/><stop offset="1" stop-color="#AFABAB"/></linearGradient><linearGradient id="paint4_linear" x1="485.697" y1="89.465" x2="485.697" y2="623.084" gradientUnits="userSpaceOnUse"><stop stop-color="#fff"/><stop offset="1" stop-color="#AFABAB"/></linearGradient><linearGradient id="paint5_linear" x1="499.5" y1="94" x2="499.5" y2="621.613" gradientUnits="userSpaceOnUse"><stop stop-color="#fff"/><stop offset="1" stop-color="#AFABAB"/></linearGradient><linearGradient id="paint6_linear" x1="443.62" y1="331.47" x2="575.499" y2="331.57" gradientUnits="userSpaceOnUse"><stop stop-color="#68B1FF"/><stop offset="1" stop-color="#007BFF"/></linearGradient><linearGradient id="paint7_linear" x1="441.563" y1="194.907" x2="563.499" y2="194.992" gradientUnits="userSpaceOnUse"><stop stop-color="#68B1FF"/><stop offset="1" stop-color="#007BFF"/></linearGradient><linearGradient id="paint8_linear" x1="488.09" y1="205.714" x2="446.499" y2="246.998" gradientUnits="userSpaceOnUse"><stop stop-color="#5BAAFF"/><stop offset="1" stop-color="#1687FF"/></linearGradient><linearGradient id="paint9_linear" x1="575.862" y1="139.41" x2="575.862" y2="673.029" gradientUnits="userSpaceOnUse"><stop stop-color="#fff"/><stop offset="1" stop-color="#AFABAB"/></linearGradient><linearGradient id="paint10_linear" x1="590.5" y1="142.999" x2="590.5" y2="670.999" gradientUnits="userSpaceOnUse"><stop stop-color="#fff"/><stop offset="1" stop-color="#AFABAB"/></linearGradient><linearGradient id="paint11_linear" x1="532.393" y1="689.393" x2="641.612" y2="689.469" gradientUnits="userSpaceOnUse"><stop stop-color="#68B1FF"/><stop offset="1" stop-color="#007BFF"/></linearGradient><linearGradient id="paint12_linear" x1="533.599" y1="545.567" x2="647.685" y2="545.638" gradientUnits="userSpaceOnUse"><stop stop-color="#68B1FF"/><stop offset="1" stop-color="#007BFF"/></linearGradient><linearGradient id="paint13_linear" x1="584.501" y1="560" x2="543.033" y2="602.751" gradientUnits="userSpaceOnUse"><stop stop-color="#5BAAFF"/><stop offset="1" stop-color="#1687FF"/></linearGradient><linearGradient id="paint14_linear" x1="818.908" y1="265.863" x2="818.908" y2="789.999" gradientUnits="userSpaceOnUse"><stop stop-color="#fff"/><stop offset="1" stop-color="#AFABAB"/></linearGradient><linearGradient id="paint15_linear" x1="667.003" y1="189.36" x2="667.003" y2="724.876" gradientUnits="userSpaceOnUse"><stop stop-color="#fff"/><stop offset="1" stop-color="#AFABAB"/></linearGradient><clipPath id="clip0"><path fill="#fff" transform="translate(415 121.999)" d="M0 0h124v501H0z"/></clipPath><clipPath id="clip1"><path fill="#fff" transform="translate(414.5 120.999)" d="M0 0h161v245.834H0z"/></clipPath><clipPath id="clip2"><path fill="#fff" transform="translate(508 163.5)" d="M0 0h132v559H0z"/></clipPath></defs></svg>