<svg width="29" height="28" fill="none" xmlns="http://www.w3.org/2000/svg"><path d="M24.143.57H5.82C1 .57 1 .57 1 5.37v15.903c0 5.296 0 5.296 4.821 5.296H23.18c4.821 0 4.821 0 4.821-4.333V5.369c0-4.8 0-4.8-3.857-4.8z" stroke="#F9F9F9" stroke-miterlimit="10"/><path d="M14.5 19.58c3.6 0 6.517-2.853 6.517-6.372 0-3.519-2.918-6.371-6.517-6.371-3.6 0-6.518 2.852-6.518 6.371 0 3.519 2.918 6.371 6.518 6.371z" stroke="#F9F9F9" stroke-miterlimit="10"/><path d="M23.31 5.472a.88.88 0 01-.896.865.88.88 0 01-.896-.865.88.88 0 01.896-.864.88.88 0 01.896.864z" stroke="#F9F9F9"/></svg>