<?xml version="1.0" encoding="utf-8"?><svg viewBox="0 0 1209 629" xmlns="http://www.w3.org/2000/svg" xmlns:xlink="http://www.w3.org/1999/xlink"><style>:root>svg{display:none}:root>svg:target{display:block}</style><svg fill="none" viewBox="0 0 8 14" id="arrow-left" xmlns="http://www.w3.org/2000/svg"><path d="M7.323 12.165a1 1 0 11-1.42 1.409l1.42-1.409zM1.596 7.808l.469-.883.134.071.107.108-.71.704zm0-1.746l.71.704-.107.107-.134.072-.47-.883zM5.903.296a1 1 0 011.42 1.408L5.903.296zm0 13.277L.886 8.512l1.42-1.408 5.017 5.061-1.42 1.409zM1.127 8.691a2.215 2.215 0 01-.795-.7l1.65-1.128c.002.002.023.03.083.062L1.127 8.69zm-.795-.7a1.87 1.87 0 01-.333-1.056h2a.172.172 0 00-.008-.052c-.004-.014-.008-.02-.008-.02L.332 7.992zm-.333-1.056c0-.388.124-.752.333-1.057l1.65 1.128s.005-.006.01-.02a.172.172 0 00.007-.051H0zm.333-1.057c.206-.303.487-.536.795-.7l.938 1.767a.243.243 0 00-.082.061L.332 5.878zm.554-.52L5.903.296l1.42 1.408-5.017 5.062-1.42-1.408z" fill="#007BFF"/></svg><svg fill="none" viewBox="0 0 8 14" id="arrow-right" xmlns="http://www.w3.org/2000/svg"><path d="M.29 12.165a1 1 0 101.42 1.409L.29 12.164zm5.728-4.357l-.47-.883-.134.071-.107.108.71.704zm0-1.746l-.71.704.106.107.135.072.469-.883zM1.71.296A1 1 0 00.29 1.704L1.71.296zm0 13.277l5.018-5.061-1.42-1.408L.29 12.165l1.42 1.409zm4.777-4.882c.308-.163.588-.397.795-.7L5.63 6.864a.243.243 0 01-.081.062l.938 1.766zm.795-.7a1.87 1.87 0 00.332-1.056h-2c0-.02.004-.038.008-.052.004-.014.009-.02.008-.02l1.652 1.129zm.332-1.056a1.87 1.87 0 00-.332-1.057L5.63 7.006s-.004-.006-.008-.02a.172.172 0 01-.008-.051h2zm-.332-1.057a2.215 2.215 0 00-.795-.7l-.938 1.767c.06.032.08.06.081.061l1.652-1.128zm-.554-.52L1.71.296.29 1.704l5.017 5.062 1.42-1.408z" fill="#007BFF"/></svg><svg fill="none" viewBox="0 0 227 223" id="big-star" xmlns="http://www.w3.org/2000/svg"><path opacity=".2" d="M219.663 78.744l-68.05-10.098-30.42-62.97a8.62 8.62 0 00-3.887-3.968c-4.234-2.135-9.38-.356-11.498 3.968l-30.42 62.97-68.05 10.098a8.5 8.5 0 00-4.905 2.545A8.87 8.87 0 00.001 87.52a8.86 8.86 0 002.593 6.165l49.235 49.012-11.632 69.21a8.914 8.914 0 00.504 4.779 8.716 8.716 0 002.902 3.785 8.446 8.446 0 004.423 1.647 8.407 8.407 0 004.607-.989l60.868-32.675 60.867 32.675a8.364 8.364 0 005.441.876c4.663-.821 7.799-5.337 6.995-10.098l-11.632-69.21 49.235-49.012a8.808 8.808 0 002.493-5.008c.723-4.79-2.547-9.223-7.237-9.934zm-65.209 57.058l9.675 57.551-50.628-27.147-50.63 27.175 9.676-57.551-40.953-40.776 56.605-8.401L113.501 34.3l25.301 52.352 56.605 8.4-40.953 40.749z" fill="#BDBDBD"/></svg><svg fill="none" viewBox="0 0 1209 528" id="career-arrow" xmlns="http://www.w3.org/2000/svg"><path d="M673.501 283c-252 39-528.935 19.004-631.457 10.545-1.035 97.084-.48 201.617-.48 201.617S632.045 479.947 771.501 438c166.231-50 226.763-159.679 315.839-239.862l81.66 68.109L1163.53.002 850.793 75.718l86.939 29.141C903.554 151.658 817.456 260.722 673.501 283z" fill="url(#dpaint0_linear)"/><defs><linearGradient id="dpaint0_linear" x1="564.365" y1="-90.529" x2="619.18" y2="393.362" gradientUnits="userSpaceOnUse"><stop stop-color="#E9E9E9"/><stop offset="1" stop-color="#fff"/></linearGradient></defs></svg><svg fill="none" viewBox="0 0 21 21" id="close" xmlns="http://www.w3.org/2000/svg"><path d="M20.314 1.25l-19.002 19M1.312 1.25l19.002 19" stroke="#007BFF" stroke-linecap="round"/></svg><svg fill="none" viewBox="0 0 21 21" id="delete" xmlns="http://www.w3.org/2000/svg"><circle cx="10.5" cy="10.5" r="10" stroke="#007BFF"/><path d="M15.826 5.141L5.176 15.86M5.175 5.14l10.65 10.718" stroke="#007BFF" stroke-linecap="round"/></svg><svg fill="none" viewBox="0 0 8 6" id="dropdown" xmlns="http://www.w3.org/2000/svg"><path d="M4 6l3.464-6H.536L4 6z" fill="#007BFF"/></svg><svg fill="none" viewBox="0 0 21 21" id="edit" xmlns="http://www.w3.org/2000/svg"><path d="M14.622 8.186l1.57-1.444a.861.861 0 00-.105-1.35v0a.86.86 0 00-1.086.107L13.5 7m1.122 1.186L7.22 14.992S5 16 5.048 15.992c.085-.017 1.086-2.499 1.086-2.499L13.5 7m1.122 1.186L13.5 7" stroke="#007BFF"/><circle cx="10.5" cy="10.5" r="10" stroke="#007BFF"/></svg><svg fill="none" viewBox="0 0 61 196" id="illustration-01" xmlns="http://www.w3.org/2000/svg"><path d="M3.244 71.827c-.5-1.498-1.926-11.07-1.926-16.896 2.08-1.04 8.251-.996 8.168 0-.678 8.114 0 15.647 0 17.52 0 1.498.416 5.618.624 7.49.624 3.745 3.995 11.236 2.497 11.236-1.873 0-2.497-1.249-3.121-2.497-.624-1.249-5.618-14.98-6.242-16.853z" fill="#F3CFA4"/><path d="M31.957 28.133c-.5.5-.209 3.12 0 4.37 1.04 2.288 2.996 6.99 2.496 7.49-.5.499-11.235 3.745-13.732-1.873.208-1.457.75-4.494 1.248-4.994.5-.5-1.456-5.617-2.496-8.114l4.993-21.847c4.37 1.873 11.182 8.695 12.43 11.816.656 1.639.054 8.782.054 10.03 0 1.25-4.37 2.498-4.993 3.122z" fill="#EECDA7"/><path d="M14.48 187.302l.623-5.618 4.94-4.209 2.542 9.976-3.493 1.177-4.613-1.326z" fill="#CDCDCD"/><path d="M31.137 185.564c-3.798.399-8.753-.304-8.695-.926-1.207-.503-.058.621-2.039 1.691-1.98 1.069-5.03.158-5.651.101-.622-.058-.969 3.671-.463 4.972.506 1.3 4.293 1.026 4.914 1.084.622.058.058-.621.738-1.185.679-.564.663 1.347 8.353-.444 5.126-1.195 6.009-5.625 2.843-5.293z" fill="#033A76"/><path d="M27.587 28.756c1.998-.499 1.249-8.738 2.497-9.987 1.873-4.369 7.49-3.744 7.49-12.483 0-2.497-7.49-5.618-16.228-6.242-8.74-.625-8.115 5.617-9.988 8.114-1.872 2.497-1.248 8.739.625 13.732 1.872 4.994 5.617 6.866 6.866 8.115 1.248 1.248 4.993 2.497 4.993 1.248 0-1.248 1.249-1.872 3.745-2.497z" fill="#463A2B"/><path d="M30.51 189.082l.6-8.093 5.833-2.697 1.613 12.012-8.047-1.222z" fill="#CDCDCD"/><path d="M47.013 186.017c-3.79.47-8.757-.116-8.711-.739-1.216-.48-.046.622-2.006 1.729-1.96 1.106-5.026.253-5.649.207-.622-.046-.991 4.934-.461 6.225.53 1.291 4.31.945 4.933.992.623.046.047-.623.715-1.199.669-.577 1.195.807 8.85-1.129 5.103-1.29 5.488-6.478 2.33-6.086z" fill="#034892"/><path d="M13.854 162.957c0-37.451-6.241-58.05-4.369-69.286 12.068-.416 36.203-.624 36.203 1.873 0 3.12-1.248 35.579-1.248 40.573 0 4.993-4.994 47.439-6.242 48.687-1.248 1.248-7.958 1.248-8.114 0-.625-4.993 1.248-33.083 1.248-35.58 0-2.496-1.873-32.457-2.497-35.578-.25-1.248-.624 0-.624 1.873 0 1.872-.624 25.591-1.248 27.464-.625 1.873-4.994 39.948-4.994 41.197 0 1.248-7.923 1.295-8.115.624-1.248-4.369 0-18.102 0-21.847z" fill="#0076F4"/><path d="M31.956 96.794c4.994 0 11.444-.625 14.981-2.497 1.873 0-6.242-43.694-5.618-46.19 6.106-4.232 12.614-8.806 12.312-9.108-2.216-2.216-5.319-5.32-7.092-7.978-.186-.28-2.66.443-5.762 1.33-1.416.404-6.446.73-7.626 1.355-1.56.826-3.745 1.873-6.242 1.873-1.997 0-6.188-.997-8.06-3.077-2.497-.624-10.665 3.701-13.162 4.95C3.19 38.7-.555 56.175.069 56.8c.615.614 6.673.62 9.84.624h.147c.624 0 0-1.872 1.302-6.197 0 4.369-.624 11.859-1.872 18.1-.857 4.285-1.873 20.6-1.873 23.096 0 2.497 18.102 4.37 24.343 4.37z" fill="url(#ipaint0_linear)"/><path d="M34.999 15.6c1.597 0 11.759 8.902 16.64 13.354 0 0-4.853 2.717-4.657 2.953 2.216 2.659 5.407 6.205 5.762 6.205 2.216-2.216 1.945-1.58 6.205-5.319 2.66-2.334 1.561-5.514.896-6.85-.666-1.335-4.442-4.447-7.544-6.004-3.103-1.556-10.195-6.86-14.64-8.346-3.993-1.335-5.325-4.006-7.321-4.674-1.997-.668-3.994 0-7.322.668s-1.331 4.674 1.331 5.342c2.663.667 5.376.795 4.66 2.67-.643 1.681 3.993 0 5.99 0z" fill="#F3CFA4"/><defs><linearGradient id="ipaint0_linear" x1="9.685" y1="64.608" x2="53.641" y2="64.621" gradientUnits="userSpaceOnUse"><stop stop-color="#68B1FF"/><stop offset="1" stop-color="#007BFF"/></linearGradient></defs></svg><svg fill="none" viewBox="0 0 105 179" id="illustration-02" xmlns="http://www.w3.org/2000/svg"><path d="M83.945 14.451c1.333 1.63-3.11 15.082-13.769 26.496-4.145-5.979-8.084-10.762-4.886-11.414 3.997-.816 10.749-12.637 8.883-13.86-1.332-.817-15.713-5.3-17.49-5.707-1.776-.407-5.161-.408-6.938 0-1.776.407.444-.817.444-1.632s-3.997.408-6.218.408c-2.22 0-3.553-4.076-.444-5.3C46.636 2.22 55.519 6.296 57.74 6.296c1.776.326 23.939 5.386 26.205 8.156zM14.368 81.278c.108-1.24 1.638-19.763 2.854-23.488l9.22.677c-.427 2.74-1.944 8.426-2.196 11.317-.315 3.615-3.58 14.423-4.323 16.447-.742 2.024-6.057 13.714-6.665 14.189-.607.475-1.416 2.369-2.519 2.933-1.778.909-3.81.632-2.252-.165 1.778-.909 1.825-1.425 1.217-.95-.419.327-1.115.935-3.51 1.301-2.296.351-3.536.26-5.11.144-2.25-.165-.382-2.106 1.35-2.499 2.795-.633 6.128-1.691 6.415-2.127.653-.991 5.384-16.23 5.519-17.78z" fill="#F3CFA4"/><path d="M40.32 26.421c1.682 4.119.934 9.355 0 10.385 3.365 2.745 8.293 3.877 8.71 4.03 9.154 3.373 5.834-6.41 4.712-6.41-1.122 0-4.713-3.886-1.908-8.005.94-1.38-11.909-.964-11.515 0z" fill="#E6C49B"/><path d="M54.93 20.756c-.192-2.287-1.445-7.365-2.771-10.854-.337.303-1.293 1.236-2.426 2.538-1.416 1.627-10.361 1.328-12.175 1.909-1.45.464.322 3.224.383 4.574-.334-.285-1.612.398-3.222.444-2.013.058-.222 4.768.98 6.144.71.815.508 2.416.41 2.858a.715.715 0 01-.02-.047c-.036.215-.015.202.02.047.215.46.764.23 1.38 1.852.796 2.094 3.77 2.09 6.627 3.162 1.469.55 8.824-1.184 10.24-2.811 1.415-1.628.74-7.816.573-9.816z" fill="#F3CFA4"/><path d="M42.715 3.344c2.185.255 7.98.4 10.014 5.748 1.012 2.66 2.143 5.116 1.442 5.507-.702.39-2.876 2-4.451 2.022-1.947.026-8.255-.7-8.81 1.27-.9 3.184-3.254 4.026-3.237 5.215-.009-.594-.228-2.315-1.77-1.224-.748.528.43 2.847 1.82 4.789.477.666 1.163-.372.759-1.437.54 1.42 1.192 2.088 1.516 2.94.404 1.064.705 2.27.871 3.054.186.879 1.39 3.51.757 3.58-.22.024-1.05-2.124-2.627-2.106-2.406.028-5.524-3.477-7.699-5.765-2.174-2.288-2.959-2.635-4.198-7.61-1.24-4.976 1.391-11.786 5.842-13.808 4.45-2.022 7.04-2.495 9.771-2.175z" fill="#463A2B"/><path d="M76.739 156.713c1.412-.84 3.834-3.188 3.834-3.188l4.605-2.519c-1.163 1.509-.423 5.737-3.11 8.56-1.216 1.279-6.742-2.014-5.33-2.853zM44.648 164.918c.752-2.381 2.597-5.297 2.877-6.574h6.772c-.604 1.66-2.3 4.724-3.694 6.957-.804 1.289-4.471.001-5.955-.383z" fill="#CDCDCD"/><path d="M85.404 165.106c-.574-.756-2.008-3.835-3.335-5.539-1.026.706-4.442-1.223-5.33-2.853-.444.407-3.369 3.545-3.312 3.963.124.914 1.334 2.071 1.555 2.142.222.072.716-.314.716-.314s-.031 1.628 3.264 5.426c3.908 4.504 8.929 4.026 10.43 2.785.993-.82-1.568-2.421-3.988-5.61zM54.501 171.646c-.58-.752-2.543-5.004-3.574-6.873-1.13.555-4.29 0-5.623-1.539-.265.454-1.764 2.839-1.777 3.261-.028.92.813 1.39.99 1.477.177.087.739-.265.739-.265s-.502 1.821 2.007 4.885c3.768 4.603 7.271 5.015 9.283 4.836 3.575-.319 1.025-1.797-2.045-5.782z" fill="#034892"/><path d="M104.764 110.651c-1.776-12.228-31.478-23.642-34.143-24.05l-16.434 4.892 13.769 16.305c7.846 1.359 15.489 4.402 17.266 5.707 2.22 1.63-4.588 30.039-8.483 40.762-.74 2.038 4.885 5.707 7.106 4.484 2.221-1.223 22.696-35.871 20.919-48.1z" fill="#0774E8"/><path d="M61.293 89.862c-1.421.653-15.99 4.349-23.096 6.115 0 4.891 18.154 15.897 20.82 16.712 2.664.816-13.27 44.839-14.157 48.1-.508 1.865 6.73 4.14 7.55 3.261 2.665-2.853 31.923-45.654 30.59-52.176-1.332-6.522-19.93-22.827-21.707-22.011z" fill="#0076F4"/><path d="M65.911 50.615c.267 11.527 4.496 24.671 5.153 36.392-6.706 3.701-30.5 8.659-32.867 8.967-2.367.309-3.234-7.811-3.998-11.005-2.968-12.421-2.474-21.022-4.441-22.827-.888-.816-3.498-.735-3.892 1.63-.422 2.527-8.673-4.559-8.989-5.299-1.042-2.446 7.107-13.044 8.989-15.082 1.88-2.038 13.418-7.646 14.996-7.337 1.578.308 5.914 3.668 10.66 3.668 4.745 0 1.037-5.916 2.22-5.299 1.184.617 2.221 1.223 3.554 1.63 1.966.602 6.516-6.929 8.883-6.929 2.366 0 7.101 12.835 6.707 13.452-.394.617-7.039 5.264-6.975 8.04z" fill="url(#jpaint0_linear)"/><defs><linearGradient id="jpaint0_linear" x1="26.919" y1="63.296" x2="72.909" y2="63.309" gradientUnits="userSpaceOnUse"><stop stop-color="#68B1FF"/><stop offset="1" stop-color="#007BFF"/></linearGradient></defs></svg><svg fill="none" viewBox="0 0 76 239" id="illustration-03" xmlns="http://www.w3.org/2000/svg"><path d="M74.368 231.605l-.618-5.561-4.89-4.167-2.516 9.876 3.458 1.165 4.566-1.313z" fill="#CDCDCD"/><path d="M57.878 229.887c3.76.394 8.666-.302 8.608-.917 1.195-.498.058.615 2.018 1.673 1.96 1.059 4.98.157 5.595.1.615-.057.959 3.634.458 4.922-.5 1.288-4.25 1.016-4.865 1.074-.615.057-.057-.616-.73-1.173-.672-.558-.657 1.333-8.269-.44-5.075-1.183-5.948-5.568-2.815-5.239z" fill="#033A76"/><path d="M19.903 178.182l-.64-8.628-6.22-2.876-1.72 12.807 8.58-1.303z" fill="#CDCDCD"/><path d="M2.306 174.915c4.041.501 9.337-.125 9.288-.788 1.297-.512.05-.282 2.139.898 2.09 1.179 5.358.27 6.022.22.664-.049 1.058 5.261.492 6.637-.565 1.377-4.596 1.008-5.26 1.058-.664.049-.05-.664-.762-1.278-.713-.615-1.275 1.806-9.436-.258-5.44-1.376-5.85-6.907-2.483-6.489z" fill="#034892"/><path d="M15.557 116.73c3.295-6.399 20.756-5.972 22.733-5.972.879 0 3.493.512 6.92 2.559 4.282 2.56 20.756-3.839 22.733 0 1.977 3.839 2.965 67.825 2.965 73.37 0 4.437 4.613 42.868 3.842 43.125-1.156.385-6.165.385-7.32-.771-1.399-1.397-5.747-31.689-8.053-38.088-2.307-6.399-5.28-53.982-7.578-54.174-16.35-1.367-22.906-3.844-25.212-2.138-2.307 1.706-3.53 39.646-6.165 40.072-2.109.341-7.05-.078-8.477-1.926-.33-15.784.976-50.938 3.612-56.057z" fill="#0076F4"/><path d="M28.513 51.414c-2.26-4.868-8.395-14.987-8.696-16.1-.377-1.39-5.273-15.994-5.273-17.037 0-1.043.063-8.824-1.443-8.476-.296.068-.434.195-.475.355.01-1.424-.058-3.078-1.837-2.667-3.013.695-6.186 2.637-5.66 4.53 1.422 5.103 3.767 5.562 3.767 6.953 0 1.39 3.61 16.59 4.142 18.08 2.375 6.656 7.787 21.335 8.54 21.683.602.278 5.429-5.12 6.935-7.321zM65.44 50.149c-1.966-7.714-6.74-19.35-7.683-21.084-4.446-8.181-12.9-18.395-14.547-19.823-.92-.798-2.142-7.34-4.86-7.532-2.717-.193-4.828 3.051-3.897 3.907.542.498.937.845 1.218 1.08-.086-.024-.164-.022-.222.021-1.541 1.156 1.639 3.347 2.901 4.802 1.01 1.164 4.154 5.885 5.6 8.1 1.655 3.358 4.155 7.352 4.858 8.538.792 1.338 8.227 20.776 9 23.17-.024.04-.025.085 0 .138.089.181.083.121 0-.137.354-.57 5.807.277 7.633-1.18z" fill="#F3CFA4"/><path d="M47.008 115.761c-3.902-.77-9.553-2.734-13.387-4.495 0-.899 1.154-28.481-1.922-35.797-2.307-4.656-10.165-17.959-12.305-17.959-1.278 0 7.306-7.981 9.998-7.65.362.046 2.313 1.58 4.23 3.992 4.229 5.321 9.324 3.386 9.918 3.658 1.692.777 2.688 1.225 5.394 1.225 2.165 0 5.677-.355 7.706-2.312 2.312-2.571.05-2.677-1.156-6.164-.784-2.27 8.078-4.83 10.386-3.832.857.37 2.358 10.418 1.588 14.741-.715 4.022-2.307 7.317-3.083 11.351 0 4.11 1.258 11.05 2.03 17.025 1.795 13.888 2.565 25.025 2.565 27.373 0 2.349-15.324.155-21.962-1.156z" fill="url(#kpaint0_linear)"/><path d="M44.415 51.392c.577.298 1.342 2.647 1.192 3.812-.294 2.284-2.645 2.078-2.067 2.376.577.298 6.55 3.082 12.33-.385 3.853-2.312 1.54-4.45 0-7.148-.323-.564-1.521-2.358-1.283-4.824L44.219 27.542c-3.347 2.84-7.502 10.672-7.753 13.74-.132 1.61 2.349 7.676 2.689 8.766.34 1.089 4.539.972 5.26 1.344z" fill="#F3CFA4"/><path d="M48.61 50.974c-1.897.105-3.531-7.438-4.978-8.206-2.865-3.375-7.637-1.273-10.069-9.054-.695-2.223 5.03-7.064 12.55-10.025 7.52-2.96 8.708 2.77 11.051 4.477 2.344 1.708 3.532 7.437 3.273 12.4-.259 4.96-3.034 7.659-3.786 9.114-.752 1.455-3.701 3.598-4.049 2.486-.347-1.112-1.62-1.324-3.992-1.192z" fill="#463A2B"/><defs><linearGradient id="kpaint0_linear" x1="59.996" y1="82.877" x2="19.265" y2="82.886" gradientUnits="userSpaceOnUse"><stop stop-color="#68B1FF"/><stop offset="1" stop-color="#007BFF"/></linearGradient></defs></svg><svg fill="none" viewBox="0 0 47 391" id="left-down-arrow" xmlns="http://www.w3.org/2000/svg"><path d="M42 1c-24 91.392-56.8 297.142 4 389m0 0L.5 342.5M46 390s-9-9.475-9-57.5" stroke="url(#lpaint0_linear)" stroke-opacity=".5" stroke-linecap="round"/><defs><linearGradient id="lpaint0_linear" x1="23.25" y1="1" x2="23.25" y2="390" gradientUnits="userSpaceOnUse"><stop stop-color="#96C2F0"/><stop offset="1" stop-color="#8DB9F1"/></linearGradient></defs></svg><svg fill="none" viewBox="0 0 16 13" id="mark" xmlns="http://www.w3.org/2000/svg"><path d="M1.742 5.292a1 1 0 00-1.484 1.34l1.484-1.34zm3.758 5.65l.903-.43-.063-.132-.098-.108-.742.67zm.338.435l.607-.795-.607.795zm.877 0l-.607-.795.607.795zm.338-.435l-.799-.602-.06.081-.044.092.903.43zm8.298-9.34A1 1 0 1013.754.398l1.597 1.204zM.258 6.632l4.5 4.98 1.484-1.34-4.5-4.98-1.484 1.34zm4.339 4.74c.142.3.351.584.635.8l1.213-1.59c.007.006.005.006-.004-.006a.345.345 0 01-.038-.063l-1.806.859zm.635.8c.288.22.648.362 1.044.362v-2c.092 0 .15.035.169.048l-1.213 1.59zm1.044.362c.397 0 .757-.141 1.045-.362l-1.213-1.59a.288.288 0 01.168-.048v2zm1.045-.362c.284-.216.492-.5.635-.8l-1.806-.86a.345.345 0 01-.038.064c-.009.012-.011.012-.004.006l1.213 1.59zm.53-.628l7.5-9.942L13.754.398l-7.5 9.942 1.597 1.204z" fill="#007BFF"/></svg><svg fill="none" viewBox="0 0 60 60" id="mouseover" xmlns="http://www.w3.org/2000/svg"><circle cx="30" cy="30" r="29.5" stroke="#F9F9F9"/><path d="M17.5 22l-5.088 1.018A3 3 0 0010 25.96V44a3 3 0 003 3h33.833a3 3 0 003-3V25.922a3 3 0 00-2.366-2.933L42.5 21.917" stroke="#F9F9F9"/><path d="M42.5 22l-2.906-7.132A3 3 0 0036.816 13H23.184a3 3 0 00-2.778 1.868L17.5 22" stroke="#F9F9F9" stroke-linecap="round"/><circle cx="30" cy="32" r="9" stroke="#F9F9F9"/><path d="M30.165 27.583c-.86-.111-2.8.016-3.666 1.416-.867 1.4-.917 2.75-.834 3.25" stroke="#F9F9F9" stroke-linecap="round"/></svg><svg fill="none" viewBox="0 0 47 391" id="right-down-arrow" xmlns="http://www.w3.org/2000/svg"><path d="M5 1c24 91.392 56.8 297.142-4 389m0 0l45.5-47.5M1 390s9-9.475 9-57.5" stroke="url(#opaint0_linear)" stroke-opacity=".5" stroke-linecap="round"/><defs><linearGradient id="opaint0_linear" x1="23.75" y1="1" x2="23.75" y2="390" gradientUnits="userSpaceOnUse"><stop stop-color="#96C2F0"/><stop offset="1" stop-color="#8DB9F1"/></linearGradient></defs></svg><svg fill="none" viewBox="0 0 911 629" id="road" xmlns="http://www.w3.org/2000/svg"><path d="M689.765 339.917c-1.2 51.603 131.5 82.77 285 54.228l7.735 176.386c-7.167.381-59.071 12.615-193-12.558-164-30.825-256.938-110.728-255.5-201.019 2-125.583 226.5-132.345 226.5-180.865 0-58.796-279-107.316-251.5 23.974 26.916 128.504-172.5 170.108-249 170.108S59.5 352.475 56.41 271.988C51.938 155.539 339.38 166.044 335.409 116.151 328.5 29.356 125 85.5.5 89.5l6-28.862c61 0 175.5-26.715 243.5-26.715 91.5 0 153.5 27.999 153.5 83.37 0 67.929-236.5 59.935-235 127.865 1.4 63.383 181 73.637 235 8.563 21.89-26.378 0-61.649 16.5-107.316 16.5-45.666 96-71.924 217.5-70.212C759 77.906 861.45 120.62 861 186.835c-.512 75.349-169.775 90.29-171.235 153.082z" fill="url(#ppaint0_linear)"/><path d="M24 80c286.5-60.5 345.5-14.804 345.5 35.999 0 57.653-269.788 52.414-266.5 138.039 1.534 39.958 64.315 86.883 149.5 78.204 218.5-22.262 203-60.557 203-168.482s349-78.825 349 17.074c0 80.5-197 64.385-197 158.001 0 66.787 87.55 110.038 183.5 142 83.5 27.814 197.333-4.934 204.5-5.315" stroke="#F9F9F9" stroke-dasharray="50 50"/><path d="M753.79 392.851c1.491-.334 4.237-5.843 4.583-9.248l7.985 5.061c-2.193 5.646-7.058 16.89-8.981 16.694-2.404-.244-30.69-14.652-31.413-13.512-.723 1.141-10.694-2.3-14.056-5.07-3.361-2.77.254-8.474 1.395-7.751 1.14.723 7.507 3.798 8.169 3.258.662-.54-2.517-5.112-.714-4.929 3.32.337 5.338 7.22 7.079 8.004 1.742.784 24.089 7.911 25.953 7.493zM824.658 379.756c-.219-2.188-4.929-10.097-8.66-13.226l-10.312 6.117c1.929 1.781 7.247 6.096 5.953 7.827-1.295 1.73-6.041 8.525-7.876 9.626l-4.36 13.943c9.14-7.556 25.605-20.787 25.255-24.287z" fill="#F3CFA4"/><path d="M849.469 477.706l-6.561 1.626-4.211 6.519 12.228 1.44.844-4.327-2.3-5.258z" fill="#CDCDCD"/><path d="M850.04 497.725c-.127-4.566-1.743-10.329-2.47-10.163-.786-1.351.727-.166 1.683-2.682.955-2.517-.606-5.988-.773-6.716-.166-.727 4.199-1.727 5.821-1.333 1.622.394 1.895 4.927 2.061 5.654.167.728-.727.167-1.288 1.061-.561.895 1.702.574.791 9.973-.607 6.265-5.719 8.01-5.825 4.206z" fill="#033A76"/><path d="M814.197 467.593c-.704-11.004-1.972-46.337-5.099-45.441-6.378 5.019-19.775 16.565-19.685 20.46.113 4.868 8.258 33.756 12.502 38.305 4.38 4.695 43.372 6.861 44.309 6.098 1.323-1.08 2.779-9.432 2.239-10.094-.54-.662-34.032-5.66-34.266-9.328z" fill="#006CE0"/><path d="M766.283 527.058l2.366-10.181-6.137-5.553-6.591 14.15 10.362 1.584z" fill="#CDCDCD"/><path d="M758.521 519.618l.001-.003-.001.003c-.197.777-6.881-.63-11.355-2.659-3.734-1.693-5.251 4.832.529 8.377 8.669 5.316 10.187 2.727 10.788 3.692.601.965-.364 1.566.419 1.748.783.182 5.3 2.057 6.447.673 1.147-1.384 2.603-7.649 1.82-7.831-.783-.182-4.698-.497-6.866-2.421-1.617-1.436-1.786-1.543-1.782-1.579z" fill="#034892"/><path d="M758.188 463.118c.196-1.923 8.329-22.225 12.371-32.135l33.742-15.394c1.942.804 5.848 3.387 5.939 7.282.112 4.868-33.667 44.543-35.174 47.426-1.507 2.882-5.667 49.816-6.512 52.159-.845 2.342-9.493-2.179-9.972-3.442-.479-1.263-.638-53.492-.394-55.896z" fill="#0076F4"/><path d="M789.971 431.133c-4.704.971-15.62 2.374-20.013-.211-.849-33.479.057-36.423-.587-48.023-.488 4.808-1.873 6.488-3.502 10.573-.233.583-9.073-8.03-7.976-11.132 1.369-3.871 3.677-11.987 4.653-15.92 1.029-4.145 1.822-11.958 7.474-13.812 13.038 3.145 15.425-4.378 15.926-4.083 1.938 1.14 5.948 1.448 9.2 1.779 2.603.264 5.348 1.15 9.371 3.38 8.047 4.46 13.384 11.681 14.943 14.267.312.518-6.985 9.005-8.493 11.888-.626 1.196-5.849-6.863-5.999-6.681-.693.84.86 11.766 1.713 18.994 1.958 16.592 3.427 26.033 3.14 28.855-.287 2.822-6.066 7.282-19.85 10.126z" fill="url(#ppaint1_linear)"/><path d="M770.899 345.17c.657.429 1.29 3.346.967 4.727-.632 2.709-3.165 2.822-2.508 3.251.658.428 7.23 3.856 14.599.394 4.914-2.308 2.396-5.16.873-8.59-.319-.717-1.54-3.02-.953-5.954l-10.302-22.517c-4.369 3.005-10.319 11.911-10.995 15.567-.355 1.92 1.885 9.514 2.161 10.864.277 1.351 5.337 1.723 6.158 2.258z" fill="#F3CFA4"/><path d="M775.992 345.18c-2.293-.105-3.336-9.37-4.981-10.47-3.031-4.405-9.023-2.462-10.996-12.11-.564-2.757 6.908-7.876 16.307-10.517 9.399-2.64 10.127 4.391 12.735 6.73 2.609 2.338 3.337 9.37 2.42 15.301-.916 5.932-4.582 8.836-5.663 10.493-1.081 1.657-4.887 3.872-5.169 2.493-.282-1.378-1.786-1.788-4.653-1.92z" fill="#463A2B"/><defs><linearGradient id="ppaint0_linear" x1="733.584" y1="335.703" x2="407.782" y2="560.963" gradientUnits="userSpaceOnUse"><stop stop-color="#DEDEDE"/><stop offset="1" stop-color="#FCFCFC"/></linearGradient><linearGradient id="ppaint1_linear" x1="805.974" y1="393.924" x2="757.174" y2="388.979" gradientUnits="userSpaceOnUse"><stop stop-color="#68B1FF"/><stop offset="1" stop-color="#007BFF"/></linearGradient></defs></svg></svg>