<svg width="253" height="241" fill="none" xmlns="http://www.w3.org/2000/svg"><path d="M19.015 160.586c0-44.183 35.817-80 80-80h67.27c44.182 0 80 35.817 80 80v15.979H19.015v-15.979z" fill="url(#paint0_linear)" fill-opacity=".5"/><path d="M19.32 182.828a5 5 0 005 5h217.022a5 5 0 005-5v-19.694a5 5 0 00-5-5H24.321a5 5 0 00-5 5v19.694z" fill="#7AB4F7"/><path d="M19.598 224.551h227.145v-39.84H19.598v39.84z" fill="#A8CBF3"/><path d="M6.338 152.117c0-10.001 8.108-18.109 18.11-18.109 10 0 18.108 8.108 18.108 18.109v71.437a1 1 0 01-1 1H7.338a1 1 0 01-1-1v-71.437zm210.067 0c0-10.001 8.107-18.109 18.109-18.109 10.001 0 18.109 8.108 18.109 18.109v71.437a1 1 0 01-1 1h-34.218a1 1 0 01-1-1v-71.437z" fill="#8FBDF3"/><path d="M180.639 197.843c-.534-.02-2.801-3.843-3.169-5.886l-7.244 2.264c.77 3.184.394 10.511 2.529 10.592 2.67.101 8.551-6.945 7.884-6.97zm-37.154 26.213c1.045-.309.906-6.276.975-8.076l-9.984-1.055c.539 3.401.529 7.187 1.002 8.828.59 2.051 5.98.903 8.007.303z" fill="#CDCDCD"/><path d="M135.367 81.944c1.358 0-.906 2.264 2.818 7.593-1.058 2.965-3.941 8.514-4.449 9.531-.508 1.017-8.504-3.987-11.046-7.164 0 0 .375-1.004.906-1.358 2.716-1.81 3.153-7.988 3.153-7.988 1.059.212 2.412.753 4.445 1.261 2.542.635 3.274-1.874 4.173-1.875z" fill="#E6C49B"/><path d="M179.483 85.727c-3.558 0-18.214.635-26.051.635l3.813 10.801c4.236-.847 13.089-2.541 14.613-2.541 1.907 0 13.343-1.27 16.52-1.27 3.177 0 12.708.635 13.979.635 1.271 0 1.906 2.541 3.177 3.176 1.27.636 1.906-.635 1.27-1.27-.635-.636-1.27-3.813 1.907-1.271 3.176 2.541 6.989 1.27 8.26 0 1.852-1.853-5.084-4.448-8.26-6.354-3.177-1.906-24.78-2.541-29.228-2.541zm-78.533 54.304c.121-1.52 1.844-24.241 3.213-28.81l10.379.831c-.481 3.361-2.189 10.334-2.473 13.881-.354 4.434-4.029 17.691-4.865 20.174-.836 2.483-12.82 16.822-13.503 17.405-.685.582-1.595 2.906-2.836 3.597-2.002 1.115-4.29.775-2.535-.203 2.001-1.114 2.053-1.747 1.37-1.165-.472.402-1.256 1.147-3.953 1.596-2.584.431-3.98.319-5.75.178-2.534-.203-.431-2.584 1.52-3.066 3.145-.776 6.897-2.075 7.22-2.609.734-1.216 12.061-19.908 12.213-21.809z" fill="#F3CFA4"/><path d="M142.95 234.887c-.362 2.049-1.04 5.241-3.801 5.423-2.663.176-5.11-4.11-5.126-7.656-.015-3.069-.155-4.086.89-13.533 1.12.586 3.674 1.186 5.776.803 1.921-.35 3.33-.789 3.732-1.255.359 2.176-.352 5.155-.248 6.732.044.657-.425 1.581-1.071 1.624a.193.193 0 01-.073-.009c.035 1.444.052 2.842.073 3.158.034.526.185 2.81-.152 4.713z" fill="#034892"/><path d="M154.524 145.804c-6.856-4.338-41.794 7.219-41.794 7.219s-1.067 5.405 0 11.77c1.518 9.055 11.391 6.524 15.393 6.524 4.001 0 13.845-4.694 19.748 0 4.752 3.78 21.21 28.406 22.811 27.876 2.001-.664 9.504-4.739 9.504-6.615 0-.945-12.462-25.252-13.306-26.93-4.002-7.956-7.128-16.536-12.356-19.844z" fill="#0076F4"/><path d="M125.476 87.632c.78.346 2.669 5.084 5.718 5.084 3.05 0 5.719-4.448 6.356-5.084.637-.635 4.865.743 8.258 0 2.611-.57 5.57-2.472 6.354-2.541.635-.056 7.912 12.708 7.275 13.978-.57 1.136-11.705 4.273-12.978 5.544-1.421 1.42 7.94 39.533 7.339 40.204-9.377 10.47-40.95 9.682-40.95 8.26 0-1.591-.397-26.096 1.962-39.41-2.295.178-11.775-1.801-12.223-2.7-.634-1.271 5.783-16.082 7.084-18.251 1.301-2.17 4.417-3.98 10.166-5.084 4.368-.838 4.86-.345 5.639 0z" fill="url(#paint1_linear)"/><path d="M188.544 195.385c-3.095.542-7.739.452-9.673 0-.215.903-1.29 2.438-3.87 4.064-3.224 2.032-3.869.677-3.869 3.387 0 2.168.43 4.516 1.29 5.42l4.514-.678c1.935 0 0-2.032 2.579-2.032 3.225 0 14.833-2.709 18.058-7.451 3.224-4.742-5.159-3.388-9.029-2.71z" fill="#034892"/><path d="M133.618 216.071c.839 2.144 11.901 1.636 11.946.452.045-1.184.564-15.639 2.102-31.181 2.177-21.993-4.535-23.272-12.601-21.417-6.886 1.584-4.623 20.626-4.623 23.768 0 4.549 2.337 26.234 3.176 28.378z" fill="#0774E8"/><path d="M119.85 74.027c-.617-2.372-1.235-7.908-1.235-11.863.412.198 1.606.83 3.088 1.78 1.853 1.186 12.353-2.373 14.206-2.373 1.483 0 .824 3.361 1.235 4.745.206-.395 1.606-.118 3.089-.593 1.853-.593 1.853 4.745 1.235 6.525-.366 1.053.374 2.605.616 3.02a.936.936 0 00.002-.055c.107.206.083.2-.002.055-.037.533-.616.48-.616 2.318 0 2.373-3.088 2.966-4.941 5.338-1.048 1.342-9.265 1.78-11.118.593-1.853-1.186-5.018-7.415-5.559-9.49z" fill="#F3CFA4"/><path d="M125.814 52.139c-1.915.959-7.179 2.968-7.18 8.992-.001 2.996-.182 5.826.598 5.993.779.166 3.335 1.084 4.787.6 1.795-.6 8.975-3.597 10.172-1.799 1.936 2.908 4.388 2.998 4.787 4.197-.199-.6-.598-2.398 1.197-1.799.869.29.598 2.997 0 5.395-.206.822-1.197 0-1.197-1.2 0 1.6-.598 3.237-.598 4.196 0 1.198-.949 3.348-1.796 4.195-.598.6-.451 1.414-.598 1.8-.152.399.066 2.177.598 2.397.328.135 1.07-1.543 1.197-1.798.599-1.2.599 0 1.197-.6.846-.847 2.833-2.018 3.59-2.397 1.197-.6 2.394-5.394 3.59-8.391 1.197-2.997 1.795-3.598 1.197-8.992-.598-5.395-5.385-11.387-10.172-11.987-4.787-.599-8.976 0-11.369 1.198z" fill="#463A2B"/><path d="M63.563 122.18c6.276-.01 15.684-12.492 19.604-18.732 4.686 5.053 11.637 20.449 10.932 21.439-9.167 12.878-25.58 20.522-30.544 19.004-3.97-1.215-9.479-14.36-9.154-23.308.44.536 2.886 1.607 9.162 1.597z" fill="#F6F6F6"/><path d="M56.283 130.205c1.126 4.205 5.63 11.172 7.273 13.685-7.672-3.312-13.936-17.533-15.616-33.729l6.63 9.87c.102 1.639.587 5.969 1.713 10.174z" fill="#E6E6E6"/><path d="M80.66 112.588l7.874 13.65-1.495 1.855-7.51-13.412 1.131-2.093z" fill="url(#paint2_linear)"/><path d="M75.18 117.729l7.994 13.302-1.701 1.336-7.51-13.412 1.217-1.226z" fill="url(#paint3_linear)"/><path d="M69.585 122.214l6.837 13.254-2.276 1.41-6.722-13.516 2.16-1.148z" fill="url(#paint4_linear)"/><path d="M63.074 125.751l6.72 13.517-2.024.812-7.071-14.453 2.375.124z" fill="url(#paint5_linear)"/><path d="M46.902 28.914c4.961 3.968 20.297.074 27.344-2.369.5 6.959-3.767 23.517-4.952 23.852-15.395 4.359-33.196-.004-36.153-4.347-2.365-3.475 1.614-17.343 7.54-24.201.007.701 1.26 3.097 6.221 7.065z" fill="#F6F6F6"/><path d="M36.07 30.637c-1.776 4.034-2.634 12.387-2.929 15.412-3.958-7.475.105-22.671 9.04-36.522L41.163 21.52c-.958 1.359-3.319 5.085-5.094 9.117z" fill="#E6E6E6"/><path d="M66.476 32.173l-2.24 15.638-2.548.644 2.57-15.347 2.218-.935z" fill="url(#paint6_linear)"/><path d="M58.893 32.76l-2.117 15.566-2.19-.023 2.57-15.347 1.737-.197z" fill="url(#paint7_linear)"/><path d="M51.635 32.755l-3.162 15.056-2.528-.589 3.256-14.93 2.434.463z" fill="url(#paint8_linear)"/><path d="M44.252 31.424l-3.257 14.93-2.447-.879 3.908-15.653 1.796 1.602z" fill="url(#paint9_linear)"/><path d="M217.9 233.523c-8.844-1.415-12.529-9.434-13.266-13.266-.001-4.864 4.864-20.784 9.728-23.879-2.211 3.685-4.953 11.674 1.769 14.15 6.721 2.477 20.488-2.211 26.532-4.864l-13.708 28.301c0 .442-2.211.973-11.055-.442z" fill="#F6F6F6"/><path d="M232.584 214.066l-6.725 15.036-2.093-.127 6.857-14.376 1.961-.533z" fill="url(#paint10_linear)"/><path d="M226.257 214.802l-6.147 13.415-1.768-.442 6.167-12.746 1.748-.227z" fill="url(#paint11_linear)"/><path d="M220.111 214.51l-6.161 11.704-1.799-1.091 5.871-10.51 2.089-.103z" fill="url(#paint12_linear)"/><path d="M214.597 212.953l-5.469 10.2-1.399-1.126 5.749-10.171 1.119 1.097z" fill="url(#paint13_linear)"/><path d="M214.362 196.379c-.442.442-8.844 11.939-9.728 24.321 0-4.245 2.653-20.931 3.979-28.743 2.064 1.327 6.103 4.068 5.749 4.422z" fill="#E6E6E6"/><path d="M31.115 207.663c-4.267 4.978-15.261 12.742-20.002 16.002C16.003 239.667 28.003 241 29.337 241c1.334 0 19.558-14.668 19.558-16.891 0-1.778-7.408-16.15-10.668-24.003-.889 1.038-2.845 2.579-7.112 7.557z" fill="#F6F6F6"/><path d="M33.291 211.915l7.028 13.274-1.58 1.334-6.786-13.278 1.338-1.33z" fill="url(#paint14_linear)"/><path d="M28.986 214.891l6.666 13.654-1.339 1.012-6.678-13.411 1.351-1.255z" fill="url(#paint15_linear)"/><path d="M24.005 217.945l6.16 13.951-1.502 1.021-6.16-13.607 1.502-1.365z" fill="url(#paint16_linear)"/><path d="M19.235 220.771l6.102 14.006-1.334.889-6.081-13.954 1.313-.941z" fill="url(#paint17_linear)"/><path d="M12.446 225.903c4.343 8.684 5.778 11.113 16.89 14.669-8 .444-20.446-8.446-29.336-14.669.444-.148 2.222 0 4-.889 1.935-.967 5.038-3.704 6.223-5.334.149-.296.89 3.557 2.223 6.223z" fill="#E6E6E6"/><path d="M193.335 69.388c6.628-2.237 19.843-7.49 25.762-9.113.682-17.837-10.987-23.35-12.41-23.35-4.256 0-24.757 7.869-25.536 10.108-.623 1.791 3.47 25.266 4.256 25.004l.148-.05c1.726-.574 6.281-2.093 7.78-2.599z" fill="#F6F6F6"/><path d="M192.632 64.34l-2.429-15.838 2.059-.79 2.184 15.757-1.814.871z" fill="url(#paint18_linear)"/><path d="M198.013 62.85l-1.931-16.092 1.703-.55 2.029 15.853-1.801.79z" fill="url(#paint19_linear)"/><path d="M204.103 61.52l-1.317-16.216 1.871-.503 1.437 15.87-1.991.849z" fill="url(#paint20_linear)"/><path d="M209.899 60.343l-1.239-16.25 1.655-.428 1.237 16.191-1.653.487z" fill="url(#paint21_linear)"/><path d="M218.538 57.55c-1.332-10.271-5.999-19.03-11.851-20.626 5.852 0 17.615 15.603 24.392 24.989-.5-.007-2.24-.78-4.343-.507-2.288.297-6.374 1.967-8.139 3.194-.253.247.35-3.895-.059-7.05z" fill="#E6E6E6"/><defs><linearGradient id="paint0_linear" x1="132.65" y1="80.586" x2="132.65" y2="176.565" gradientUnits="userSpaceOnUse"><stop stop-color="#96C2F0"/><stop offset="1" stop-color="#8DB9F1"/></linearGradient><linearGradient id="paint1_linear" x1="112.823" y1="120.26" x2="159.476" y2="120.273" gradientUnits="userSpaceOnUse"><stop stop-color="#68B1FF"/><stop offset="1" stop-color="#007BFF"/></linearGradient><linearGradient id="paint2_linear" x1="80.554" y1="111.176" x2="89.513" y2="127.443" gradientUnits="userSpaceOnUse"><stop stop-color="#C4C4C4" stop-opacity="0"/><stop offset="1" stop-color="#C4C4C4"/></linearGradient><linearGradient id="paint3_linear" x1="74.987" y1="115.451" x2="83.945" y2="131.718" gradientUnits="userSpaceOnUse"><stop stop-color="#C4C4C4" stop-opacity="0"/><stop offset="1" stop-color="#C4C4C4"/></linearGradient><linearGradient id="paint4_linear" x1="69.468" y1="120.488" x2="76.987" y2="137.469" gradientUnits="userSpaceOnUse"><stop stop-color="#C4C4C4" stop-opacity="0"/><stop offset="1" stop-color="#C4C4C4"/></linearGradient><linearGradient id="paint5_linear" x1="62.657" y1="123.339" x2="70.176" y2="140.32" gradientUnits="userSpaceOnUse"><stop stop-color="#C4C4C4" stop-opacity="0"/><stop offset="1" stop-color="#C4C4C4"/></linearGradient><linearGradient id="paint6_linear" x1="67.287" y1="30.992" x2="64.053" y2="49.51" gradientUnits="userSpaceOnUse"><stop stop-color="#C4C4C4" stop-opacity="0"/><stop offset="1" stop-color="#C4C4C4"/></linearGradient><linearGradient id="paint7_linear" x1="60.183" y1="30.838" x2="56.95" y2="49.356" gradientUnits="userSpaceOnUse"><stop stop-color="#C4C4C4" stop-opacity="0"/><stop offset="1" stop-color="#C4C4C4"/></linearGradient><linearGradient id="paint8_linear" x1="52.635" y1="31.318" x2="47.814" y2="49.488" gradientUnits="userSpaceOnUse"><stop stop-color="#C4C4C4" stop-opacity="0"/><stop offset="1" stop-color="#C4C4C4"/></linearGradient><linearGradient id="paint9_linear" x1="45.451" y1="29.256" x2="40.63" y2="47.426" gradientUnits="userSpaceOnUse"><stop stop-color="#C4C4C4" stop-opacity="0"/><stop offset="1" stop-color="#C4C4C4"/></linearGradient><linearGradient id="paint10_linear" x1="233.571" y1="213.061" x2="225.197" y2="230.386" gradientUnits="userSpaceOnUse"><stop stop-color="#C4C4C4" stop-opacity="0"/><stop offset="1" stop-color="#C4C4C4"/></linearGradient><linearGradient id="paint11_linear" x1="227.287" y1="213.836" x2="220.127" y2="228.65" gradientUnits="userSpaceOnUse"><stop stop-color="#C4C4C4" stop-opacity="0"/><stop offset="1" stop-color="#C4C4C4"/></linearGradient><linearGradient id="paint12_linear" x1="220.726" y1="214.616" x2="213.445" y2="226.852" gradientUnits="userSpaceOnUse"><stop stop-color="#C4C4C4" stop-opacity="0"/><stop offset="1" stop-color="#C4C4C4"/></linearGradient><linearGradient id="paint13_linear" x1="215.92" y1="211.622" x2="208.64" y2="223.858" gradientUnits="userSpaceOnUse"><stop stop-color="#C4C4C4" stop-opacity="0"/><stop offset="1" stop-color="#C4C4C4"/></linearGradient><linearGradient id="paint14_linear" x1="33.18" y1="210.422" x2="40.718" y2="226.23" gradientUnits="userSpaceOnUse"><stop stop-color="#C4C4C4" stop-opacity="0"/><stop offset="1" stop-color="#C4C4C4"/></linearGradient><linearGradient id="paint15_linear" x1="28.686" y1="213.521" x2="36.293" y2="229.267" gradientUnits="userSpaceOnUse"><stop stop-color="#C4C4C4" stop-opacity="0"/><stop offset="1" stop-color="#C4C4C4"/></linearGradient><linearGradient id="paint16_linear" x1="24.644" y1="217.493" x2="30.75" y2="233.542" gradientUnits="userSpaceOnUse"><stop stop-color="#C4C4C4" stop-opacity="0"/><stop offset="1" stop-color="#C4C4C4"/></linearGradient><linearGradient id="paint17_linear" x1="19.47" y1="219.909" x2="25.317" y2="235.277" gradientUnits="userSpaceOnUse"><stop stop-color="#C4C4C4" stop-opacity="0"/><stop offset="1" stop-color="#C4C4C4"/></linearGradient><linearGradient id="paint18_linear" x1="192.221" y1="65.884" x2="190.166" y2="47.314" gradientUnits="userSpaceOnUse"><stop stop-color="#C4C4C4" stop-opacity="0"/><stop offset="1" stop-color="#C4C4C4"/></linearGradient><linearGradient id="paint19_linear" x1="197.835" y1="64.336" x2="195.689" y2="45.805" gradientUnits="userSpaceOnUse"><stop stop-color="#C4C4C4" stop-opacity="0"/><stop offset="1" stop-color="#C4C4C4"/></linearGradient><linearGradient id="paint20_linear" x1="203.301" y1="61.752" x2="202.773" y2="43.44" gradientUnits="userSpaceOnUse"><stop stop-color="#C4C4C4" stop-opacity="0"/><stop offset="1" stop-color="#C4C4C4"/></linearGradient><linearGradient id="paint21_linear" x1="209.36" y1="61.129" x2="208.854" y2="43.596" gradientUnits="userSpaceOnUse"><stop stop-color="#C4C4C4" stop-opacity="0"/><stop offset="1" stop-color="#C4C4C4"/></linearGradient></defs></svg>