<svg width="29" height="28" fill="none" xmlns="http://www.w3.org/2000/svg"><path d="M21.744 7.941a.5.5 0 00.308.93 9.03 9.03 0 00.834-.136c-.27.25-.559.482-.863.694a.5.5 0 00-.216.424l.015.523c-.004 5.168-4.057 11.117-11.478 11.117h0a11.686 11.686 0 01-4.374-.842 9.098 9.098 0 004.457-1.789.5.5 0 00-.296-.898 3.746 3.746 0 01-2.14-.705 3.665 3.665 0 01-.982-1.06 4.883 4.883 0 001.212-.157.5.5 0 00-.033-.975 3.678 3.678 0 01-2.126-1.238 3.58 3.58 0 01-.761-1.538c.422.135.863.21 1.31.224a.5.5 0 00.286-.92c-.995-.643-1.645-1.744-1.645-2.979h0c0-.397.068-.789.2-1.16a12.502 12.502 0 003.532 2.59 12.654 12.654 0 004.991 1.284.5.5 0 00.51-.616 3.48 3.48 0 01-.095-.814c0-1.965 1.646-3.585 3.709-3.585h.001a3.781 3.781 0 011.476.295 3.73 3.73 0 011.235.843.5.5 0 00.453.144 9.134 9.134 0 001.366-.372c-.254.28-.552.522-.886.716z" stroke="#F9F9F9" stroke-linecap="round" stroke-linejoin="round"/><path d="M23.179 1H4.857C1 1 1 1 1 5.333v17.334C1 27 1 27 5.916 27h17.263C28 27 28 27 28 22.667V5.333C28 1 28 1 23.179 1z" stroke="#F9F9F9" stroke-miterlimit="10"/></svg>