<svg width="27" height="27" fill="none" xmlns="http://www.w3.org/2000/svg"><path d="M22.363 11.676h-3.625V9.504c0-.501.064-.742.17-.872.084-.103.29-.245.92-.245a293.12 293.12 0 012.221.009l.148.001h.053l.492.005.013-.491.09-3.418.012-.484-.484-.028-.029.5.029-.5h0-.008l-.021-.002-.082-.004a99.505 99.505 0 00-1.332-.065 65.668 65.668 0 00-2.611-.072c-2 0-3.499.596-4.5 1.578-.997.98-1.448 2.294-1.448 3.634v2.626H9.579v4.66h2.79V26.5H4.822c-1.219 0-2.085-.001-2.723-.083-.635-.081-.937-.23-1.118-.44-.193-.223-.334-.609-.407-1.37C.501 23.856.5 22.842.5 21.442V4.747c0-1.199 0-2.055.072-2.688.072-.636.206-.936.381-1.11.178-.174.487-.307 1.135-.378C2.733.501 3.604.5 4.821.5h17.353c1.215.021 2.086.038 2.73.118.65.082.962.218 1.143.396.177.174.31.47.38 1.094.072.621.073 1.461.073 2.64v16.694c0 1.4 0 2.413-.075 3.164-.075.76-.217 1.144-.415 1.367-.187.211-.5.362-1.152.444-.655.082-1.542.083-2.788.083h-3.332V16.336h3.921l.023-.476.18-3.66.026-.524h-.525z" stroke="#F9F9F9"/></svg>