<svg width="150" height="37" fill="none" xmlns="http://www.w3.org/2000/svg"><path d="M49.453 6.046c-1.292.053-2.306 1.15-2.27 2.454a2.384 2.384 0 002.404 2.328c1.292-.02 2.335-1.085 2.339-2.393 0-.65-.263-1.276-.727-1.731a2.348 2.348 0 00-1.746-.658zm2.246 6.26h-4.536v9.523c0 1.67-.958 2.307-2.327 2.945l1.571 3.32c2.8-.846 5.292-2.475 5.292-6.533v-9.255zm6.573-.43c-3.571 0-5.797 2.287-5.797 5.935 0 3.912 2.286 5.992 5.797 5.992 3.575 0 5.801-2.303 5.801-5.931 0-3.937-2.286-5.996-5.801-5.996zm0 3.233c.84 0 1.188.723 1.188 2.763 0 1.897-.348 2.677-1.188 2.677-.836 0-1.184-.699-1.184-2.738 0-1.918.328-2.702 1.184-2.702zm13.925-3.233a3.61 3.61 0 00-2.816 1.32V7.549l-4.536.45v15.353h4.043l.126-.906a3.371 3.371 0 002.815 1.361c2.78 0 4.392-2.596 4.392-5.935 0-3.71-1.285-5.996-4.02-5.996h-.004zm-1.773 8.693a1.169 1.169 0 01-1.063-.658l.02-.081v-3.855a1.436 1.436 0 011.184-.866c.553 0 1.042.289 1.042 2.763 0 2.14-.489 2.697-1.183 2.697zm46.287-8.263h-4.347l-.675 7.524-.961-7.524h-4.145l-1.264 7.524-.368-7.524h-4.593l2.121 11.046h5.086l.937-6.983 1.042 6.983h5.102l2.065-11.046zm5.756-.43c-3.571 0-5.797 2.287-5.797 5.935 0 3.912 2.287 5.992 5.797 5.992 3.575 0 5.801-2.303 5.801-5.931 0-3.937-2.286-5.996-5.801-5.996zm0 3.233c.84 0 1.188.723 1.188 2.763 0 1.897-.348 2.677-1.188 2.677-.836 0-1.184-.699-1.184-2.738 0-1.918.328-2.702 1.184-2.702zm13.642-3.172c-1.208 0-2.327 1.011-2.739 2.433l-.367-2.06h-3.959v11.042h4.532v-4.737c.267-1.26.635-2.246 1.919-2.246a3.5 3.5 0 011.022.187l.695-4.412c-.355-.13-.727-.2-1.103-.207zm5.939-4.388l-4.533.455v15.348h4.533V7.55zm7.19 4.761h-4.431l-2.675 5.005 2.222 6.037h4.985L146.6 17.15l2.638-4.839zM87.164 8.723c-2.957 0-4.367 1.65-4.367 3.42 0 1.321.55 2.146 1.96 3.523-1.839 1.219-2.76 2.328-2.76 4.038 0 2.413 2.02 3.997 5.046 3.997a6.786 6.786 0 004.472-1.543l1.591 1.543 2.756-1.3-2.473-2.201a14.834 14.834 0 001.883-3.835l-2.699-.8a14.74 14.74 0 01-.977 2.965l-2.755-2.616c1.571-1.053 2.694-2.166 2.694-3.896 0-1.873-1.612-3.295-4.37-3.295zm.04 2.1c.344-.024.68.102.918.35.242.248.359.585.33.93 0 .865-.448 1.483-1.389 2.1-.856-.865-1.163-1.336-1.163-2.06a1.254 1.254 0 01.355-.962c.25-.252.598-.382.954-.358h-.005zm-.61 6.598l3.309 3.193a3.638 3.638 0 01-2.31.78c-1.346 0-2.223-.74-2.223-1.873a2.525 2.525 0 011.224-2.104v.004z" fill="#007BFF"/><path fill-rule="evenodd" clip-rule="evenodd" d="M17.916.932c9.663 0 17.496 7.905 17.496 17.655s-7.833 17.656-17.496 17.656C8.253 36.243.42 28.337.42 18.587S8.253.932 17.916.932zm1.713 11.249h-1.14a2.306 2.306 0 00-2.286 2.307V29.84h.19c1.785-.008 3.228-1.466 3.236-3.266V12.181zm-9.942-2.133h1.143a2.297 2.297 0 012.283 2.307v13.622h-.19c-1.782-.004-3.228-1.462-3.236-3.262V10.048zm16.49 0h-1.14a2.303 2.303 0 00-2.285 2.307v13.622h.19c1.785-.004 3.227-1.462 3.235-3.262V10.048z" fill="#007BFF"/></svg>