<?xml version="1.0" encoding="utf-8"?><svg viewBox="0 0 911 629" xmlns="http://www.w3.org/2000/svg" xmlns:xlink="http://www.w3.org/1999/xlink"><style>:root>svg{display:none}:root>svg:target{display:block}</style><svg fill="none" viewBox="0 0 8 14" id="arrow-left" xmlns="http://www.w3.org/2000/svg"><path d="M7.323 12.165a1 1 0 11-1.42 1.409l1.42-1.409zM1.596 7.808l.469-.883.134.071.107.108-.71.704zm0-1.746l.71.704-.107.107-.134.072-.47-.883zM5.903.296a1 1 0 011.42 1.408L5.903.296zm0 13.277L.886 8.512l1.42-1.408 5.017 5.061-1.42 1.409zM1.127 8.691a2.215 2.215 0 01-.795-.7l1.65-1.128c.002.002.023.03.083.062L1.127 8.69zm-.795-.7a1.87 1.87 0 01-.333-1.056h2a.172.172 0 00-.008-.052c-.004-.014-.008-.02-.008-.02L.332 7.992zm-.333-1.056c0-.388.124-.752.333-1.057l1.65 1.128s.005-.006.01-.02a.172.172 0 00.007-.051H0zm.333-1.057c.206-.303.487-.536.795-.7l.938 1.767a.243.243 0 00-.082.061L.332 5.878zm.554-.52L5.903.296l1.42 1.408-5.017 5.062-1.42-1.408z" fill="#007BFF"/></svg><svg fill="none" viewBox="0 0 8 14" id="arrow-right" xmlns="http://www.w3.org/2000/svg"><path d="M.29 12.165a1 1 0 101.42 1.409L.29 12.164zm5.728-4.357l-.47-.883-.134.071-.107.108.71.704zm0-1.746l-.71.704.106.107.135.072.469-.883zM1.71.296A1 1 0 00.29 1.704L1.71.296zm0 13.277l5.018-5.061-1.42-1.408L.29 12.165l1.42 1.409zm4.777-4.882c.308-.163.588-.397.795-.7L5.63 6.864a.243.243 0 01-.081.062l.938 1.766zm.795-.7a1.87 1.87 0 00.332-1.056h-2c0-.02.004-.038.008-.052.004-.014.009-.02.008-.02l1.652 1.129zm.332-1.056a1.87 1.87 0 00-.332-1.057L5.63 7.006s-.004-.006-.008-.02a.172.172 0 01-.008-.051h2zm-.332-1.057a2.215 2.215 0 00-.795-.7l-.938 1.767c.06.032.08.06.081.061l1.652-1.128zm-.554-.52L1.71.296.29 1.704l5.017 5.062 1.42-1.408z" fill="#007BFF"/></svg><svg fill="none" viewBox="0 0 227 223" id="big-star" xmlns="http://www.w3.org/2000/svg"><path opacity=".2" d="M219.663 78.744l-68.05-10.098-30.42-62.97a8.62 8.62 0 00-3.887-3.968c-4.234-2.135-9.38-.356-11.498 3.968l-30.42 62.97-68.05 10.098a8.5 8.5 0 00-4.905 2.545A8.87 8.87 0 00.001 87.52a8.86 8.86 0 002.593 6.165l49.235 49.012-11.632 69.21a8.914 8.914 0 00.504 4.779 8.716 8.716 0 002.902 3.785 8.446 8.446 0 004.423 1.647 8.407 8.407 0 004.607-.989l60.868-32.675 60.867 32.675a8.364 8.364 0 005.441.876c4.663-.821 7.799-5.337 6.995-10.098l-11.632-69.21 49.235-49.012a8.808 8.808 0 002.493-5.008c.723-4.79-2.547-9.223-7.237-9.934zm-65.209 57.058l9.675 57.551-50.628-27.147-50.63 27.175 9.676-57.551-40.953-40.776 56.605-8.401L113.501 34.3l25.301 52.352 56.605 8.4-40.953 40.749z" fill="#BDBDBD"/></svg><svg fill="none" viewBox="0 0 8 6" id="dropdown" xmlns="http://www.w3.org/2000/svg"><path d="M4 6l3.464-6H.536L4 6z" fill="#007BFF"/></svg><svg fill="none" viewBox="0 0 47 391" id="left-down-arrow" xmlns="http://www.w3.org/2000/svg"><path d="M42 1c-24 91.392-56.8 297.142 4 389m0 0L.5 342.5M46 390s-9-9.475-9-57.5" stroke="url(#epaint0_linear)" stroke-opacity=".5" stroke-linecap="round"/><defs><linearGradient id="epaint0_linear" x1="23.25" y1="1" x2="23.25" y2="390" gradientUnits="userSpaceOnUse"><stop stop-color="#96C2F0"/><stop offset="1" stop-color="#8DB9F1"/></linearGradient></defs></svg><svg fill="none" viewBox="0 0 47 391" id="right-down-arrow" xmlns="http://www.w3.org/2000/svg"><path d="M5 1c24 91.392 56.8 297.142-4 389m0 0l45.5-47.5M1 390s9-9.475 9-57.5" stroke="url(#fpaint0_linear)" stroke-opacity=".5" stroke-linecap="round"/><defs><linearGradient id="fpaint0_linear" x1="23.75" y1="1" x2="23.75" y2="390" gradientUnits="userSpaceOnUse"><stop stop-color="#96C2F0"/><stop offset="1" stop-color="#8DB9F1"/></linearGradient></defs></svg><svg fill="none" viewBox="0 0 911 629" id="road" xmlns="http://www.w3.org/2000/svg"><path d="M689.765 339.917c-1.2 51.603 131.5 82.77 285 54.228l7.735 176.386c-7.167.381-59.071 12.615-193-12.558-164-30.825-256.938-110.728-255.5-201.019 2-125.583 226.5-132.345 226.5-180.865 0-58.796-279-107.316-251.5 23.974 26.916 128.504-172.5 170.108-249 170.108S59.5 352.475 56.41 271.988C51.938 155.539 339.38 166.044 335.409 116.151 328.5 29.356 125 85.5.5 89.5l6-28.862c61 0 175.5-26.715 243.5-26.715 91.5 0 153.5 27.999 153.5 83.37 0 67.929-236.5 59.935-235 127.865 1.4 63.383 181 73.637 235 8.563 21.89-26.378 0-61.649 16.5-107.316 16.5-45.666 96-71.924 217.5-70.212C759 77.906 861.45 120.62 861 186.835c-.512 75.349-169.775 90.29-171.235 153.082z" fill="url(#gpaint0_linear)"/><path d="M24 80c286.5-60.5 345.5-14.804 345.5 35.999 0 57.653-269.788 52.414-266.5 138.039 1.534 39.958 64.315 86.883 149.5 78.204 218.5-22.262 203-60.557 203-168.482s349-78.825 349 17.074c0 80.5-197 64.385-197 158.001 0 66.787 87.55 110.038 183.5 142 83.5 27.814 197.333-4.934 204.5-5.315" stroke="#F9F9F9" stroke-dasharray="50 50"/><path d="M753.79 392.851c1.491-.334 4.237-5.843 4.583-9.248l7.985 5.061c-2.193 5.646-7.058 16.89-8.981 16.694-2.404-.244-30.69-14.652-31.413-13.512-.723 1.141-10.694-2.3-14.056-5.07-3.361-2.77.254-8.474 1.395-7.751 1.14.723 7.507 3.798 8.169 3.258.662-.54-2.517-5.112-.714-4.929 3.32.337 5.338 7.22 7.079 8.004 1.742.784 24.089 7.911 25.953 7.493zM824.658 379.756c-.219-2.188-4.929-10.097-8.66-13.226l-10.312 6.117c1.929 1.781 7.247 6.096 5.953 7.827-1.295 1.73-6.041 8.525-7.876 9.626l-4.36 13.943c9.14-7.556 25.605-20.787 25.255-24.287z" fill="#F3CFA4"/><path d="M849.469 477.706l-6.561 1.626-4.211 6.519 12.228 1.44.844-4.327-2.3-5.258z" fill="#CDCDCD"/><path d="M850.04 497.725c-.127-4.566-1.743-10.329-2.47-10.163-.786-1.351.727-.166 1.683-2.682.955-2.517-.606-5.988-.773-6.716-.166-.727 4.199-1.727 5.821-1.333 1.622.394 1.895 4.927 2.061 5.654.167.728-.727.167-1.288 1.061-.561.895 1.702.574.791 9.973-.607 6.265-5.719 8.01-5.825 4.206z" fill="#033A76"/><path d="M814.197 467.593c-.704-11.004-1.972-46.337-5.099-45.441-6.378 5.019-19.775 16.565-19.685 20.46.113 4.868 8.258 33.756 12.502 38.305 4.38 4.695 43.372 6.861 44.309 6.098 1.323-1.08 2.779-9.432 2.239-10.094-.54-.662-34.032-5.66-34.266-9.328z" fill="#006CE0"/><path d="M766.283 527.058l2.366-10.181-6.137-5.553-6.591 14.15 10.362 1.584z" fill="#CDCDCD"/><path d="M758.521 519.618l.001-.003-.001.003c-.197.777-6.881-.63-11.355-2.659-3.734-1.693-5.251 4.832.529 8.377 8.669 5.316 10.187 2.727 10.788 3.692.601.965-.364 1.566.419 1.748.783.182 5.3 2.057 6.447.673 1.147-1.384 2.603-7.649 1.82-7.831-.783-.182-4.698-.497-6.866-2.421-1.617-1.436-1.786-1.543-1.782-1.579z" fill="#034892"/><path d="M758.188 463.118c.196-1.923 8.329-22.225 12.371-32.135l33.742-15.394c1.942.804 5.848 3.387 5.939 7.282.112 4.868-33.667 44.543-35.174 47.426-1.507 2.882-5.667 49.816-6.512 52.159-.845 2.342-9.493-2.179-9.972-3.442-.479-1.263-.638-53.492-.394-55.896z" fill="#0076F4"/><path d="M789.971 431.133c-4.704.971-15.62 2.374-20.013-.211-.849-33.479.057-36.423-.587-48.023-.488 4.808-1.873 6.488-3.502 10.573-.233.583-9.073-8.03-7.976-11.132 1.369-3.871 3.677-11.987 4.653-15.92 1.029-4.145 1.822-11.958 7.474-13.812 13.038 3.145 15.425-4.378 15.926-4.083 1.938 1.14 5.948 1.448 9.2 1.779 2.603.264 5.348 1.15 9.371 3.38 8.047 4.46 13.384 11.681 14.943 14.267.312.518-6.985 9.005-8.493 11.888-.626 1.196-5.849-6.863-5.999-6.681-.693.84.86 11.766 1.713 18.994 1.958 16.592 3.427 26.033 3.14 28.855-.287 2.822-6.066 7.282-19.85 10.126z" fill="url(#gpaint1_linear)"/><path d="M770.899 345.17c.657.429 1.29 3.346.967 4.727-.632 2.709-3.165 2.822-2.508 3.251.658.428 7.23 3.856 14.599.394 4.914-2.308 2.396-5.16.873-8.59-.319-.717-1.54-3.02-.953-5.954l-10.302-22.517c-4.369 3.005-10.319 11.911-10.995 15.567-.355 1.92 1.885 9.514 2.161 10.864.277 1.351 5.337 1.723 6.158 2.258z" fill="#F3CFA4"/><path d="M775.992 345.18c-2.293-.105-3.336-9.37-4.981-10.47-3.031-4.405-9.023-2.462-10.996-12.11-.564-2.757 6.908-7.876 16.307-10.517 9.399-2.64 10.127 4.391 12.735 6.73 2.609 2.338 3.337 9.37 2.42 15.301-.916 5.932-4.582 8.836-5.663 10.493-1.081 1.657-4.887 3.872-5.169 2.493-.282-1.378-1.786-1.788-4.653-1.92z" fill="#463A2B"/><defs><linearGradient id="gpaint0_linear" x1="733.584" y1="335.703" x2="407.782" y2="560.963" gradientUnits="userSpaceOnUse"><stop stop-color="#DEDEDE"/><stop offset="1" stop-color="#FCFCFC"/></linearGradient><linearGradient id="gpaint1_linear" x1="805.974" y1="393.924" x2="757.174" y2="388.979" gradientUnits="userSpaceOnUse"><stop stop-color="#68B1FF"/><stop offset="1" stop-color="#007BFF"/></linearGradient></defs></svg></svg>