<svg width="244" height="196" fill="none" xmlns="http://www.w3.org/2000/svg"><path d="M234.885 114.804v-25.5L10.479 58.707 8.743 84.67l67.712 39.407 69.015 44.508 89.415-53.78z" fill="#E6E6E6"/><path d="M160.662 53.144c5.556 7.418 6.077 12.363 5.643 13.908-30.095 19.781-87.88 55.815-87.68 55.171.869-2.782-6.944-12.981-14.757-20.863-6.515-6.572-39.499-31.99-54.69-42.19L99.026 4c19.532 8.345 54.69 39.871 61.635 49.144z" fill="#EFEFEF"/><path d="M113.35 125.93c-18.23-11.003-35.158-3.706-35.158-3.706l89.415-56.1s5.621-3.923 9.549-4.17c7.379-.464 14.845 2.542 21.703 5.56 7.379 3.248 26.911 14.836 36.894 20.863l-91.585 57.025c-1.158-.772-8.73-6.14-30.818-19.472z" fill="#F6F6F6"/><path d="M68.208 131.031c-2.604-1.855-3.183-6.336-3.038-8.809l9.55-3.245 7.378 5.563 6.945 9.272c-2.604 1.7-7.987 5.1-8.681 5.1-.868 0-9.242-5.808-12.154-7.881z" fill="#92B4D9"/><path d="M244 117.123c-3.472-2.781-10.591-8.438-11.285-8.809l-86.811 56.098-63.806-39.871-2.17 6.027 65.976 46.826L244 117.123zM.93 87.915c2.604-1.546 7.813-4.173 7.813-4.173l65.976 35.235-6.945 4.173L.93 87.915z" fill="#96C2F0"/><path d="M147.64 61.957L95.282 18.856l-7.084 3.974 53.368 43.959 6.074-4.832z" fill="url(#paint0_linear)"/><path d="M170 71l46.221 22.012L208 97.5l-44-22 6-4.5z" fill="url(#paint1_linear)"/><path d="M151.5 83l43.019 22.677-6.945 4.636L145.5 87.499l6-4.499z" fill="url(#paint2_linear)"/><path d="M132.001 96.5l44.287 21.456-7.379 3.851L126 100l6.001-3.5z" fill="url(#paint3_linear)"/><path d="M113.5 107.5l44.854 23.583-7.251 4.117L107 110.5l6.5-3z" fill="url(#paint4_linear)"/><path d="M115.147 83.361L61.556 40.634l-7.072 4.435 55.332 42.233 5.331-3.94z" fill="url(#paint5_linear)"/><path d="M98.777 93.492L47.98 51.55l-5.705 5.594 49.806 40.045 6.696-3.697z" fill="url(#paint6_linear)"/><path d="M131.617 72.606L79.5 29.419l-6.636 3.994 53.692 42.897 5.061-3.704z" fill="url(#paint7_linear)"/><path d="M41.405 72.25c-.5-1.498-1.926-11.07-1.926-16.896 2.08-1.04 8.25-.995 8.168 0-.678 8.114 0 15.648 0 17.52 0 1.499.416 5.619.624 7.491.624 3.745 3.995 11.236 2.497 11.236-1.873 0-2.497-1.249-3.121-2.497-.624-1.249-5.618-14.98-6.242-16.853z" fill="#F3CFA4"/><path d="M70.117 28.557c-.5.499-.208 3.12 0 4.369 1.04 2.289 2.996 6.99 2.497 7.49-.5.5-11.236 3.745-13.732-1.872.208-1.457.749-4.494 1.248-4.994.5-.5-1.456-5.618-2.497-8.114l4.994-21.847c4.37 1.872 11.182 8.695 12.43 11.816.656 1.639.054 8.782.054 10.03 0 1.249-4.37 2.497-4.994 3.122z" fill="#EECDA7"/><path d="M52.64 187.725l.624-5.617 4.94-4.209 2.541 9.976-3.493 1.177-4.612-1.327z" fill="#CDCDCD"/><path d="M69.298 185.988c-3.799.399-8.754-.305-8.696-.926-1.207-.503-.058.621-2.038 1.691-1.98 1.069-5.03.158-5.651.1-.622-.057-.969 3.672-.463 4.972.506 1.301 4.292 1.027 4.914 1.085.622.058.058-.622.737-1.185.68-.564.664 1.347 8.353-.445 5.127-1.194 6.01-5.624 2.844-5.292z" fill="#033A76"/><path d="M65.748 29.18c1.998-.5 1.248-8.738 2.497-9.987 1.873-4.369 7.49-3.745 7.49-12.483 0-2.497-7.49-5.618-16.229-6.243-8.739-.624-8.114 5.618-9.987 8.115-1.872 2.497-1.248 8.739.624 13.732 1.873 4.994 5.618 6.866 6.867 8.115 1.248 1.248 4.993 2.497 4.993 1.248 0-1.248 1.248-1.872 3.745-2.497z" fill="#463A2B"/><path d="M68.67 189.505l.6-8.092 5.833-2.697 1.613 12.012-8.046-1.223z" fill="#CDCDCD"/><path d="M85.174 186.441c-3.79.47-8.758-.117-8.711-.739-1.217-.48-.047.622-2.006 1.729-1.96 1.106-5.026.253-5.649.207-.622-.046-.992 4.933-.462 6.225.53 1.291 4.312.945 4.934.991.623.046.046-.622.715-1.198.669-.577 1.195.807 8.85-1.129 5.103-1.29 5.487-6.478 2.329-6.086z" fill="#034892"/><path d="M52.015 163.381c0-37.452-6.242-58.05-4.37-69.286 12.069-.416 36.204-.624 36.204 1.873 0 3.12-1.248 35.579-1.248 40.573 0 4.993-4.994 47.438-6.242 48.687-1.249 1.248-7.959 1.248-8.115 0-.624-4.993 1.249-33.083 1.249-35.58 0-2.496-1.873-32.457-2.497-35.578-.25-1.248-.624 0-.624 1.872 0 1.873-.624 25.592-1.249 27.465-.624 1.872-4.993 39.948-4.993 41.197 0 1.248-7.923 1.295-8.115.624-1.248-4.37 0-18.102 0-21.847z" fill="#0076F4"/><path d="M70.117 97.218c4.994 0 11.444-.625 14.98-2.498 1.873 0-6.241-43.693-5.617-46.19 6.106-4.232 12.614-8.805 12.311-9.107-2.216-2.217-5.318-5.32-7.091-7.978-.187-.28-2.66.443-5.762 1.33-1.416.404-6.447.73-7.626 1.355-1.56.826-3.745 1.872-6.242 1.872-1.997 0-6.188-.996-8.06-3.076-2.498-.625-10.666 3.701-13.162 4.95-2.497 1.248-6.242 18.724-5.618 19.348.614.615 6.673.621 9.839.624h.148c.624.001 0-1.871 1.302-6.197 0 4.37-.624 11.86-1.873 18.102-.857 4.284-1.872 20.599-1.872 23.095 0 2.497 18.101 4.37 24.343 4.37z" fill="url(#paint8_linear)"/><path d="M73.16 16.023c1.597 0 11.758 8.903 16.64 13.355 0 0-4.853 2.717-4.657 2.953 2.216 2.659 5.407 6.205 5.762 6.205 2.216-2.217 1.945-1.58 6.205-5.32 2.66-2.333 1.561-5.514.895-6.849-.665-1.335-4.441-4.448-7.544-6.004-3.102-1.556-10.194-6.86-14.64-8.346-3.993-1.336-5.324-4.006-7.32-4.674-1.998-.668-3.994 0-7.322.668-3.328.667-1.332 4.674 1.33 5.341 2.663.668 5.377.796 4.66 2.671-.642 1.68 3.994 0 5.99 0z" fill="#F3CFA4"/><defs><linearGradient id="paint0_linear" x1="147.925" y1="63.198" x2="92.43" y2="5.633" gradientUnits="userSpaceOnUse"><stop stop-color="#C4C4C4" stop-opacity="0"/><stop offset="1" stop-color="#C4C4C4"/></linearGradient><linearGradient id="paint1_linear" x1="173.663" y1="67.652" x2="209.078" y2="104.387" gradientUnits="userSpaceOnUse"><stop stop-color="#C4C4C4" stop-opacity="0"/><stop offset="1" stop-color="#C4C4C4"/></linearGradient><linearGradient id="paint2_linear" x1="158.906" y1="78.459" x2="194.32" y2="115.195" gradientUnits="userSpaceOnUse"><stop stop-color="#C4C4C4" stop-opacity="0"/><stop offset="1" stop-color="#C4C4C4"/></linearGradient><linearGradient id="paint3_linear" x1="142.845" y1="89.952" x2="178.26" y2="126.688" gradientUnits="userSpaceOnUse"><stop stop-color="#C4C4C4" stop-opacity="0"/><stop offset="1" stop-color="#C4C4C4"/></linearGradient><linearGradient id="paint4_linear" x1="123.111" y1="102.491" x2="159.677" y2="137.916" gradientUnits="userSpaceOnUse"><stop stop-color="#C4C4C4" stop-opacity="0"/><stop offset="1" stop-color="#C4C4C4"/></linearGradient><linearGradient id="paint5_linear" x1="120.011" y1="89.269" x2="65.548" y2="32.774" gradientUnits="userSpaceOnUse"><stop stop-color="#C4C4C4" stop-opacity="0"/><stop offset="1" stop-color="#C4C4C4"/></linearGradient><linearGradient id="paint6_linear" x1="107.045" y1="102.61" x2="51.55" y2="45.045" gradientUnits="userSpaceOnUse"><stop stop-color="#C4C4C4" stop-opacity="0"/><stop offset="1" stop-color="#C4C4C4"/></linearGradient><linearGradient id="paint7_linear" x1="134.645" y1="76.001" x2="79.15" y2="18.436" gradientUnits="userSpaceOnUse"><stop stop-color="#C4C4C4" stop-opacity="0"/><stop offset="1" stop-color="#C4C4C4"/></linearGradient><linearGradient id="paint8_linear" x1="47.846" y1="65.032" x2="91.802" y2="65.044" gradientUnits="userSpaceOnUse"><stop stop-color="#68B1FF"/><stop offset="1" stop-color="#007BFF"/></linearGradient></defs></svg>