<svg width="212" height="217" fill="none" xmlns="http://www.w3.org/2000/svg"><path d="M191.245.785l19.823 90.166H27L45.296.8a1 1 0 01.98-.801h143.992a1 1 0 01.977.785z" fill="url(#paint0_linear)" fill-opacity=".5"/><path d="M65.477 22.251a1 1 0 011-1H199.87a1 1 0 011 1v156.101a1 1 0 01-1 1H66.477a1 1 0 01-1-1v-156.1z" fill="url(#paint1_linear)"/><path d="M44.054 13.75a1 1 0 011-1h148.599a1 1 0 011 1v174.037a1 1 0 01-1 1H45.054a1 1 0 01-1-1V13.75z" fill="#F6F6F6"/><path d="M64.319 32.145a1 1 0 011-1h100.829a1 1 0 011 1v6.5a1 1 0 01-1 1H65.319a1 1 0 01-1-1v-6.5z" fill="url(#paint2_linear)"/><path d="M63.562 71.246a1 1 0 011-1H165.39a1 1 0 011 1v6.5a1 1 0 01-1 1H64.561a1 1 0 01-1-1v-6.5z" fill="url(#paint3_linear)"/><path d="M64.319 110.347a1 1 0 011-1h100.829a1 1 0 011 1v6.5a1 1 0 01-1 1l-100.829-.001a1 1 0 01-1-1v-6.499z" fill="url(#paint4_linear)"/><path d="M64.192 90.796a1 1 0 011-1h100.83a1 1 0 011 1v6.5a1 1 0 01-1 1H65.192a1 1 0 01-1-1v-6.5z" fill="url(#paint5_linear)"/><path d="M64.319 149.447a1 1 0 011-1l100.829.001a1 1 0 011 1v6.499a1 1 0 01-1 1H65.319a1 1 0 01-1-1v-6.5z" fill="url(#paint6_linear)"/><path d="M64.192 129.896a1 1 0 011-1l100.83.001a1 1 0 011 1v6.5a1 1 0 01-1 1l-100.83-.001a1 1 0 01-1-1v-6.5z" fill="url(#paint7_linear)"/><path d="M64.192 51.695a1 1 0 011-1h100.83a1 1 0 011 1v6.5a1 1 0 01-1 1H65.192a1 1 0 01-1-1v-6.5z" fill="url(#paint8_linear)"/><path d="M27 90.95h184.068v102.701a1 1 0 01-1 1H28a1 1 0 01-1-1v-102.7z" fill="url(#paint9_linear)" fill-opacity=".5"/><path d="M53.92 122.92l-25.897 27.261a4.629 4.629 0 106.712 6.376l25.897-27.261-6.712-6.376z" fill="#057EFF"/><path d="M43.83 128.22L5.712 168.345A8.294 8.294 0 0017.74 179.77l38.118-40.125-12.026-11.425z" fill="url(#paint10_linear)"/><path d="M47.49 95.558c0 20.922 17.385 38.058 39.048 38.058 21.664 0 39.048-17.136 39.048-38.058S108.202 57.5 86.539 57.5c-21.664 0-39.048 17.136-39.048 38.058z" stroke="url(#paint11_linear)" stroke-width="9"/><path d="M51.898 95.558c0 19.131 15.51 33.651 34.64 33.651 19.132 0 34.641-14.52 34.641-33.651 0-19.132-15.509-33.65-34.64-33.65-19.132 0-34.64 14.519-34.64 33.65z" fill="url(#paint12_linear)" fill-opacity=".6"/><path d="M151.745 106.676c1.894 5.052 1.052 11.474 0 12.737 3.789 3.368 9.299 4.945 9.805 4.945.631 0 6.059-8.927 4.796-8.927s-4.796-3.703-1.639-8.755c1.058-1.694-13.406-1.183-12.962 0z" fill="#E6C49B"/><path d="M169.344 100.513c.296-2.562.116-8.413-.48-12.525-.406.269-1.575 1.11-3.001 2.324-1.783 1.518-10.781-.572-12.742-.287-1.57.227-.366 3.62-.593 5.123-.278-.38-1.718.123-3.359-.143-2.051-.332-1.246 5.219-.324 6.974.546 1.04-.003 2.766-.197 3.235a.93.93 0 01-.01-.056c-.083.23-.058.221.01.056.119.549.724.405 1.001 2.316.358 2.467 3.371 3.049 6.036 4.793 1.369.897 9.191.429 10.974-1.089 1.783-1.518 2.426-8.481 2.685-10.721z" fill="#F3CFA4"/><path d="M160.704 78.891c2.158.712 7.997 2.011 8.911 8.314.455 3.135 1.075 6.068.281 6.362-.794.293-3.342 1.642-4.942 1.356-1.978-.354-8.212-2.395-9.197-.332-1.594 3.338-4.159 3.805-4.397 5.12.119-.657.266-2.6-1.53-1.699-.871.437-.175 3.227.818 5.644.34.829 1.258-.182 1.076-1.436.242 1.672.76 2.539.905 3.542.182 1.254.229 2.646.229 3.542 0 1.007.656 4.148 0 4.101-.229-.017-.61-2.551-2.21-2.841-2.443-.442-4.851-4.924-6.564-7.877-1.712-2.953-2.432-3.491-2.621-9.226-.189-5.735 3.935-12.734 8.877-14.091 4.941-1.356 7.666-1.369 10.364-.479z" fill="#463A2B"/><path d="M162.434 117.411c2.021-1.01 1.111-.97 2.585-2.864 3.982-.443 11.504-.265 13.274.443 2.526 1.01 5.438 3.9 7.964 6.637 0 .442-5.309 10.176-6.637 9.734-.958-.319-1.77-.885-5.309-3.982 0 6.194-.766 12.008-.261 14.028.631 2.526-25.508 27.154-28.665 29.68-3.158 2.525-17.002 3.733-16.548 1.894 1.208-4.895 1.209-7.55 1.209-14.187.885-11.947 2.655-27.433 4.424-34.955 2.203-9.363 17.487-9.274 18.602-8.407 3.982 3.097 6.836 3.242 9.362 1.979z" fill="url(#paint13_linear)"/><path d="M190.602 198.871c0-1.895-.632-5.052-.632-5.052l5.683-5.683c.842 2.105.632 3.789 1.895 8.209.572 2.003-6.946 4.42-6.946 2.526zm-10.735 7.578c-.632-1.895-.758-3.537-1.263-5.052l6.946-6.315c.421 2.105.631 6.315.631 9.472 0 1.822-4.63 1.474-6.314 1.895z" fill="#CDCDCD"/><path d="M204.492 202.029c-.918-.659-4.842-4.21-6.947-5.683-.8 1.201-4.769 1.671-6.945 2.526 0 .631-.861 2.063-.63 2.525.505 1.011 2.262 1.895 2.526 1.895.264 0 .632-.632.632-.632s.631 1.895 5.681 5.052c5.987 3.744 11.122 1.309 12.209-.689.719-1.321-2.655-2.212-6.526-4.994zm-11.259 7.828c-.968-.584-5.07-4.93-7.052-6.565-.893 1.134-4.312 1.642-6.548 2.322-.05.63-1.021 1.989-.827 2.468.424 1.047 2.098 2.138 2.323 2.156.226.018.632-.631.632-.631s.378 2.272 4.473 4.582c6.151 3.47 9.967 2.351 11.952 1.241 3.53-1.973.173-2.482-4.953-5.573z" fill="#034892"/><path d="M128.837 187.997c-1.262-5.385-.561-15.044.766-19.469 1.895 0 7.08 3.097 11.062.443 4.489-2.993 15.205-31.666 21.52-33.245 6.946-1.737 7.367 1.473 9.472 3.157 1.895-2.525 3.162-5.104 11.367-4.421 7.577.631 10.595 23.373 10.735 24.628.631 5.683 5.052 30.941 5.052 32.836 0 1.894-9.473 6.314-9.473 5.683 0-.632-10.735-32.835-10.735-31.572 0 1.263 9.233 30.877 8.841 32.835-.631 3.157-7.578 5.69-10.103 5.685-.632-.002-13.461-34.066-14.092-30.277-.632 3.789-11.363 17.389-15.947 19.026-6.194 2.213-16.909 1.328-18.465-5.309z" fill="#0076F4"/><path d="M150.436 160.984c-1.894-.632-13.293-22.355-13.293-22.986l1.673-5.56c2.526.632 7.051-.38 8.061 1.135 1.263 1.895 7.98 19.202 8.611 19.833.632.631 15.601-.364 17.495-.364.148-.59 1.505-.885 2.213-.885.885 0-.443.885-.443 1.327 0 .443 2.213-.885 3.54-.885s4.867 2.533 2.831 3.458c-4.206 1.912-4.425 1.77-7.965 1.328-1.263 0-20.828 4.23-22.723 3.599z" fill="#E6C49B"/><path d="M196.434 143.307c1.263-5.683-6.199-14.482-10.619-20.796-.443.885-.89 1.461-5.31 8.407 2.105 3.368 5.752 7.839 5.752 8.85 0 1.262-1.963 5.438-5.752 7.964-3.789 2.526-5.761 4.332-6.194 4.425-2.065.442-4.862-.453-5.31.442-.442.885 4.05 1.77-2.212 1.77-2.213 0-3.983 4.425-.443 4.867 3.54.443 5.758-.938 10.177-2.655 1.679-.652 19.358-10.783 19.911-13.274z" fill="#F3CFA4"/><path d="M135.373 141.537c-.505-1.01-1.77-4.424-1.77-10.619.885-9.292 1.31-12.832 10.602-15.044-.505 3.536 2.189 11.804 4.083 18.329-3.578 2.105-12.41 8.345-12.915 7.334z" fill="url(#paint14_linear)"/><defs><linearGradient id="paint0_linear" x1="119.034" y1="0" x2="119.034" y2="90.951" gradientUnits="userSpaceOnUse"><stop stop-color="#96C2F0"/><stop offset="1" stop-color="#8DB9F1"/></linearGradient><linearGradient id="paint1_linear" x1="162.737" y1="51.851" x2="206.439" y2="53.147" gradientUnits="userSpaceOnUse"><stop stop-color="#626262"/><stop offset="0" stop-color="#E1E1E1"/><stop offset="1" stop-color="#F6F6F6"/></linearGradient><linearGradient id="paint2_linear" x1="59.678" y1="30.012" x2="170.873" y2="30.012" gradientUnits="userSpaceOnUse"><stop stop-color="#C4C4C4" stop-opacity="0"/><stop offset="1" stop-color="#C4C4C4"/></linearGradient><linearGradient id="paint3_linear" x1="59.719" y1="69.113" x2="170.088" y2="69.113" gradientUnits="userSpaceOnUse"><stop stop-color="#C4C4C4" stop-opacity="0"/><stop offset="1" stop-color="#C4C4C4"/></linearGradient><linearGradient id="paint4_linear" x1="59.678" y1="107.505" x2="170.873" y2="107.505" gradientUnits="userSpaceOnUse"><stop stop-color="#C4C4C4" stop-opacity="0"/><stop offset="1" stop-color="#C4C4C4"/></linearGradient><linearGradient id="paint5_linear" x1="59.551" y1="87.954" x2="170.746" y2="87.954" gradientUnits="userSpaceOnUse"><stop stop-color="#C4C4C4" stop-opacity="0"/><stop offset="1" stop-color="#C4C4C4"/></linearGradient><linearGradient id="paint6_linear" x1="59.678" y1="146.606" x2="170.873" y2="146.606" gradientUnits="userSpaceOnUse"><stop stop-color="#C4C4C4" stop-opacity="0"/><stop offset="1" stop-color="#C4C4C4"/></linearGradient><linearGradient id="paint7_linear" x1="59.551" y1="127.055" x2="170.746" y2="127.055" gradientUnits="userSpaceOnUse"><stop stop-color="#C4C4C4" stop-opacity="0"/><stop offset="1" stop-color="#C4C4C4"/></linearGradient><linearGradient id="paint8_linear" x1="59.551" y1="48.854" x2="170.746" y2="48.854" gradientUnits="userSpaceOnUse"><stop stop-color="#C4C4C4" stop-opacity="0"/><stop offset="1" stop-color="#C4C4C4"/></linearGradient><linearGradient id="paint9_linear" x1="119.034" y1="90.95" x2="119.034" y2="194.651" gradientUnits="userSpaceOnUse"><stop stop-color="#96C2F0"/><stop offset="1" stop-color="#8DB9F1"/></linearGradient><linearGradient id="paint10_linear" x1="21.915" y1="151.289" x2="33.942" y2="162.714" gradientUnits="userSpaceOnUse"><stop stop-color="#057EFF"/><stop offset="1" stop-color="#68B1FF"/></linearGradient><linearGradient id="paint11_linear" x1="114.361" y1="96.504" x2="42.991" y2="96.529" gradientUnits="userSpaceOnUse"><stop stop-color="#68B1FF"/><stop offset="1" stop-color="#007BFF"/></linearGradient><linearGradient id="paint12_linear" x1="83.31" y1="130.198" x2="83.676" y2="60.919" gradientUnits="userSpaceOnUse"><stop stop-color="#E9E9E9"/><stop offset="1" stop-color="#fff"/></linearGradient><linearGradient id="paint13_linear" x1="139.196" y1="144.749" x2="186.257" y2="144.764" gradientUnits="userSpaceOnUse"><stop stop-color="#68B1FF"/><stop offset="1" stop-color="#007BFF"/></linearGradient><linearGradient id="paint14_linear" x1="136.255" y1="129.047" x2="148.288" y2="129.049" gradientUnits="userSpaceOnUse"><stop stop-color="#68B1FF"/><stop offset="1" stop-color="#007BFF"/></linearGradient></defs></svg>