<svg width="180" height="239" fill="none" xmlns="http://www.w3.org/2000/svg"><path d="M22.944 21.833a1 1 0 011-1.016h145.237a1 1 0 011 1v171.6a1 1 0 01-1 1H26.644a1 1 0 01-1-.985l-2.7-171.599z" fill="url(#paint0_linear)" fill-opacity=".5"/><path d="M34.51 1a1 1 0 011-1h143.388a1 1 0 011 1v176.632a1 1 0 01-1 1H35.51a1 1 0 01-1-1V1z" fill="#F6F6F6"/><path d="M59.037 23.98a1 1 0 011-1h97.271a1 1 0 011 1v6.625a1 1 0 01-1 1H60.037a1 1 0 01-1-1V23.98z" fill="url(#paint1_linear)"/><path d="M58.306 63.656a1 1 0 011-1h97.271a1 1 0 011 1v6.626a1 1 0 01-1 1H59.306a1 1 0 01-1-1v-6.626z" fill="url(#paint2_linear)"/><path d="M59.037 103.333a1 1 0 011-1h97.271a1 1 0 011 1v6.625a1 1 0 01-1 1H60.037a1 1 0 01-1-1v-6.625z" fill="url(#paint3_linear)"/><path d="M58.914 83.494a1 1 0 011-1h97.272a1 1 0 011 1v6.626a1 1 0 01-1 1H59.914a1 1 0 01-1-1v-6.626z" fill="url(#paint4_linear)"/><path d="M59.037 143.01a1 1 0 011-1h97.271a1 1 0 011 1v6.625a1 1 0 01-1 1H60.037a1 1 0 01-1-1v-6.625z" fill="url(#paint5_linear)"/><path d="M58.914 123.172a1 1 0 011-1h97.272a1 1 0 011 1v6.625a1 1 0 01-1 1H59.914a1 1 0 01-1-1v-6.625z" fill="url(#paint6_linear)"/><path d="M58.914 43.817a1 1 0 011-1h97.272a1 1 0 011 1v6.626a1 1 0 01-1 1H59.914a1 1 0 01-1-1v-6.626z" fill="url(#paint7_linear)"/><path d="M67.773 57.14a1 1 0 01-.094-1.411l9.944-11.368 2.338 2.062L69.85 57.647a1 1 0 01-1.402.083l-.674-.59z" fill="url(#paint8_linear)"/><path d="M80.236 43.754l-.275 2.668-2.338-2.063 2.613-.605z" fill="url(#paint9_linear)"/><path d="M68.456 80.617c-4.732 3.222-7.845 4.37-18.62 8.528l.509-8.679 14.219-6.956 5.543-16.662c2.598.703 6.941.337 4.85 3.212-3.527 4.85-3.086 18.232-6.501 20.557zM3.227 116.769C2.73 115.279.882 104.972.882 99.177c2.07-1.035 9.258-3.195 9.175-2.205-.674 8.072-.62 18.555-.62 20.418 0 1.491.413 5.589.62 7.452.621 3.725 3.974 11.177 2.484 11.177-1.863 0-2.484-1.242-3.105-2.484-.62-1.242-5.588-14.903-6.21-16.766zM31.79 73.303c-.496.497-.527 3.185 0 4.347 1.035 2.276 15.445 3.834 14.948 4.33-.496.497-23.64 6.847-26.125 1.258.207-1.449-3.473-2.084-2.976-2.58.497-.497 2.77-7.976 1.735-10.46l4.967-21.733c4.347 1.863 11.124 8.65 12.366 11.754.652 1.63.053 8.737.053 9.98 0 1.241-4.347 2.483-4.967 3.104z" fill="#F3CFA4"/><path d="M14.404 231.645l.62-5.589 4.914-4.187 2.53 9.924-3.476 1.171-4.588-1.319z" fill="#CDCDCD"/><path d="M30.975 229.917c-3.779.396-8.708-.303-8.65-.922-1.201-.5-.058-.263-2.028.8-1.97 1.064-5.004.158-5.622.101-.618-.058-.964 3.652-.46 4.946.503 1.294 4.27 1.021 4.888 1.079.618.057.058-.619.734-1.179.675-.561.66 2.222 8.31.439 5.099-1.188 5.977-5.595 2.828-5.264z" fill="#033A76"/><path d="M27.444 73.924c1.987-.497 1.242-8.694 2.484-9.936 1.863-4.346 7.451-3.725 7.451-12.418 0-2.484-7.451-5.59-16.145-6.21-8.693-.621-8.072 5.588-9.935 8.072-1.863 2.484-1.242 8.693.621 13.661s5.589 6.83 6.83 8.072c1.242 1.242 4.968 2.484 4.968 1.242s1.242-1.863 3.726-2.483z" fill="#463A2B"/><path d="M30.35 233.416l.598-8.05 5.803-2.683 1.604 11.949-8.004-1.216z" fill="#CDCDCD"/><path d="M46.77 230.368c-3.771.468-8.713-.116-8.667-.735-1.21-.477-.046-.263-1.995.838-1.95 1.101-5 .252-5.62.206-.619-.046-.986 4.908-.459 6.192.528 1.285 4.289.941 4.908.987.62.046.046-.619.711-1.193.665-.573 1.19 1.686 8.804-.24 5.077-1.284 5.46-6.445 2.317-6.055z" fill="#034892"/><path d="M13.783 207.428c0-37.257-6.21-57.749-4.347-68.926 12.005-.414 36.42-4.646 36.42-2.162 0 3.105-1.647 39.419-1.647 44.387 0 4.967-4.967 47.192-6.21 48.434-1.241 1.242-7.916 1.242-8.071 0-.621-4.967 1.241-32.911 1.241-35.395 0-2.483-1.862-32.289-2.483-35.393-.249-1.242-.621 0-.621 1.863 0 1.862-.621 25.458-1.242 27.321-.621 1.863-4.968 39.741-4.968 40.983 0 1.242-7.881 1.289-8.072.621-1.242-4.347 0-18.008 0-21.733z" fill="#0076F4"/><path d="M31.79 141.608c4.968 0 11.385-.622 14.903-2.485 1.863 0-6.21-43.466-5.588-45.95 5.466-.664 10.954-3.77 12.918-3.77 1.173 0-1.242-9.314-1.242-11.176 0-.335-8.073.62-11.177.62-1.389 0-7.452-.62-8.625 0-1.552.822-3.726 1.864-6.21 1.864-1.986 0-6.156-.992-8.018-3.061-2.484-.621-10.61 3.682-13.094 4.924C3.174 83.816-.553 101.2.07 101.822c.611.611 6.638.618 9.788.621h.147c.62.001 0-1.862 1.295-6.165 0 4.347-.62 11.798-1.863 18.007-.852 4.263-1.863 20.492-1.863 22.976 0 2.484 18.008 4.347 24.218 4.347z" fill="url(#paint10_linear)"/><path d="M81.117 50.768c.133.42.963 1.264-1.54 3.63-3.022 2.857-3.712 4.21-4.125 4.677l-5.418-1.87c.199-.992.019-1.917.66-3.575.803-2.081 2.488-4.916 3.162-5.941.997-1.52 1.502-.978 1.53-.538.028.44-2.685 3.26-1.805 3.205.88-.055 1.704-.989 2.94-2.39l.002-.003c.353-.4.385-.907 1.266-.962.625-.04 1.26.456 1.389 1.066.216.009.524.205.921.556.509.448.667.875.618 1.271.118.137.253.412.4.874z" fill="#F3CFA4"/><defs><linearGradient id="paint0_linear" x1="96.555" y1="20.817" x2="96.555" y2="194.417" gradientUnits="userSpaceOnUse"><stop stop-color="#96C2F0"/><stop offset="1" stop-color="#8DB9F1"/></linearGradient><linearGradient id="paint1_linear" x1="54.556" y1="21.829" x2="161.904" y2="21.829" gradientUnits="userSpaceOnUse"><stop stop-color="#C4C4C4" stop-opacity="0"/><stop offset="1" stop-color="#C4C4C4"/></linearGradient><linearGradient id="paint2_linear" x1="54.596" y1="61.506" x2="161.146" y2="61.506" gradientUnits="userSpaceOnUse"><stop stop-color="#C4C4C4" stop-opacity="0"/><stop offset="1" stop-color="#C4C4C4"/></linearGradient><linearGradient id="paint3_linear" x1="54.556" y1="100.464" x2="161.904" y2="100.464" gradientUnits="userSpaceOnUse"><stop stop-color="#C4C4C4" stop-opacity="0"/><stop offset="1" stop-color="#C4C4C4"/></linearGradient><linearGradient id="paint4_linear" x1="54.433" y1="80.626" x2="161.781" y2="80.626" gradientUnits="userSpaceOnUse"><stop stop-color="#C4C4C4" stop-opacity="0"/><stop offset="1" stop-color="#C4C4C4"/></linearGradient><linearGradient id="paint5_linear" x1="54.556" y1="140.141" x2="161.904" y2="140.141" gradientUnits="userSpaceOnUse"><stop stop-color="#C4C4C4" stop-opacity="0"/><stop offset="1" stop-color="#C4C4C4"/></linearGradient><linearGradient id="paint6_linear" x1="54.433" y1="120.303" x2="161.781" y2="120.303" gradientUnits="userSpaceOnUse"><stop stop-color="#C4C4C4" stop-opacity="0"/><stop offset="1" stop-color="#C4C4C4"/></linearGradient><linearGradient id="paint7_linear" x1="54.433" y1="40.949" x2="161.781" y2="40.949" gradientUnits="userSpaceOnUse"><stop stop-color="#C4C4C4" stop-opacity="0"/><stop offset="1" stop-color="#C4C4C4"/></linearGradient><linearGradient id="paint8_linear" x1="72.322" y1="50.421" x2="74.668" y2="52.474" gradientUnits="userSpaceOnUse"><stop stop-color="#057EFF"/><stop offset="1" stop-color="#68B1FF"/></linearGradient><linearGradient id="paint9_linear" x1="79.906" y1="45.542" x2="78.503" y2="44.304" gradientUnits="userSpaceOnUse"><stop stop-color="#463A2B"/><stop offset=".677" stop-color="#816C51"/></linearGradient><linearGradient id="paint10_linear" x1="9.812" y1="110.31" x2="54.344" y2="110.322" gradientUnits="userSpaceOnUse"><stop stop-color="#68B1FF"/><stop offset="1" stop-color="#007BFF"/></linearGradient></defs></svg>