<svg width="27" height="28" fill="none" xmlns="http://www.w3.org/2000/svg"><path d="M7.235 15.45c-1.243-1.681-2.038-3.163-2.524-4.297a11.878 11.878 0 01-.516-1.427c-.102-.363-.16-.667-.16-.863 0-.18.027-.474.256-.714.23-.241.559-.32.905-.32H7.18c.32 0 .628.07.885.294.234.205.363.491.462.764l.001.003h0c.473 1.329 1.103 2.56 1.69 3.452.294.447.568.795.796 1.025.06.06.112.108.159.147l.001-.101v-2.781c-.03-.516-.181-.767-.314-.94a2.863 2.863 0 00-.117-.145l-.005-.006h0a3.032 3.032 0 01-.14-.176.998.998 0 01-.207-.593c0-.537.44-.942 1-.942h3.09c.286 0 .61.073.834.357.198.252.233.573.233.845v3.695c.086-.068.199-.17.355-.325.666-.716 1.247-1.64 1.668-2.401a18.581 18.581 0 00.62-1.227l.032-.073.008-.018.001-.004h0l.006-.013.006-.012a1.46 1.46 0 01.446-.552c.236-.17.529-.26.88-.26h1.93c.355 0 .742.088.974.406.225.31.184.67.101.93-.083.354-.31.813-.561 1.26a25.68 25.68 0 01-.914 1.48 57.442 57.442 0 01-1.012 1.484l-.108.154-.001.002-.088.132c-.05.074-.078.12-.097.154a.975.975 0 00.074.104l.004.006.004.006c.068.092.248.265.52.523l.026.024c.246.231.536.505.773.767l-13.96.176zm0 0c1.695 2.352 4.142 3.676 6.41 3.676.63 0 1.118-.065 1.448-.283.41-.271.455-.682.455-.958v-1.703c0-.063.002-.112.005-.15h.008c.077 0 .463.03 1.64 1.098.316.31.567.58.78.811l.105.114c.169.183.322.35.462.488.171.167.352.32.564.43.223.113.455.166.714.166h1.97c.342 0 .727-.08.986-.371.277-.312.283-.715.184-1.07l-.003-.01-.004-.011c-.116-.353-.367-.734-.66-1.115-.302-.39-.685-.825-1.104-1.288l-13.96.176zm8.123-2.615h.006-.005s0 0 0 0zM4.821.588H22.18c1.217 0 2.089 0 2.734.07.65.07.96.2 1.137.37.174.167.306.457.378 1.076.071.617.072 1.454.072 2.627v16.714c0 1.17 0 2.074-.073 2.79-.073.718-.212 1.171-.436 1.478-.211.29-.544.512-1.15.66-.618.152-1.475.215-2.676.215H3.857c-.954 0-1.615-.064-2.083-.207-.444-.136-.692-.337-.86-.625-.183-.315-.297-.784-.355-1.51C.5 23.522.5 22.612.5 21.444V4.731c0-1.173 0-2.01.072-2.627.072-.62.204-.909.378-1.076.177-.17.487-.3 1.137-.37.645-.07 1.517-.07 2.734-.07z" stroke="#F9F9F9"/></svg>